<svg width="565" height="99" viewBox="0 0 565 99" fill="none" xmlns="http://www.w3.org/2000/svg">
<rect width="565" height="99" fill="#292B2D"/>
<rect x="13" y="14" width="70" height="70" rx="5" fill="#DFDFDF"/>
<path d="M25.1761 77L26.608 68.2727H27.4602L26.0284 77H25.1761ZM21.2045 74.5795L21.3409 73.7273H27.8523L27.7159 74.5795H21.2045ZM22.108 77L23.5398 68.2727H24.392L22.9602 77H22.108ZM21.7159 71.5455L21.8523 70.6932H28.3636L28.2273 71.5455H21.7159ZM32.3203 77H29.6271V68.2727H32.4396C33.2862 68.2727 34.0107 68.4474 34.6129 68.7969C35.2152 69.1435 35.6768 69.642 35.9979 70.2926C36.3189 70.9403 36.4794 71.7159 36.4794 72.6193C36.4794 73.5284 36.3175 74.3111 35.9936 74.9673C35.6697 75.6207 35.1982 76.1236 34.5788 76.4759C33.9595 76.8253 33.2067 77 32.3203 77ZM30.6839 76.0625H32.2521C32.9737 76.0625 33.5717 75.9233 34.0462 75.6449C34.5206 75.3665 34.8743 74.9702 35.1072 74.456C35.3402 73.9418 35.4567 73.3295 35.4567 72.6193C35.4567 71.9148 35.3416 71.3082 35.1115 70.7997C34.8814 70.2884 34.5376 69.8963 34.0803 69.6236C33.6229 69.348 33.0533 69.2102 32.3714 69.2102H30.6839V76.0625ZM38.2521 77V68.2727H43.4851V69.2102H39.3089V72.1591H43.093V73.0966H39.3089V77H38.2521ZM47.9883 77H45.2951V68.2727H48.1076C48.9542 68.2727 49.6786 68.4474 50.2809 68.7969C50.8832 69.1435 51.3448 69.642 51.6658 70.2926C51.9869 70.9403 52.1474 71.7159 52.1474 72.6193C52.1474 73.5284 51.9854 74.3111 51.6616 74.9673C51.3377 75.6207 50.8661 76.1236 50.2468 76.4759C49.6275 76.8253 48.8746 77 47.9883 77ZM46.3519 76.0625H47.9201C48.6417 76.0625 49.2397 75.9233 49.7141 75.6449C50.1886 75.3665 50.5423 74.9702 50.7752 74.456C51.0082 73.9418 51.1246 73.3295 51.1246 72.6193C51.1246 71.9148 51.0096 71.3082 50.7795 70.7997C50.5494 70.2884 50.2056 69.8963 49.7482 69.6236C49.2908 69.348 48.7212 69.2102 48.0394 69.2102H46.3519V76.0625ZM53.9201 77V68.2727H59.1531V69.2102H54.9769V72.1591H58.761V73.0966H54.9769V77H53.9201ZM63.6562 77H60.9631V68.2727H63.7756C64.6222 68.2727 65.3466 68.4474 65.9489 68.7969C66.5511 69.1435 67.0128 69.642 67.3338 70.2926C67.6548 70.9403 67.8153 71.7159 67.8153 72.6193C67.8153 73.5284 67.6534 74.3111 67.3295 74.9673C67.0057 75.6207 66.5341 76.1236 65.9148 76.4759C65.2955 76.8253 64.5426 77 63.6562 77ZM62.0199 76.0625H63.5881C64.3097 76.0625 64.9077 75.9233 65.3821 75.6449C65.8565 75.3665 66.2102 74.9702 66.4432 74.456C66.6761 73.9418 66.7926 73.3295 66.7926 72.6193C66.7926 71.9148 66.6776 71.3082 66.4474 70.7997C66.2173 70.2884 65.8736 69.8963 65.4162 69.6236C64.9588 69.348 64.3892 69.2102 63.7074 69.2102H62.0199V76.0625ZM69.5881 77V68.2727H74.821V69.2102H70.6449V72.1591H74.429V73.0966H70.6449V77H69.5881Z" fill="#616161"/>
<rect x="91" y="14" width="70" height="70" rx="5" fill="#6CF7CF"/>
<path d="M103.176 77L104.608 68.2727H105.46L104.028 77H103.176ZM99.2045 74.5795L99.3409 73.7273H105.852L105.716 74.5795H99.2045ZM100.108 77L101.54 68.2727H102.392L100.96 77H100.108ZM99.7159 71.5455L99.8523 70.6932H106.364L106.227 71.5455H99.7159ZM110.371 77.1193C110.013 77.1136 109.656 77.0455 109.298 76.9148C108.94 76.7841 108.613 76.5639 108.317 76.2543C108.022 75.9418 107.785 75.5199 107.606 74.9886C107.427 74.4545 107.337 73.7841 107.337 72.9773C107.337 72.2045 107.41 71.5199 107.555 70.9233C107.7 70.3239 107.91 69.8196 108.185 69.4105C108.461 68.9986 108.793 68.6861 109.183 68.473C109.575 68.2599 110.016 68.1534 110.508 68.1534C110.996 68.1534 111.431 68.2514 111.812 68.4474C112.195 68.6406 112.508 68.9105 112.749 69.2571C112.991 69.6037 113.147 70.0028 113.218 70.4545H112.178C112.082 70.0625 111.894 69.7372 111.616 69.4787C111.337 69.2202 110.968 69.0909 110.508 69.0909C109.832 69.0909 109.299 69.3849 108.91 69.973C108.523 70.5611 108.329 71.3864 108.326 72.4489H108.394C108.553 72.2074 108.742 72.0014 108.961 71.831C109.183 71.6577 109.427 71.5241 109.694 71.4304C109.961 71.3366 110.244 71.2898 110.542 71.2898C111.042 71.2898 111.499 71.4148 111.914 71.6648C112.329 71.9119 112.661 72.2543 112.911 72.6918C113.161 73.1264 113.286 73.625 113.286 74.1875C113.286 74.7273 113.165 75.2216 112.924 75.6705C112.683 76.1165 112.343 76.4716 111.906 76.7358C111.471 76.9972 110.96 77.125 110.371 77.1193ZM110.371 76.1818C110.729 76.1818 111.05 76.0923 111.335 75.9134C111.621 75.7344 111.847 75.4943 112.012 75.1932C112.18 74.892 112.263 74.5568 112.263 74.1875C112.263 73.8267 112.183 73.4986 112.021 73.2031C111.862 72.9048 111.641 72.6676 111.36 72.4915C111.082 72.3153 110.763 72.2273 110.406 72.2273C110.136 72.2273 109.884 72.2812 109.651 72.3892C109.418 72.4943 109.214 72.6392 109.038 72.8239C108.864 73.0085 108.728 73.2202 108.629 73.4588C108.529 73.6946 108.479 73.9432 108.479 74.2045C108.479 74.5511 108.56 74.875 108.722 75.1761C108.887 75.4773 109.112 75.7202 109.396 75.9048C109.683 76.0895 110.008 76.1818 110.371 76.1818ZM122.138 71H121.081C121.019 70.696 120.909 70.429 120.753 70.1989C120.6 69.9688 120.412 69.7756 120.191 69.6193C119.972 69.4602 119.729 69.3409 119.462 69.2614C119.195 69.1818 118.917 69.142 118.627 69.142C118.098 69.142 117.62 69.2756 117.191 69.5426C116.765 69.8097 116.425 70.2031 116.172 70.723C115.922 71.2429 115.797 71.8807 115.797 72.6364C115.797 73.392 115.922 74.0298 116.172 74.5497C116.425 75.0696 116.765 75.4631 117.191 75.7301C117.62 75.9972 118.098 76.1307 118.627 76.1307C118.917 76.1307 119.195 76.0909 119.462 76.0114C119.729 75.9318 119.972 75.8139 120.191 75.6577C120.412 75.4986 120.6 75.304 120.753 75.0739C120.909 74.8409 121.019 74.5739 121.081 74.2727H122.138C122.059 74.7187 121.914 75.1179 121.703 75.4702C121.493 75.8224 121.232 76.1222 120.919 76.3693C120.607 76.6136 120.256 76.7997 119.867 76.9276C119.48 77.0554 119.067 77.1193 118.627 77.1193C117.882 77.1193 117.221 76.9375 116.641 76.5739C116.061 76.2102 115.605 75.6932 115.273 75.0227C114.941 74.3523 114.775 73.5568 114.775 72.6364C114.775 71.7159 114.941 70.9205 115.273 70.25C115.605 69.5795 116.061 69.0625 116.641 68.6989C117.221 68.3352 117.882 68.1534 118.627 68.1534C119.067 68.1534 119.48 68.2173 119.867 68.3452C120.256 68.473 120.607 68.6605 120.919 68.9077C121.232 69.152 121.493 69.4503 121.703 69.8026C121.914 70.152 122.059 70.5511 122.138 71ZM123.846 77V68.2727H129.079V69.2102H124.903V72.1591H128.687V73.0966H124.903V77H123.846ZM131.008 77L134.912 69.2784V69.2102H130.412V68.2727H136.002V69.2614L132.116 77H131.008ZM144.767 71H143.71C143.648 70.696 143.538 70.429 143.382 70.1989C143.229 69.9688 143.041 69.7756 142.82 69.6193C142.601 69.4602 142.358 69.3409 142.091 69.2614C141.824 69.1818 141.545 69.142 141.256 69.142C140.727 69.142 140.249 69.2756 139.82 69.5426C139.393 69.8097 139.054 70.2031 138.801 70.723C138.551 71.2429 138.426 71.8807 138.426 72.6364C138.426 73.392 138.551 74.0298 138.801 74.5497C139.054 75.0696 139.393 75.4631 139.82 75.7301C140.249 75.9972 140.727 76.1307 141.256 76.1307C141.545 76.1307 141.824 76.0909 142.091 76.0114C142.358 75.9318 142.601 75.8139 142.82 75.6577C143.041 75.4986 143.229 75.304 143.382 75.0739C143.538 74.8409 143.648 74.5739 143.71 74.2727H144.767C144.688 74.7187 144.543 75.1179 144.332 75.4702C144.122 75.8224 143.861 76.1222 143.548 76.3693C143.236 76.6136 142.885 76.7997 142.496 76.9276C142.109 77.0554 141.696 77.1193 141.256 77.1193C140.511 77.1193 139.849 76.9375 139.27 76.5739C138.69 76.2102 138.234 75.6932 137.902 75.0227C137.57 74.3523 137.403 73.5568 137.403 72.6364C137.403 71.7159 137.57 70.9205 137.902 70.25C138.234 69.5795 138.69 69.0625 139.27 68.6989C139.849 68.3352 140.511 68.1534 141.256 68.1534C141.696 68.1534 142.109 68.2173 142.496 68.3452C142.885 68.473 143.236 68.6605 143.548 68.9077C143.861 69.152 144.122 69.4503 144.332 69.8026C144.543 70.152 144.688 70.5511 144.767 71ZM146.475 77V68.2727H151.708V69.2102H147.532V72.1591H151.316V73.0966H147.532V77H146.475Z" fill="#616161"/>
<rect x="169" y="14" width="70" height="70" rx="5" fill="#00BD87"/>
<path d="M181.176 77L182.608 68.2727H183.46L182.028 77H181.176ZM177.205 74.5795L177.341 73.7273H183.852L183.716 74.5795H177.205ZM178.108 77L179.54 68.2727H180.392L178.96 77H178.108ZM177.716 71.5455L177.852 70.6932H184.364L184.227 71.5455H177.716ZM188.32 77.1193C187.678 77.1193 187.131 76.9446 186.68 76.5952C186.228 76.2429 185.883 75.733 185.644 75.0653C185.406 74.3949 185.286 73.5852 185.286 72.6364C185.286 71.6932 185.406 70.8878 185.644 70.2202C185.886 69.5497 186.232 69.0384 186.684 68.6861C187.138 68.331 187.684 68.1534 188.32 68.1534C188.957 68.1534 189.501 68.331 189.952 68.6861C190.407 69.0384 190.754 69.5497 190.992 70.2202C191.234 70.8878 191.354 71.6932 191.354 72.6364C191.354 73.5852 191.235 74.3949 190.996 75.0653C190.758 75.733 190.413 76.2429 189.961 76.5952C189.509 76.9446 188.962 77.1193 188.32 77.1193ZM188.32 76.1818C188.957 76.1818 189.451 75.875 189.803 75.2614C190.156 74.6477 190.332 73.7727 190.332 72.6364C190.332 71.8807 190.251 71.2372 190.089 70.706C189.93 70.1747 189.7 69.7699 189.398 69.4915C189.1 69.2131 188.741 69.0739 188.32 69.0739C187.69 69.0739 187.197 69.3849 186.842 70.0071C186.487 70.6264 186.309 71.5028 186.309 72.6364C186.309 73.392 186.388 74.0341 186.548 74.5625C186.707 75.0909 186.935 75.4929 187.234 75.7685C187.535 76.044 187.897 76.1818 188.32 76.1818ZM195.82 77.1193C195.178 77.1193 194.631 76.9446 194.18 76.5952C193.728 76.2429 193.383 75.733 193.144 75.0653C192.906 74.3949 192.786 73.5852 192.786 72.6364C192.786 71.6932 192.906 70.8878 193.144 70.2202C193.386 69.5497 193.732 69.0384 194.184 68.6861C194.638 68.331 195.184 68.1534 195.82 68.1534C196.457 68.1534 197.001 68.331 197.452 68.6861C197.907 69.0384 198.254 69.5497 198.492 70.2202C198.734 70.8878 198.854 71.6932 198.854 72.6364C198.854 73.5852 198.735 74.3949 198.496 75.0653C198.258 75.733 197.913 76.2429 197.461 76.5952C197.009 76.9446 196.462 77.1193 195.82 77.1193ZM195.82 76.1818C196.457 76.1818 196.951 75.875 197.303 75.2614C197.656 74.6477 197.832 73.7727 197.832 72.6364C197.832 71.8807 197.751 71.2372 197.589 70.706C197.43 70.1747 197.2 69.7699 196.898 69.4915C196.6 69.2131 196.241 69.0739 195.82 69.0739C195.19 69.0739 194.697 69.3849 194.342 70.0071C193.987 70.6264 193.809 71.5028 193.809 72.6364C193.809 73.392 193.888 74.0341 194.048 74.5625C194.207 75.0909 194.435 75.4929 194.734 75.7685C195.035 76.044 195.397 76.1818 195.82 76.1818ZM200.627 77V68.2727H203.678C204.286 68.2727 204.788 68.3778 205.183 68.5881C205.577 68.7955 205.871 69.0753 206.065 69.4276C206.258 69.777 206.354 70.1648 206.354 70.5909C206.354 70.9659 206.288 71.2756 206.154 71.5199C206.023 71.7642 205.85 71.9574 205.634 72.0994C205.421 72.2415 205.19 72.3466 204.94 72.4148V72.5C205.207 72.517 205.475 72.6108 205.745 72.7812C206.015 72.9517 206.241 73.196 206.423 73.5142C206.604 73.8324 206.695 74.2216 206.695 74.6818C206.695 75.1193 206.596 75.5128 206.397 75.8622C206.198 76.2116 205.884 76.4886 205.455 76.6932C205.026 76.8977 204.468 77 203.781 77H200.627ZM201.684 76.0625H203.781C204.471 76.0625 204.961 75.929 205.251 75.6619C205.543 75.392 205.69 75.0653 205.69 74.6818C205.69 74.3864 205.614 74.1136 205.464 73.8636C205.313 73.6108 205.099 73.4091 204.82 73.2585C204.542 73.1051 204.212 73.0284 203.832 73.0284H201.684V76.0625ZM201.684 72.108H203.644C203.962 72.108 204.249 72.0455 204.505 71.9205C204.763 71.7955 204.968 71.6193 205.119 71.392C205.272 71.1648 205.349 70.8977 205.349 70.5909C205.349 70.2074 205.215 69.8821 204.948 69.6151C204.681 69.3452 204.258 69.2102 203.678 69.2102H201.684V72.108ZM211.125 77H208.432V68.2727H211.244C212.091 68.2727 212.815 68.4474 213.418 68.7969C214.02 69.1435 214.482 69.642 214.803 70.2926C215.124 70.9403 215.284 71.7159 215.284 72.6193C215.284 73.5284 215.122 74.3111 214.798 74.9673C214.474 75.6207 214.003 76.1236 213.384 76.4759C212.764 76.8253 212.011 77 211.125 77ZM209.489 76.0625H211.057C211.778 76.0625 212.376 75.9233 212.851 75.6449C213.325 75.3665 213.679 74.9702 213.912 74.456C214.145 73.9418 214.261 73.3295 214.261 72.6193C214.261 71.9148 214.146 71.3082 213.916 70.7997C213.686 70.2884 213.342 69.8963 212.885 69.6236C212.428 69.348 211.858 69.2102 211.176 69.2102H209.489V76.0625ZM219.699 77.1193C219.114 77.1193 218.597 77.0156 218.148 76.8082C217.702 76.598 217.354 76.3097 217.104 75.9432C216.854 75.5739 216.73 75.1534 216.733 74.6818C216.73 74.3125 216.803 73.9716 216.95 73.6591C217.098 73.3437 217.3 73.081 217.555 72.8707C217.814 72.6577 218.102 72.5227 218.42 72.4659V72.4148C218.003 72.3068 217.67 72.0724 217.423 71.7116C217.176 71.348 217.054 70.9347 217.057 70.4716C217.054 70.0284 217.166 69.6321 217.393 69.2827C217.621 68.9332 217.933 68.6577 218.331 68.456C218.732 68.2543 219.188 68.1534 219.699 68.1534C220.205 68.1534 220.656 68.2543 221.054 68.456C221.452 68.6577 221.764 68.9332 221.991 69.2827C222.222 69.6321 222.338 70.0284 222.341 70.4716C222.338 70.9347 222.212 71.348 221.962 71.7116C221.714 72.0724 221.386 72.3068 220.977 72.4148V72.4659C221.293 72.5227 221.577 72.6577 221.83 72.8707C222.082 73.081 222.284 73.3437 222.435 73.6591C222.585 73.9716 222.662 74.3125 222.665 74.6818C222.662 75.1534 222.534 75.5739 222.281 75.9432C222.031 76.3097 221.683 76.598 221.237 76.8082C220.794 77.0156 220.281 77.1193 219.699 77.1193ZM219.699 76.1818C220.094 76.1818 220.435 76.1179 220.722 75.9901C221.009 75.8622 221.23 75.6818 221.386 75.4489C221.543 75.2159 221.622 74.9432 221.625 74.6307C221.622 74.3011 221.537 74.0099 221.369 73.7571C221.202 73.5043 220.973 73.3054 220.683 73.1605C220.396 73.0156 220.068 72.9432 219.699 72.9432C219.327 72.9432 218.994 73.0156 218.702 73.1605C218.412 73.3054 218.183 73.5043 218.016 73.7571C217.851 74.0099 217.77 74.3011 217.773 74.6307C217.77 74.9432 217.845 75.2159 217.999 75.4489C218.155 75.6818 218.378 75.8622 218.668 75.9901C218.957 76.1179 219.301 76.1818 219.699 76.1818ZM219.699 72.0398C220.011 72.0398 220.288 71.9773 220.53 71.8523C220.774 71.7273 220.966 71.5526 221.105 71.3281C221.244 71.1037 221.315 70.8409 221.318 70.5398C221.315 70.2443 221.246 69.9872 221.109 69.7685C220.973 69.5469 220.784 69.3764 220.543 69.2571C220.301 69.1349 220.02 69.0739 219.699 69.0739C219.372 69.0739 219.087 69.1349 218.842 69.2571C218.598 69.3764 218.409 69.5469 218.276 69.7685C218.142 69.9872 218.077 70.2443 218.08 70.5398C218.077 70.8409 218.143 71.1037 218.28 71.3281C218.419 71.5526 218.611 71.7273 218.855 71.8523C219.099 71.9773 219.381 72.0398 219.699 72.0398ZM224.571 77L228.474 69.2784V69.2102H223.974V68.2727H229.565V69.2614L225.679 77H224.571Z" fill="#535353"/>
<rect x="246.75" y="13.75" width="70.5" height="70.5" rx="5.25" fill="#6C6C6C" stroke="#EDEDED" stroke-width="0.5"/>
<path d="M258.176 77L259.608 68.2727H260.46L259.028 77H258.176ZM254.205 74.5795L254.341 73.7273H260.852L260.716 74.5795H254.205ZM255.108 77L256.54 68.2727H257.392L255.96 77H255.108ZM254.716 71.5455L254.852 70.6932H261.364L261.227 71.5455H254.716ZM265.371 77.1193C265.013 77.1136 264.656 77.0455 264.298 76.9148C263.94 76.7841 263.613 76.5639 263.317 76.2543C263.022 75.9418 262.785 75.5199 262.606 74.9886C262.427 74.4545 262.337 73.7841 262.337 72.9773C262.337 72.2045 262.41 71.5199 262.555 70.9233C262.7 70.3239 262.91 69.8196 263.185 69.4105C263.461 68.9986 263.793 68.6861 264.183 68.473C264.575 68.2599 265.016 68.1534 265.508 68.1534C265.996 68.1534 266.431 68.2514 266.812 68.4474C267.195 68.6406 267.508 68.9105 267.749 69.2571C267.991 69.6037 268.147 70.0028 268.218 70.4545H267.178C267.082 70.0625 266.894 69.7372 266.616 69.4787C266.337 69.2202 265.968 69.0909 265.508 69.0909C264.832 69.0909 264.299 69.3849 263.91 69.973C263.523 70.5611 263.329 71.3864 263.326 72.4489H263.394C263.553 72.2074 263.742 72.0014 263.961 71.831C264.183 71.6577 264.427 71.5241 264.694 71.4304C264.961 71.3366 265.244 71.2898 265.542 71.2898C266.042 71.2898 266.499 71.4148 266.914 71.6648C267.329 71.9119 267.661 72.2543 267.911 72.6918C268.161 73.1264 268.286 73.625 268.286 74.1875C268.286 74.7273 268.165 75.2216 267.924 75.6705C267.683 76.1165 267.343 76.4716 266.906 76.7358C266.471 76.9972 265.96 77.125 265.371 77.1193ZM265.371 76.1818C265.729 76.1818 266.05 76.0923 266.335 75.9134C266.621 75.7344 266.847 75.4943 267.012 75.1932C267.18 74.892 267.263 74.5568 267.263 74.1875C267.263 73.8267 267.183 73.4986 267.021 73.2031C266.862 72.9048 266.641 72.6676 266.36 72.4915C266.082 72.3153 265.763 72.2273 265.406 72.2273C265.136 72.2273 264.884 72.2812 264.651 72.3892C264.418 72.4943 264.214 72.6392 264.038 72.8239C263.864 73.0085 263.728 73.2202 263.629 73.4588C263.529 73.6946 263.479 73.9432 263.479 74.2045C263.479 74.5511 263.56 74.875 263.722 75.1761C263.887 75.4773 264.112 75.7202 264.396 75.9048C264.683 76.0895 265.008 76.1818 265.371 76.1818ZM277.138 71H276.081C276.019 70.696 275.909 70.429 275.753 70.1989C275.6 69.9688 275.412 69.7756 275.191 69.6193C274.972 69.4602 274.729 69.3409 274.462 69.2614C274.195 69.1818 273.917 69.142 273.627 69.142C273.098 69.142 272.62 69.2756 272.191 69.5426C271.765 69.8097 271.425 70.2031 271.172 70.723C270.922 71.2429 270.797 71.8807 270.797 72.6364C270.797 73.392 270.922 74.0298 271.172 74.5497C271.425 75.0696 271.765 75.4631 272.191 75.7301C272.62 75.9972 273.098 76.1307 273.627 76.1307C273.917 76.1307 274.195 76.0909 274.462 76.0114C274.729 75.9318 274.972 75.8139 275.191 75.6577C275.412 75.4986 275.6 75.304 275.753 75.0739C275.909 74.8409 276.019 74.5739 276.081 74.2727H277.138C277.059 74.7187 276.914 75.1179 276.703 75.4702C276.493 75.8224 276.232 76.1222 275.919 76.3693C275.607 76.6136 275.256 76.7997 274.867 76.9276C274.48 77.0554 274.067 77.1193 273.627 77.1193C272.882 77.1193 272.221 76.9375 271.641 76.5739C271.061 76.2102 270.605 75.6932 270.273 75.0227C269.941 74.3523 269.775 73.5568 269.775 72.6364C269.775 71.7159 269.941 70.9205 270.273 70.25C270.605 69.5795 271.061 69.0625 271.641 68.6989C272.221 68.3352 272.882 68.1534 273.627 68.1534C274.067 68.1534 274.48 68.2173 274.867 68.3452C275.256 68.473 275.607 68.6605 275.919 68.9077C276.232 69.152 276.493 69.4503 276.703 69.8026C276.914 70.152 277.059 70.5511 277.138 71ZM281.59 77.1193C281.232 77.1136 280.874 77.0455 280.516 76.9148C280.158 76.7841 279.832 76.5639 279.536 76.2543C279.241 75.9418 279.004 75.5199 278.825 74.9886C278.646 74.4545 278.556 73.7841 278.556 72.9773C278.556 72.2045 278.629 71.5199 278.773 70.9233C278.918 70.3239 279.129 69.8196 279.404 69.4105C279.68 68.9986 280.012 68.6861 280.401 68.473C280.793 68.2599 281.235 68.1534 281.727 68.1534C282.215 68.1534 282.65 68.2514 283.031 68.4474C283.414 68.6406 283.727 68.9105 283.968 69.2571C284.21 69.6037 284.366 70.0028 284.437 70.4545H283.397C283.3 70.0625 283.113 69.7372 282.835 69.4787C282.556 69.2202 282.187 69.0909 281.727 69.0909C281.05 69.0909 280.518 69.3849 280.129 69.973C279.742 70.5611 279.548 71.3864 279.545 72.4489H279.613C279.772 72.2074 279.961 72.0014 280.18 71.831C280.401 71.6577 280.646 71.5241 280.913 71.4304C281.18 71.3366 281.462 71.2898 281.761 71.2898C282.261 71.2898 282.718 71.4148 283.133 71.6648C283.548 71.9119 283.88 72.2543 284.13 72.6918C284.38 73.1264 284.505 73.625 284.505 74.1875C284.505 74.7273 284.384 75.2216 284.143 75.6705C283.901 76.1165 283.562 76.4716 283.124 76.7358C282.69 76.9972 282.178 77.125 281.59 77.1193ZM281.59 76.1818C281.948 76.1818 282.269 76.0923 282.553 75.9134C282.84 75.7344 283.066 75.4943 283.231 75.1932C283.398 74.892 283.482 74.5568 283.482 74.1875C283.482 73.8267 283.401 73.4986 283.239 73.2031C283.08 72.9048 282.86 72.6676 282.579 72.4915C282.3 72.3153 281.982 72.2273 281.624 72.2273C281.354 72.2273 281.103 72.2812 280.87 72.3892C280.637 72.4943 280.433 72.6392 280.256 72.8239C280.083 73.0085 279.947 73.2202 279.847 73.4588C279.748 73.6946 279.698 73.9432 279.698 74.2045C279.698 74.5511 279.779 74.875 279.941 75.1761C280.106 75.4773 280.33 75.7202 280.614 75.9048C280.901 76.0895 281.227 76.1818 281.59 76.1818ZM293.357 71H292.3C292.238 70.696 292.128 70.429 291.972 70.1989C291.819 69.9688 291.631 69.7756 291.409 69.6193C291.191 69.4602 290.948 69.3409 290.681 69.2614C290.414 69.1818 290.135 69.142 289.846 69.142C289.317 69.142 288.838 69.2756 288.409 69.5426C287.983 69.8097 287.644 70.2031 287.391 70.723C287.141 71.2429 287.016 71.8807 287.016 72.6364C287.016 73.392 287.141 74.0298 287.391 74.5497C287.644 75.0696 287.983 75.4631 288.409 75.7301C288.838 75.9972 289.317 76.1307 289.846 76.1307C290.135 76.1307 290.414 76.0909 290.681 76.0114C290.948 75.9318 291.191 75.8139 291.409 75.6577C291.631 75.4986 291.819 75.304 291.972 75.0739C292.128 74.8409 292.238 74.5739 292.3 74.2727H293.357C293.277 74.7187 293.132 75.1179 292.922 75.4702C292.712 75.8224 292.451 76.1222 292.138 76.3693C291.826 76.6136 291.475 76.7997 291.086 76.9276C290.699 77.0554 290.286 77.1193 289.846 77.1193C289.101 77.1193 288.439 76.9375 287.86 76.5739C287.28 76.2102 286.824 75.6932 286.492 75.0227C286.159 74.3523 285.993 73.5568 285.993 72.6364C285.993 71.7159 286.159 70.9205 286.492 70.25C286.824 69.5795 287.28 69.0625 287.86 68.6989C288.439 68.3352 289.101 68.1534 289.846 68.1534C290.286 68.1534 290.699 68.2173 291.086 68.3452C291.475 68.473 291.826 68.6605 292.138 68.9077C292.451 69.152 292.712 69.4503 292.922 69.8026C293.132 70.152 293.277 70.5511 293.357 71ZM297.809 77.1193C297.451 77.1136 297.093 77.0455 296.735 76.9148C296.377 76.7841 296.05 76.5639 295.755 76.2543C295.46 75.9418 295.222 75.5199 295.043 74.9886C294.864 74.4545 294.775 73.7841 294.775 72.9773C294.775 72.2045 294.847 71.5199 294.992 70.9233C295.137 70.3239 295.347 69.8196 295.623 69.4105C295.898 68.9986 296.231 68.6861 296.62 68.473C297.012 68.2599 297.454 68.1534 297.945 68.1534C298.434 68.1534 298.869 68.2514 299.249 68.4474C299.633 68.6406 299.945 68.9105 300.187 69.2571C300.428 69.6037 300.585 70.0028 300.656 70.4545H299.616C299.519 70.0625 299.332 69.7372 299.053 69.4787C298.775 69.2202 298.406 69.0909 297.945 69.0909C297.269 69.0909 296.737 69.3849 296.347 69.973C295.961 70.5611 295.766 71.3864 295.763 72.4489H295.832C295.991 72.2074 296.18 72.0014 296.398 71.831C296.62 71.6577 296.864 71.5241 297.131 71.4304C297.398 71.3366 297.681 71.2898 297.979 71.2898C298.479 71.2898 298.937 71.4148 299.352 71.6648C299.766 71.9119 300.099 72.2543 300.349 72.6918C300.599 73.1264 300.724 73.625 300.724 74.1875C300.724 74.7273 300.603 75.2216 300.362 75.6705C300.12 76.1165 299.781 76.4716 299.343 76.7358C298.908 76.9972 298.397 77.125 297.809 77.1193ZM297.809 76.1818C298.167 76.1818 298.488 76.0923 298.772 75.9134C299.059 75.7344 299.285 75.4943 299.45 75.1932C299.617 74.892 299.701 74.5568 299.701 74.1875C299.701 73.8267 299.62 73.4986 299.458 73.2031C299.299 72.9048 299.079 72.6676 298.798 72.4915C298.519 72.3153 298.201 72.2273 297.843 72.2273C297.573 72.2273 297.322 72.2812 297.089 72.3892C296.856 72.4943 296.651 72.6392 296.475 72.8239C296.302 73.0085 296.165 73.2202 296.066 73.4588C295.967 73.6946 295.917 73.9432 295.917 74.2045C295.917 74.5511 295.998 74.875 296.16 75.1761C296.325 75.4773 296.549 75.7202 296.833 75.9048C297.12 76.0895 297.445 76.1818 297.809 76.1818ZM309.576 71H308.519C308.456 70.696 308.347 70.429 308.191 70.1989C308.037 69.9688 307.85 69.7756 307.628 69.6193C307.409 69.4602 307.167 69.3409 306.9 69.2614C306.632 69.1818 306.354 69.142 306.064 69.142C305.536 69.142 305.057 69.2756 304.628 69.5426C304.202 69.8097 303.863 70.2031 303.61 70.723C303.36 71.2429 303.235 71.8807 303.235 72.6364C303.235 73.392 303.36 74.0298 303.61 74.5497C303.863 75.0696 304.202 75.4631 304.628 75.7301C305.057 75.9972 305.536 76.1307 306.064 76.1307C306.354 76.1307 306.632 76.0909 306.9 76.0114C307.167 75.9318 307.409 75.8139 307.628 75.6577C307.85 75.4986 308.037 75.304 308.191 75.0739C308.347 74.8409 308.456 74.5739 308.519 74.2727H309.576C309.496 74.7187 309.351 75.1179 309.141 75.4702C308.931 75.8224 308.669 76.1222 308.357 76.3693C308.044 76.6136 307.694 76.7997 307.304 76.9276C306.918 77.0554 306.505 77.1193 306.064 77.1193C305.32 77.1193 304.658 76.9375 304.078 76.5739C303.499 76.2102 303.043 75.6932 302.711 75.0227C302.378 74.3523 302.212 73.5568 302.212 72.6364C302.212 71.7159 302.378 70.9205 302.711 70.25C303.043 69.5795 303.499 69.0625 304.078 68.6989C304.658 68.3352 305.32 68.1534 306.064 68.1534C306.505 68.1534 306.918 68.2173 307.304 68.3452C307.694 68.473 308.044 68.6605 308.357 68.9077C308.669 69.152 308.931 69.4503 309.141 69.8026C309.351 70.152 309.496 70.5511 309.576 71Z" fill="white"/>
<rect x="324.75" y="13.75" width="70.5" height="70.5" rx="5.25" fill="#535353" stroke="#848484" stroke-width="0.5"/>
<rect x="403" y="14" width="70" height="70" rx="5" fill="#F87021"/>
<path d="M417.176 77L418.608 68.2727H419.46L418.028 77H417.176ZM413.205 74.5795L413.341 73.7273H419.852L419.716 74.5795H413.205ZM414.108 77L415.54 68.2727H416.392L414.96 77H414.108ZM413.716 71.5455L413.852 70.6932H420.364L420.227 71.5455H413.716ZM421.627 77V68.2727H426.86V69.2102H422.684V72.1591H426.468V73.0966H422.684V77H421.627ZM431.312 77.1193C430.727 77.1193 430.21 77.0156 429.761 76.8082C429.315 76.598 428.967 76.3097 428.717 75.9432C428.467 75.5739 428.343 75.1534 428.346 74.6818C428.343 74.3125 428.416 73.9716 428.564 73.6591C428.711 73.3437 428.913 73.081 429.169 72.8707C429.427 72.6577 429.716 72.5227 430.034 72.4659V72.4148C429.616 72.3068 429.284 72.0724 429.037 71.7116C428.789 71.348 428.667 70.9347 428.67 70.4716C428.667 70.0284 428.779 69.6321 429.007 69.2827C429.234 68.9332 429.547 68.6577 429.944 68.456C430.345 68.2543 430.801 68.1534 431.312 68.1534C431.818 68.1534 432.27 68.2543 432.667 68.456C433.065 68.6577 433.377 68.9332 433.605 69.2827C433.835 69.6321 433.951 70.0284 433.954 70.4716C433.951 70.9347 433.825 71.348 433.575 71.7116C433.328 72.0724 433 72.3068 432.591 72.4148V72.4659C432.906 72.5227 433.19 72.6577 433.443 72.8707C433.696 73.081 433.897 73.3437 434.048 73.6591C434.199 73.9716 434.275 74.3125 434.278 74.6818C434.275 75.1534 434.147 75.5739 433.895 75.9432C433.645 76.3097 433.297 76.598 432.85 76.8082C432.407 77.0156 431.895 77.1193 431.312 77.1193ZM431.312 76.1818C431.707 76.1818 432.048 76.1179 432.335 75.9901C432.622 75.8622 432.843 75.6818 433 75.4489C433.156 75.2159 433.235 74.9432 433.238 74.6307C433.235 74.3011 433.15 74.0099 432.983 73.7571C432.815 73.5043 432.586 73.3054 432.297 73.1605C432.01 73.0156 431.681 72.9432 431.312 72.9432C430.94 72.9432 430.608 73.0156 430.315 73.1605C430.025 73.3054 429.797 73.5043 429.629 73.7571C429.464 74.0099 429.383 74.3011 429.386 74.6307C429.383 74.9432 429.458 75.2159 429.612 75.4489C429.768 75.6818 429.991 75.8622 430.281 75.9901C430.571 76.1179 430.914 76.1818 431.312 76.1818ZM431.312 72.0398C431.625 72.0398 431.902 71.9773 432.143 71.8523C432.387 71.7273 432.579 71.5526 432.718 71.3281C432.858 71.1037 432.929 70.8409 432.931 70.5398C432.929 70.2443 432.859 69.9872 432.723 69.7685C432.586 69.5469 432.397 69.3764 432.156 69.2571C431.914 69.1349 431.633 69.0739 431.312 69.0739C430.985 69.0739 430.7 69.1349 430.456 69.2571C430.211 69.3764 430.022 69.5469 429.889 69.7685C429.755 69.9872 429.69 70.2443 429.693 70.5398C429.69 70.8409 429.757 71.1037 429.893 71.3281C430.032 71.5526 430.224 71.7273 430.468 71.8523C430.713 71.9773 430.994 72.0398 431.312 72.0398ZM436.184 77L440.087 69.2784V69.2102H435.587V68.2727H441.178V69.2614L437.292 77H436.184ZM445.426 77.1193C444.784 77.1193 444.237 76.9446 443.785 76.5952C443.333 76.2429 442.988 75.733 442.75 75.0653C442.511 74.3949 442.392 73.5852 442.392 72.6364C442.392 71.6932 442.511 70.8878 442.75 70.2202C442.991 69.5497 443.338 69.0384 443.789 68.6861C444.244 68.331 444.789 68.1534 445.426 68.1534C446.062 68.1534 446.606 68.331 447.058 68.6861C447.512 69.0384 447.859 69.5497 448.098 70.2202C448.339 70.8878 448.46 71.6932 448.46 72.6364C448.46 73.5852 448.341 74.3949 448.102 75.0653C447.863 75.733 447.518 76.2429 447.066 76.5952C446.615 76.9446 446.068 77.1193 445.426 77.1193ZM445.426 76.1818C446.062 76.1818 446.556 75.875 446.909 75.2614C447.261 74.6477 447.437 73.7727 447.437 72.6364C447.437 71.8807 447.356 71.2372 447.194 70.706C447.035 70.1747 446.805 69.7699 446.504 69.4915C446.206 69.2131 445.846 69.0739 445.426 69.0739C444.795 69.0739 444.302 69.3849 443.947 70.0071C443.592 70.6264 443.414 71.5028 443.414 72.6364C443.414 73.392 443.494 74.0341 443.653 74.5625C443.812 75.0909 444.041 75.4929 444.339 75.7685C444.64 76.044 445.002 76.1818 445.426 76.1818ZM450.079 77V76.233L452.96 73.0795C453.298 72.7102 453.576 72.3892 453.795 72.1165C454.014 71.8409 454.176 71.5824 454.281 71.3409C454.389 71.0966 454.443 70.8409 454.443 70.5739C454.443 70.267 454.369 70.0014 454.221 69.777C454.076 69.5526 453.877 69.3793 453.625 69.2571C453.372 69.1349 453.088 69.0739 452.772 69.0739C452.437 69.0739 452.145 69.1435 451.895 69.2827C451.647 69.419 451.456 69.6108 451.319 69.858C451.186 70.1051 451.119 70.3949 451.119 70.7273H450.113C450.113 70.2159 450.231 69.767 450.467 69.3807C450.703 68.9943 451.024 68.6932 451.43 68.4773C451.839 68.2614 452.298 68.1534 452.806 68.1534C453.318 68.1534 453.771 68.2614 454.166 68.4773C454.561 68.6932 454.87 68.9844 455.095 69.3509C455.319 69.7173 455.431 70.125 455.431 70.5739C455.431 70.8949 455.373 71.2088 455.257 71.5156C455.143 71.8196 454.944 72.1591 454.66 72.5341C454.379 72.9062 453.988 73.3608 453.488 73.8977L451.528 75.9943V76.0625H455.585V77H450.079ZM460.413 68.2727V77H459.356V69.3807H459.305L457.174 70.7955V69.7216L459.356 68.2727H460.413Z" fill="white"/>
<path d="M337.176 77L338.608 68.2727H339.46L338.028 77H337.176ZM333.205 74.5795L333.341 73.7273H339.852L339.716 74.5795H333.205ZM334.108 77L335.54 68.2727H336.392L334.96 77H334.108ZM333.716 71.5455L333.852 70.6932H340.364L340.227 71.5455H333.716ZM344.201 77.1193C343.701 77.1193 343.251 77.0199 342.85 76.821C342.45 76.6222 342.129 76.3494 341.887 76.0028C341.646 75.6562 341.513 75.2614 341.491 74.8182H342.513C342.553 75.2131 342.732 75.5398 343.05 75.7983C343.371 76.054 343.755 76.1818 344.201 76.1818C344.559 76.1818 344.877 76.098 345.156 75.9304C345.437 75.7628 345.657 75.5327 345.816 75.2401C345.978 74.9446 346.059 74.6108 346.059 74.2386C346.059 73.858 345.975 73.5185 345.808 73.2202C345.643 72.919 345.415 72.6818 345.126 72.5085C344.836 72.3352 344.505 72.2472 344.133 72.2443C343.866 72.2415 343.592 72.2827 343.31 72.3679C343.029 72.4503 342.798 72.5568 342.616 72.6875L341.627 72.5682L342.156 68.2727H346.69V69.2102H343.042L342.735 71.7841H342.786C342.965 71.642 343.19 71.5241 343.46 71.4304C343.729 71.3366 344.011 71.2898 344.303 71.2898C344.837 71.2898 345.313 71.4176 345.731 71.6733C346.151 71.9261 346.481 72.2727 346.719 72.7131C346.961 73.1534 347.082 73.6562 347.082 74.2216C347.082 74.7784 346.957 75.2756 346.707 75.7131C346.46 76.1477 346.119 76.4915 345.684 76.7443C345.249 76.9943 344.755 77.1193 344.201 77.1193ZM351.723 77.1193C351.161 77.1193 350.659 77.0227 350.219 76.8295C349.782 76.6364 349.434 76.3679 349.175 76.0241C348.919 75.6776 348.78 75.2756 348.757 74.8182H349.831C349.854 75.0994 349.951 75.3423 350.121 75.5469C350.292 75.7486 350.515 75.9048 350.79 76.0156C351.066 76.1264 351.371 76.1818 351.706 76.1818C352.081 76.1818 352.414 76.1165 352.703 75.9858C352.993 75.8551 353.221 75.6733 353.385 75.4403C353.55 75.2074 353.632 74.9375 353.632 74.6307C353.632 74.3097 353.553 74.027 353.394 73.7827C353.235 73.5355 353.002 73.3423 352.695 73.2031C352.388 73.0639 352.013 72.9943 351.57 72.9943H350.871V72.0568H351.57C351.917 72.0568 352.221 71.9943 352.482 71.8693C352.746 71.7443 352.952 71.5682 353.1 71.3409C353.25 71.1136 353.326 70.8466 353.326 70.5398C353.326 70.2443 353.26 69.9872 353.13 69.7685C352.999 69.5497 352.814 69.3793 352.576 69.2571C352.34 69.1349 352.061 69.0739 351.74 69.0739C351.439 69.0739 351.155 69.1293 350.888 69.2401C350.624 69.348 350.408 69.5057 350.24 69.7131C350.073 69.9176 349.982 70.1648 349.968 70.4545H348.945C348.962 69.9972 349.1 69.5966 349.358 69.2528C349.617 68.9062 349.955 68.6364 350.373 68.4432C350.793 68.25 351.255 68.1534 351.757 68.1534C352.297 68.1534 352.76 68.2628 353.147 68.4815C353.533 68.6974 353.83 68.983 354.037 69.3381C354.245 69.6932 354.348 70.0767 354.348 70.4886C354.348 70.9801 354.219 71.3991 353.961 71.7457C353.705 72.0923 353.357 72.3324 352.917 72.4659V72.5341C353.468 72.625 353.898 72.8594 354.208 73.2372C354.517 73.6122 354.672 74.0767 354.672 74.6307C354.672 75.1051 354.543 75.5312 354.284 75.9091C354.029 76.2841 353.679 76.5795 353.236 76.7955C352.793 77.0114 352.289 77.1193 351.723 77.1193ZM359.142 77.1193C358.642 77.1193 358.192 77.0199 357.792 76.821C357.391 76.6222 357.07 76.3494 356.828 76.0028C356.587 75.6562 356.455 75.2614 356.432 74.8182H357.455C357.495 75.2131 357.674 75.5398 357.992 75.7983C358.313 76.054 358.696 76.1818 359.142 76.1818C359.5 76.1818 359.819 76.098 360.097 75.9304C360.378 75.7628 360.598 75.5327 360.757 75.2401C360.919 74.9446 361 74.6108 361 74.2386C361 73.858 360.917 73.5185 360.749 73.2202C360.584 72.919 360.357 72.6818 360.067 72.5085C359.777 72.3352 359.446 72.2472 359.074 72.2443C358.807 72.2415 358.533 72.2827 358.252 72.3679C357.971 72.4503 357.739 72.5568 357.557 72.6875L356.569 72.5682L357.097 68.2727H361.631V69.2102H357.983L357.676 71.7841H357.728C357.907 71.642 358.131 71.5241 358.401 71.4304C358.671 71.3366 358.952 71.2898 359.245 71.2898C359.779 71.2898 360.255 71.4176 360.672 71.6733C361.093 71.9261 361.422 72.2727 361.661 72.7131C361.902 73.1534 362.023 73.6562 362.023 74.2216C362.023 74.7784 361.898 75.2756 361.648 75.7131C361.401 76.1477 361.06 76.4915 360.625 76.7443C360.191 76.9943 359.696 77.1193 359.142 77.1193ZM366.665 77.1193C366.102 77.1193 365.601 77.0227 365.161 76.8295C364.723 76.6364 364.375 76.3679 364.116 76.0241C363.861 75.6776 363.722 75.2756 363.699 74.8182H364.773C364.795 75.0994 364.892 75.3423 365.062 75.5469C365.233 75.7486 365.456 75.9048 365.732 76.0156C366.007 76.1264 366.313 76.1818 366.648 76.1818C367.023 76.1818 367.355 76.1165 367.645 75.9858C367.935 75.8551 368.162 75.6733 368.327 75.4403C368.491 75.2074 368.574 74.9375 368.574 74.6307C368.574 74.3097 368.494 74.027 368.335 73.7827C368.176 73.5355 367.943 73.3423 367.636 73.2031C367.33 73.0639 366.955 72.9943 366.511 72.9943H365.812V72.0568H366.511C366.858 72.0568 367.162 71.9943 367.423 71.8693C367.688 71.7443 367.893 71.5682 368.041 71.3409C368.192 71.1136 368.267 70.8466 368.267 70.5398C368.267 70.2443 368.202 69.9872 368.071 69.7685C367.94 69.5497 367.756 69.3793 367.517 69.2571C367.281 69.1349 367.003 69.0739 366.682 69.0739C366.381 69.0739 366.097 69.1293 365.83 69.2401C365.565 69.348 365.349 69.5057 365.182 69.7131C365.014 69.9176 364.923 70.1648 364.909 70.4545H363.886C363.903 69.9972 364.041 69.5966 364.3 69.2528C364.558 68.9062 364.896 68.6364 365.314 68.4432C365.734 68.25 366.196 68.1534 366.699 68.1534C367.239 68.1534 367.702 68.2628 368.088 68.4815C368.474 68.6974 368.771 68.983 368.979 69.3381C369.186 69.6932 369.29 70.0767 369.29 70.4886C369.29 70.9801 369.161 71.3991 368.902 71.7457C368.646 72.0923 368.298 72.3324 367.858 72.4659V72.5341C368.409 72.625 368.839 72.8594 369.149 73.2372C369.459 73.6122 369.614 74.0767 369.614 74.6307C369.614 75.1051 369.484 75.5312 369.226 75.9091C368.97 76.2841 368.621 76.5795 368.178 76.7955C367.734 77.0114 367.23 77.1193 366.665 77.1193ZM374.084 77.1193C373.584 77.1193 373.134 77.0199 372.733 76.821C372.332 76.6222 372.011 76.3494 371.77 76.0028C371.528 75.6562 371.396 75.2614 371.374 74.8182H372.396C372.436 75.2131 372.615 75.5398 372.933 75.7983C373.254 76.054 373.638 76.1818 374.084 76.1818C374.442 76.1818 374.76 76.098 375.038 75.9304C375.32 75.7628 375.54 75.5327 375.699 75.2401C375.861 74.9446 375.942 74.6108 375.942 74.2386C375.942 73.858 375.858 73.5185 375.69 73.2202C375.526 72.919 375.298 72.6818 375.009 72.5085C374.719 72.3352 374.388 72.2472 374.016 72.2443C373.749 72.2415 373.474 72.2827 373.193 72.3679C372.912 72.4503 372.68 72.5568 372.499 72.6875L371.51 72.5682L372.038 68.2727H376.572V69.2102H372.925L372.618 71.7841H372.669C372.848 71.642 373.072 71.5241 373.342 71.4304C373.612 71.3366 373.893 71.2898 374.186 71.2898C374.72 71.2898 375.196 71.4176 375.614 71.6733C376.034 71.9261 376.364 72.2727 376.602 72.7131C376.844 73.1534 376.964 73.6562 376.964 74.2216C376.964 74.7784 376.839 75.2756 376.589 75.7131C376.342 76.1477 376.001 76.4915 375.567 76.7443C375.132 76.9943 374.638 77.1193 374.084 77.1193ZM381.606 77.1193C381.044 77.1193 380.542 77.0227 380.102 76.8295C379.664 76.6364 379.316 76.3679 379.058 76.0241C378.802 75.6776 378.663 75.2756 378.64 74.8182H379.714C379.737 75.0994 379.833 75.3423 380.004 75.5469C380.174 75.7486 380.397 75.9048 380.673 76.0156C380.949 76.1264 381.254 76.1818 381.589 76.1818C381.964 76.1818 382.297 76.1165 382.586 75.9858C382.876 75.8551 383.103 75.6733 383.268 75.4403C383.433 75.2074 383.515 74.9375 383.515 74.6307C383.515 74.3097 383.436 74.027 383.277 73.7827C383.118 73.5355 382.885 73.3423 382.578 73.2031C382.271 73.0639 381.896 72.9943 381.453 72.9943H380.754V72.0568H381.453C381.799 72.0568 382.103 71.9943 382.365 71.8693C382.629 71.7443 382.835 71.5682 382.983 71.3409C383.133 71.1136 383.208 70.8466 383.208 70.5398C383.208 70.2443 383.143 69.9872 383.012 69.7685C382.882 69.5497 382.697 69.3793 382.458 69.2571C382.223 69.1349 381.944 69.0739 381.623 69.0739C381.322 69.0739 381.038 69.1293 380.771 69.2401C380.507 69.348 380.291 69.5057 380.123 69.7131C379.956 69.9176 379.865 70.1648 379.85 70.4545H378.828C378.845 69.9972 378.983 69.5966 379.241 69.2528C379.5 68.9062 379.838 68.6364 380.255 68.4432C380.676 68.25 381.137 68.1534 381.64 68.1534C382.18 68.1534 382.643 68.2628 383.029 68.4815C383.416 68.6974 383.713 68.983 383.92 69.3381C384.127 69.6932 384.231 70.0767 384.231 70.4886C384.231 70.9801 384.102 71.3991 383.843 71.7457C383.588 72.0923 383.24 72.3324 382.799 72.4659V72.5341C383.35 72.625 383.781 72.8594 384.091 73.2372C384.4 73.6122 384.555 74.0767 384.555 74.6307C384.555 75.1051 384.426 75.5312 384.167 75.9091C383.912 76.2841 383.562 76.5795 383.119 76.7955C382.676 77.0114 382.172 77.1193 381.606 77.1193Z" fill="white"/>
<rect x="481" y="14" width="70" height="70" rx="5" fill="#CD4B00"/>
<path d="M492.176 77L493.608 68.2727H494.46L493.028 77H492.176ZM488.205 74.5795L488.341 73.7273H494.852L494.716 74.5795H488.205ZM489.108 77L490.54 68.2727H491.392L489.96 77H489.108ZM488.716 71.5455L488.852 70.6932H495.364L495.227 71.5455H488.716ZM503.65 71H502.593C502.531 70.696 502.421 70.429 502.265 70.1989C502.112 69.9688 501.924 69.7756 501.702 69.6193C501.484 69.4602 501.241 69.3409 500.974 69.2614C500.707 69.1818 500.428 69.142 500.138 69.142C499.61 69.142 499.131 69.2756 498.702 69.5426C498.276 69.8097 497.937 70.2031 497.684 70.723C497.434 71.2429 497.309 71.8807 497.309 72.6364C497.309 73.392 497.434 74.0298 497.684 74.5497C497.937 75.0696 498.276 75.4631 498.702 75.7301C499.131 75.9972 499.61 76.1307 500.138 76.1307C500.428 76.1307 500.707 76.0909 500.974 76.0114C501.241 75.9318 501.484 75.8139 501.702 75.6577C501.924 75.4986 502.112 75.304 502.265 75.0739C502.421 74.8409 502.531 74.5739 502.593 74.2727H503.65C503.57 74.7187 503.425 75.1179 503.215 75.4702C503.005 75.8224 502.744 76.1222 502.431 76.3693C502.119 76.6136 501.768 76.7997 501.379 76.9276C500.992 77.0554 500.579 77.1193 500.138 77.1193C499.394 77.1193 498.732 76.9375 498.153 76.5739C497.573 76.2102 497.117 75.6932 496.785 75.0227C496.452 74.3523 496.286 73.5568 496.286 72.6364C496.286 71.7159 496.452 70.9205 496.785 70.25C497.117 69.5795 497.573 69.0625 498.153 68.6989C498.732 68.3352 499.394 68.1534 500.138 68.1534C500.579 68.1534 500.992 68.2173 501.379 68.3452C501.768 68.473 502.119 68.6605 502.431 68.9077C502.744 69.152 503.005 69.4503 503.215 69.8026C503.425 70.152 503.57 70.5511 503.65 71ZM508.051 77H505.358V68.2727H508.17C509.017 68.2727 509.741 68.4474 510.343 68.7969C510.946 69.1435 511.407 69.642 511.728 70.2926C512.049 70.9403 512.21 71.7159 512.21 72.6193C512.21 73.5284 512.048 74.3111 511.724 74.9673C511.4 75.6207 510.929 76.1236 510.309 76.4759C509.69 76.8253 508.937 77 508.051 77ZM506.414 76.0625H507.983C508.704 76.0625 509.302 75.9233 509.777 75.6449C510.251 75.3665 510.605 74.9702 510.838 74.456C511.071 73.9418 511.187 73.3295 511.187 72.6193C511.187 71.9148 511.072 71.3082 510.842 70.7997C510.612 70.2884 510.268 69.8963 509.811 69.6236C509.353 69.348 508.784 69.2102 508.102 69.2102H506.414V76.0625ZM513.625 75.2102V74.3409L517.46 68.2727H518.091V69.6193H517.664L514.767 74.2045V74.2727H519.931V75.2102H513.625ZM517.733 77V74.946V74.5412V68.2727H518.738V77H517.733ZM521.682 77V68.2727H524.733C525.341 68.2727 525.842 68.3778 526.237 68.5881C526.632 68.7955 526.926 69.0753 527.119 69.4276C527.313 69.777 527.409 70.1648 527.409 70.5909C527.409 70.9659 527.342 71.2756 527.209 71.5199C527.078 71.7642 526.905 71.9574 526.689 72.0994C526.476 72.2415 526.244 72.3466 525.994 72.4148V72.5C526.261 72.517 526.53 72.6108 526.8 72.7812C527.07 72.9517 527.295 73.196 527.477 73.5142C527.659 73.8324 527.75 74.2216 527.75 74.6818C527.75 75.1193 527.651 75.5128 527.452 75.8622C527.253 76.2116 526.939 76.4886 526.51 76.6932C526.081 76.8977 525.523 77 524.835 77H521.682ZM522.739 76.0625H524.835C525.526 76.0625 526.016 75.929 526.305 75.6619C526.598 75.392 526.744 75.0653 526.744 74.6818C526.744 74.3864 526.669 74.1136 526.518 73.8636C526.368 73.6108 526.153 73.4091 525.875 73.2585C525.597 73.1051 525.267 73.0284 524.886 73.0284H522.739V76.0625ZM522.739 72.108H524.699C525.017 72.108 525.304 72.0455 525.56 71.9205C525.818 71.7955 526.023 71.6193 526.173 71.392C526.327 71.1648 526.403 70.8977 526.403 70.5909C526.403 70.2074 526.27 69.8821 526.003 69.6151C525.736 69.3452 525.313 69.2102 524.733 69.2102H522.739V72.108ZM532.18 77.1193C531.538 77.1193 530.991 76.9446 530.539 76.5952C530.087 76.2429 529.742 75.733 529.504 75.0653C529.265 74.3949 529.146 73.5852 529.146 72.6364C529.146 71.6932 529.265 70.8878 529.504 70.2202C529.745 69.5497 530.092 69.0384 530.543 68.6861C530.998 68.331 531.543 68.1534 532.18 68.1534C532.816 68.1534 533.36 68.331 533.812 68.6861C534.266 69.0384 534.613 69.5497 534.852 70.2202C535.093 70.8878 535.214 71.6932 535.214 72.6364C535.214 73.5852 535.094 74.3949 534.856 75.0653C534.617 75.733 534.272 76.2429 533.82 76.5952C533.369 76.9446 532.822 77.1193 532.18 77.1193ZM532.18 76.1818C532.816 76.1818 533.31 75.875 533.663 75.2614C534.015 74.6477 534.191 73.7727 534.191 72.6364C534.191 71.8807 534.11 71.2372 533.948 70.706C533.789 70.1747 533.559 69.7699 533.258 69.4915C532.96 69.2131 532.6 69.0739 532.18 69.0739C531.549 69.0739 531.056 69.3849 530.701 70.0071C530.346 70.6264 530.168 71.5028 530.168 72.6364C530.168 73.392 530.248 74.0341 530.407 74.5625C530.566 75.0909 530.795 75.4929 531.093 75.7685C531.394 76.044 531.756 76.1818 532.18 76.1818ZM539.68 77.1193C539.038 77.1193 538.491 76.9446 538.039 76.5952C537.587 76.2429 537.242 75.733 537.004 75.0653C536.765 74.3949 536.646 73.5852 536.646 72.6364C536.646 71.6932 536.765 70.8878 537.004 70.2202C537.245 69.5497 537.592 69.0384 538.043 68.6861C538.498 68.331 539.043 68.1534 539.68 68.1534C540.316 68.1534 540.86 68.331 541.312 68.6861C541.766 69.0384 542.113 69.5497 542.352 70.2202C542.593 70.8878 542.714 71.6932 542.714 72.6364C542.714 73.5852 542.594 74.3949 542.356 75.0653C542.117 75.733 541.772 76.2429 541.32 76.5952C540.869 76.9446 540.322 77.1193 539.68 77.1193ZM539.68 76.1818C540.316 76.1818 540.81 75.875 541.163 75.2614C541.515 74.6477 541.691 73.7727 541.691 72.6364C541.691 71.8807 541.61 71.2372 541.448 70.706C541.289 70.1747 541.059 69.7699 540.758 69.4915C540.46 69.2131 540.1 69.0739 539.68 69.0739C539.049 69.0739 538.556 69.3849 538.201 70.0071C537.846 70.6264 537.668 71.5028 537.668 72.6364C537.668 73.392 537.748 74.0341 537.907 74.5625C538.066 75.0909 538.295 75.4929 538.593 75.7685C538.894 76.044 539.256 76.1818 539.68 76.1818Z" fill="white"/>
</svg>
