<svg width="40" height="41" viewBox="0 0 40 41" fill="none" xmlns="http://www.w3.org/2000/svg">
<g clip-path="url(#clip0_551_87)">
<path d="M36.4831 0.802734H3.31667C1.4593 0.802734 0 2.24549 0 4.0818V36.8722C0 38.7085 1.4593 40.1512 3.31667 40.1512H18.5733H26.5332H36.4831C38.3404 40.1512 39.7997 38.7085 39.7997 36.8722V4.0818C39.7997 2.24549 38.3404 0.802734 36.4831 0.802734ZM19.8999 38.8396V25.7235H14.5932V20.477H19.8999V15.8863C19.8999 12.1482 22.8185 9.00036 26.5331 8.67243H32.5031V13.9189H27.1964C26.0687 13.9189 25.2064 14.7714 25.2064 15.8863V20.477H31.8398V25.7235H25.2065V38.8397H19.8999V38.8396ZM38.473 36.8722C38.473 37.9871 37.6107 38.8396 36.4831 38.8396H26.5331V27.035H33.1664V19.1653H26.5331V15.8863C26.5331 15.4928 26.7984 15.2305 27.1964 15.2305H33.8298V7.36079H26.4668C22.0225 7.75427 18.5732 11.4924 18.5732 15.8863V19.1653H13.2665V27.035H18.5732V38.8396H3.31667C2.18899 38.8396 1.32668 37.9871 1.32668 36.8722V4.0818C1.32668 2.9669 2.18899 2.11438 3.31667 2.11438H36.4831C37.6108 2.11438 38.4731 2.9669 38.4731 4.0818V36.8722H38.473Z" fill="white"/>
</g>
<defs>
<clipPath id="clip0_551_87">
<rect width="39.7997" height="39.3485" fill="white" transform="translate(0 0.802734)"/>
</clipPath>
</defs>
</svg>
