<!-- credit: https://www.svgrepo.com/svg/176882/facebook-social-media -->
<svg>
    <symbol id="facebook" width="100%" height="100%" viewBox="0 0 42 41" fill="none" xmlns="http://www.w3.org/2000/svg">
    <path id="facebook" d="M20.9954 39.3955V25.6673H15.2811M20.9954 39.3955L26.7097 39.3956M20.9954 39.3955H3.13828C1.92397 39.3955 0.995425 38.5032 0.995425 37.3363V3.0157C0.995425 1.84877 1.92397 0.956464 3.13828 0.956464H38.8526C40.0669 0.956464 40.9954 1.84877 40.9954 3.0157L40.9953 37.3363C40.9953 38.5032 40.0668 39.3955 38.8525 39.3955L26.7097 39.3956M15.2811 25.6673L15.2812 20.1758M15.2811 25.6673V19.6749H21.093L20.9954 15.3711M20.9954 15.3711C21.8107 11.0645 24.1383 8.16379 28.1382 7.82056M20.9954 15.3711C21.8107 11.0645 23.2457 8.91185 28.1382 7.82056M28.1382 7.82056H34.5668V13.3119H28.8525M28.8525 13.3119C27.6382 13.3119 26.7097 13.9345 26.7096 15.3711M28.8525 13.3119C28.366 12.7136 26.2175 14.2902 26.7096 15.3711M26.7096 15.3711V20.176H33.8525V25.6673H26.7097V39.3956"/>
</symbol>
</svg>
