<svg xmlns="http://www.w3.org/2000/svg" version="1.1" xmlns:xlink="http://www.w3.org/1999/xlink" xmlns:svgjs="http://svgjs.com/svgjs" width="52" height="49"><svg width="52" height="49" viewBox="0 0 52 49" fill="none" xmlns="http://www.w3.org/2000/svg">
<path d="M0 9.67105C0 4.32988 4.36522 0 9.75 0H42.25C47.6348 0 52 4.32988 52 9.67105V39.3289C52 44.6701 47.6348 49 42.25 49H9.75C4.36522 49 0 44.6701 0 39.3289V9.67105Z" fill="#11644D"></path>
<path fill-rule="evenodd" clip-rule="evenodd" d="M31.5551 11.6045C31.9766 13.0179 32.3677 14.3823 32.5849 15.5242C33.8802 15.7579 35.2124 16.2647 36.4633 17.0516C40.3713 19.51 42.0064 23.7709 40.1154 26.5686C39.0338 28.1688 37.033 28.9438 34.787 28.854C36.3183 30.1384 37.3585 32.6509 37.3585 35.5402C37.3585 37.3817 36.9359 39.0702 36.233 40.3852C37.0648 40.7639 37.6078 41.3874 37.6078 42.0925C37.6078 43.2472 36.1514 44.1833 34.3549 44.1833C33.3853 44.1833 32.5148 43.9107 31.9189 43.4782C31.1892 44.2035 28.6255 44.1925 25.4145 44.1788C24.9629 44.1769 24.4985 44.1749 24.0245 44.1749C23.5506 44.1749 23.0862 44.1769 22.6346 44.1788C18.8214 44.1951 15.921 44.2075 15.921 42.9876C15.921 42.5874 16.233 42.2096 16.7868 41.8753C15.9843 41.3653 15.2604 40.7592 14.6351 40.0753C14.3603 40.7176 13.9201 41.1734 13.3446 41.3304C11.9227 41.7183 10.2135 40.1345 9.5271 37.7929C8.84072 35.4513 9.43704 33.2385 10.859 32.8506C11.27 32.7385 11.705 32.7911 12.1323 32.9791C12.5338 27.8145 17.2454 23.7386 22.9985 23.7386C24.235 23.7386 25.4233 23.9269 26.5311 24.2737C25.3199 22.5162 24.8742 20.5525 25.3845 18.8792C24.3776 17.9578 23.3628 16.175 22.717 14.0091C21.6956 10.584 21.9835 7.49776 23.3601 7.11574C24.359 6.8385 25.6568 8.06172 26.684 10.0627C27.0055 7.65454 28.5084 5.63845 29.5197 5.3578C30.4499 5.09964 30.7417 7.00112 31.0431 8.96546C31.1877 9.90784 31.3345 10.8647 31.5551 11.6045ZM35.1572 21.723C35.6342 21.723 36.0209 21.2877 36.0209 20.7508C36.0209 20.2139 35.6342 19.7786 35.1572 19.7786C34.6801 19.7786 34.2934 20.2139 34.2934 20.7508C34.2934 21.2877 34.6801 21.723 35.1572 21.723Z" fill="white"></path>
</svg><style>@media (prefers-color-scheme: light) { :root { filter: none; } }
@media (prefers-color-scheme: dark) { :root { filter: contrast(0.9090909090909091) brightness(1.5); } }
</style></svg>