<!-- credit: https://www.svgrepo.com/svg/61094/gift -->
<svg>
    <symbol id="gift" width="100%" height="100%" viewBox="0 0 76 76" xmlns="http://www.w3.org/2000/svg">
        <path d="M74.293 14.057H59.0336C59.9836 12.7805 60.5477 11.1773 60.5477 9.42578C60.5477 4.63125 56.5398 1.70703 52.8289 1.70703C50.825 1.70703 48.8211 2.62734 47.4258 4.02266L38 13.4484L28.5742 4.02266C27.1789 2.47891 25.175 1.70703 23.1711 1.70703C19.4602 1.70703 15.4523 4.64609 15.4523 9.42578C15.4523 11.1773 16.0164 12.7805 16.9664 14.057H1.70703V32.4336H7.88203V74.2781H68.1031V32.4336H74.2781V14.057H74.293ZM49.593 6.18984C50.6766 5.10625 52.057 4.79453 52.8289 4.79453C55.1445 4.79453 57.4602 6.48672 57.4602 9.42578C57.4602 12.0531 55.4562 14.057 52.8289 14.057H41.7258L49.593 6.18984ZM18.5547 9.42578C18.5547 6.48672 20.8703 4.79453 23.1859 4.79453C23.9578 4.79453 25.1898 5.10625 26.4219 6.18984L34.3039 14.057H23.1859C20.5586 14.057 18.5547 12.0531 18.5547 9.42578ZM4.80938 29.3461V17.1445H36.4711V29.3461H4.80938ZM10.9844 32.4336H36.4711V71.1906H10.9844V32.4336ZM65.0453 71.2055H39.5586V32.4336H65.0453V71.2055ZM71.2203 29.3461H39.5586V17.1445H71.2203V29.3461Z"/>
    </symbol>
</svg>
