<!-- credit: (MIT licence) https://www.svgrepo.com/svg/419930/instagram-socials-social-media-icon (modified)-->
<svg>
    <symbol id="instagram" width="100%" height="100%" viewBox="0 0 42 41" fill="none" xmlns="http://www.w3.org/2000/svg">
        <mask id="path-1-inside-1_551_92">
        <path d="M12.0069 0H30.2038C36.3839 0 41.4117 4.97076 41.4115 11.0803V29.071C41.4115 35.1805 36.3839 40.1513 30.2038 40.1513H12.0069C5.82725 40.1513 0.799728 35.1808 0.799728 29.071V11.0803C0.799728 4.97076 5.82725 0 12.0069 0Z"/>
        </mask>
        <path d="M12.0069 0H30.2038C36.3839 0 41.4117 4.97076 41.4115 11.0803V29.071C41.4115 35.1805 36.3839 40.1513 30.2038 40.1513H12.0069C5.82725 40.1513 0.799728 35.1808 0.799728 29.071V11.0803C0.799728 4.97076 5.82725 0 12.0069 0Z" 
            mask="url(#path-1-inside-1_551_92)"/>
        <mask id="path-2-inside-2_551_92" >
        <path d="M10.641 20.0762C10.641 14.3713 15.3353 9.73022 21.1056 9.73022C26.8759 9.73022 31.5702 14.3713 31.5702 20.0762C31.5702 25.7808 26.8759 30.4217 21.1056 30.4217C15.3353 30.4217 10.641 25.7808 10.641 20.0762Z"/>
        </mask>
        <path d="M10.641 20.0762C10.641 14.3713 15.3353 9.73022 21.1056 9.73022C26.8759 9.73022 31.5702 14.3713 31.5702 20.0762C31.5702 25.7808 26.8759 30.4217 21.1056 30.4217C15.3353 30.4217 10.641 25.7808 10.641 20.0762Z" 
            mask="url(#path-2-inside-2_551_92)"/>
        <mask id="path-3-inside-3_551_92">
        <path d="M30.1426 7.4742C30.6329 6.98734 31.3149 6.70947 32.0091 6.70947C32.7057 6.70947 33.3879 6.98734 33.878 7.4742C34.3704 7.95869 34.6515 8.63318 34.6515 9.32191C34.6515 10.0083 34.3704 10.6828 33.878 11.1696C33.3855 11.6541 32.7057 11.9343 32.0091 11.9343C31.3149 11.9343 30.6326 11.6541 30.1426 11.1696C29.6501 10.6828 29.3667 10.0085 29.3667 9.32191C29.3667 8.63318 29.6499 7.95869 30.1426 7.4742Z"/>
        </mask>
        <path d="M30.1426 7.4742C30.6329 6.98734 31.3149 6.70947 32.0091 6.70947C32.7057 6.70947 33.3879 6.98734 33.878 7.4742C34.3704 7.95869 34.6515 8.63318 34.6515 9.32191C34.6515 10.0083 34.3704 10.6828 33.878 11.1696C33.3855 11.6541 32.7057 11.9343 32.0091 11.9343C31.3149 11.9343 30.6326 11.6541 30.1426 11.1696C29.6501 10.6828 29.3667 10.0085 29.3667 9.32191C29.3667 8.63318 29.6499 7.95869 30.1426 7.4742Z" 
            mask="url(#path-3-inside-3_551_92)"/>
    </symbol>
</svg>
