<svg>
    <symbol id="location" width="85%" height="100%" viewBox="0 0 36 42" fill="none" xmlns="http://www.w3.org/2000/svg">
        <path d="M18 24V31.9149V39.8297M18 0.776733C27.231 0.776733 34.7143 8.10407 34.7143 17.1428C34.7143 24.0579 28.7225 30.9994 19.9546 39.8335C18.8304 40.7789 17.1696 40.7789 16.0409 39.8297L15.3933 39.28C6.76509 30.4994 1.28571 23.9038 1.28571 17.1428C1.28571 8.10407 8.76895 0.776733 18 0.776733ZM18 10.8482C21.5504 10.8482 24.4286 13.6664 24.4286 17.1428C24.4286 20.6192 22 23.3749 18 23.4374C14 23.5 11.5714 20.6192 11.5714 17.1428C11.5714 13.6664 14.4496 10.8482 18 10.8482Z"/>
    </symbol>
</svg>
