<svg>
    <symbol id="phone" width="100%" height="100%" viewBox="0 0 34 33" fill="none" xmlns="http://www.w3.org/2000/svg">
        <mask id="path-1-inside-1_329_306">
        <path d="M26.0664 19.5581C27.5075 19.5537 29.1061 20.2669 31.1008 21.8047C32.8524 23.1544 33.7411 24.5259 33.8109 26.008C33.9178 28.1506 32.2753 29.6917 30.9557 30.9298C30.7543 31.1125 30.5574 31.2973 30.3752 31.4767C29.8774 31.9097 29.2963 32.2425 28.6654 32.4558C28.0346 32.669 27.3665 32.7586 26.6998 32.7192C23.1211 32.7312 16.4983 30.3983 9.59977 23.7855C6.02366 20.4873 3.18412 16.5088 1.25791 12.0976C-0.238343 8.32093 -0.185469 5.26062 1.40078 3.69874C1.58753 3.51937 1.77316 3.32687 1.96328 3.13109C3.18391 1.86343 4.70377 0.287336 6.8334 0.27968C8.40502 0.275305 9.87878 1.12077 11.3413 2.8653C15.209 7.47108 13.7488 9.55468 11.4369 11.7991L11.1759 12.0539C11.195 12.3492 11.5224 13.805 15.6849 17.7917C19.79 21.7248 21.3099 22.0726 21.6474 22.0934L21.9039 21.8375L21.9071 21.8343C22.9751 20.7687 24.1828 19.5636 26.0664 19.5581Z"/>
        </mask>
        <path d="M26.0664 19.5581C27.5075 19.5537 29.1061 20.2669 31.1008 21.8047C32.8524 23.1544 33.7411 24.5259 33.8109 26.008C33.9178 28.1506 32.2753 29.6917 30.9557 30.9298C30.7543 31.1125 30.5574 31.2973 30.3752 31.4767C29.8774 31.9097 29.2963 32.2425 28.6654 32.4558C28.0346 32.669 27.3665 32.7586 26.6998 32.7192C23.1211 32.7312 16.4983 30.3983 9.59977 23.7855C6.02366 20.4873 3.18412 16.5088 1.25791 12.0976C-0.238343 8.32093 -0.185469 5.26062 1.40078 3.69874C1.58753 3.51937 1.77316 3.32687 1.96328 3.13109C3.18391 1.86343 4.70377 0.287336 6.8334 0.27968C8.40502 0.275305 9.87878 1.12077 11.3413 2.8653C15.209 7.47108 13.7488 9.55468 11.4369 11.7991L11.1759 12.0539C11.195 12.3492 11.5224 13.805 15.6849 17.7917C19.79 21.7248 21.3099 22.0726 21.6474 22.0934L21.9039 21.8375L21.9071 21.8343C22.9751 20.7687 24.1828 19.5636 26.0664 19.5581Z" 
            mask="url(#path-1-inside-1_329_306)"/>
    </symbol>
</svg>
