<svg width="65" height="83" viewBox="0 0 65 83" fill="none" xmlns="http://www.w3.org/2000/svg">
<mask id="path-1-inside-1_329_233" fill="white">
<path fill-rule="evenodd" clip-rule="evenodd" d="M45.7759 13.3356C46.6404 16.3409 47.4426 19.2418 47.8885 21.6701C50.5468 22.1669 53.2809 23.245 55.8483 24.9191C63.8666 30.1475 67.2214 39.2096 63.3415 45.1598C61.1223 48.5631 57.017 50.2113 52.4088 50.0204C55.5509 52.7518 57.6853 58.0957 57.6853 64.241C57.6853 68.1578 56.8182 71.7491 55.3758 74.5459C57.0815 75.3514 58.1948 76.6772 58.1948 78.1763C58.1948 80.6322 55.2067 82.6231 51.5207 82.6231C49.531 82.6231 47.7446 82.0429 46.5218 81.1226C45.0272 82.6672 39.7655 82.6439 33.1745 82.6147L33.1709 82.6146C32.2454 82.6105 31.2938 82.6063 30.3227 82.6063C29.3517 82.6063 28.4 82.6105 27.4746 82.6146L27.4709 82.6147H27.4709C19.6472 82.6493 13.6963 82.6757 13.6963 80.0811C13.6963 79.2301 14.3365 78.4264 15.4729 77.7154C13.8281 76.6316 12.3443 75.3438 11.0623 73.8907C10.4985 75.2536 9.59614 76.2206 8.4172 76.554C5.49965 77.3791 1.99286 74.0107 0.58457 69.0305C-0.823718 64.0503 0.399785 59.3443 3.31734 58.5193C4.15944 58.2811 5.05064 58.3924 5.92629 58.7909C6.75314 47.8097 16.4186 39.1443 28.2205 39.1443C30.7591 39.1443 33.1989 39.5453 35.4732 40.284C32.986 36.545 32.0702 32.3669 33.1172 28.8069C31.0517 26.8468 28.9702 23.0559 27.6453 18.4503C25.5497 11.1659 26.1405 4.60198 28.9648 3.7895C31.0136 3.2001 33.6751 5.79937 35.7821 10.0521C36.4431 4.93241 39.5255 0.646915 41.5997 0.0502232C43.5083 -0.498844 44.1069 3.54523 44.7253 7.72296C45.022 9.72721 45.3233 11.7622 45.7759 13.3356ZM54.5261 33.0188C54.9506 32.6577 54.8793 31.8768 54.3669 31.2744C53.8545 30.6721 53.0951 30.4764 52.6706 30.8374C52.2462 31.1985 52.3175 31.9795 52.8299 32.5818C53.3423 33.1842 54.1017 33.3798 54.5261 33.0188Z"/>
</mask>
<path d="M47.8885 21.6701L45.747 22.0633L46.0173 23.5354L47.4885 23.8103L47.8885 21.6701ZM45.7759 13.3356L47.8683 12.7337L45.7759 13.3356ZM55.8483 24.9191L57.0375 23.0953L55.8483 24.9191ZM63.3415 45.1598L61.5177 43.9706L63.3415 45.1598ZM52.4088 50.0204L52.4989 47.845L46.2918 47.5879L50.9804 51.6636L52.4088 50.0204ZM55.3758 74.5459L53.4407 73.5479L52.4072 75.5518L54.446 76.5146L55.3758 74.5459ZM46.5218 81.1226L47.8311 79.383L46.2945 78.2266L44.9572 79.6086L46.5218 81.1226ZM33.1745 82.6147L33.1609 84.7919L33.1649 84.7919L33.1745 82.6147ZM33.1709 82.6146L33.1845 80.4374L33.1805 80.4374L33.1709 82.6146ZM27.4746 82.6146L27.465 80.4374L27.461 80.4375L27.4746 82.6146ZM27.4709 82.6147V84.7919L27.4845 84.7919L27.4709 82.6147ZM27.4709 82.6147V80.4374L27.4612 80.4375L27.4709 82.6147ZM15.4729 77.7154L16.6277 79.5611L19.5019 77.7628L16.6708 75.8974L15.4729 77.7154ZM11.0623 73.8907L12.695 72.4503L10.3852 69.8322L9.05047 73.0584L11.0623 73.8907ZM8.4172 76.554L9.00964 78.6491L9.00965 78.6491L8.4172 76.554ZM0.58457 69.0305L2.67965 68.438L0.58457 69.0305ZM3.31734 58.5193L2.7249 56.4242H2.72489L3.31734 58.5193ZM5.92629 58.7909L5.02446 60.7725L7.8632 62.0644L8.09738 58.9543L5.92629 58.7909ZM35.4732 40.284L34.8006 42.3547L40.7514 44.2876L37.286 39.0781L35.4732 40.284ZM33.1172 28.8069L35.206 29.4212L35.5816 28.144L34.6159 27.2276L33.1172 28.8069ZM27.6453 18.4503L29.7377 17.8484L27.6453 18.4503ZM28.9648 3.7895L28.3629 1.69713L28.9648 3.7895ZM35.7821 10.0521L33.8312 11.0187L37.0214 17.4577L37.9414 10.3309L35.7821 10.0521ZM41.5997 0.0502232L40.9977 -2.04215L41.5997 0.0502232ZM44.7253 7.72296L42.5716 8.04177V8.04177L44.7253 7.72296ZM54.3669 31.2744L52.7085 32.6851L52.7085 32.6851L54.3669 31.2744ZM54.5261 33.0188L55.9368 34.6772L55.9368 34.6772L54.5261 33.0188ZM52.6706 30.8374L54.0813 32.4959L54.0813 32.4959L52.6706 30.8374ZM52.8299 32.5818L51.1715 33.9925L51.1715 33.9925L52.8299 32.5818ZM50.0299 21.277C49.5619 18.7279 48.7298 15.7285 47.8683 12.7337L43.6835 13.9375C44.5511 16.9532 45.3233 19.7557 45.747 22.0633L50.0299 21.277ZM57.0375 23.0953C54.2384 21.2701 51.2373 20.081 48.2884 19.5299L47.4885 23.8103C49.8563 24.2528 52.3235 25.2199 54.6591 26.7428L57.0375 23.0953ZM65.1653 46.349C67.5689 42.6628 67.6323 38.156 66.0985 34.0129C64.5647 29.8696 61.3986 25.939 57.0375 23.0953L54.6591 26.7428C58.3163 29.1275 60.8368 32.3422 62.0149 35.5246C63.1931 38.7073 62.994 41.7066 61.5177 43.9706L65.1653 46.349ZM52.3186 52.1958C57.4564 52.4086 62.4112 50.5726 65.1653 46.349L61.5177 43.9706C59.8334 46.5537 56.5776 48.014 52.4989 47.845L52.3186 52.1958ZM59.8626 64.241C59.8626 57.6893 57.6013 51.6493 53.8372 48.3772L50.9804 51.6636C53.5005 53.8543 55.5081 58.5021 55.5081 64.241H59.8626ZM57.3108 75.5439C58.9302 72.404 59.8626 68.4641 59.8626 64.241H55.5081C55.5081 67.8516 54.7063 71.0941 53.4407 73.5479L57.3108 75.5439ZM60.3721 78.1763C60.3721 75.502 58.4169 73.5742 56.3055 72.5771L54.446 76.5146C55.7462 77.1286 56.0176 77.8525 56.0176 78.1763H60.3721ZM51.5207 84.8003C53.7334 84.8003 55.8351 84.2067 57.4473 83.1325C59.0441 82.0686 60.3721 80.3593 60.3721 78.1763H56.0176C56.0176 78.4492 55.8515 78.9632 55.0328 79.5087C54.2295 80.044 52.9941 80.4458 51.5207 80.4458V84.8003ZM45.2126 82.8622C46.8717 84.1109 49.1382 84.8003 51.5207 84.8003V80.4458C49.9237 80.4458 48.6175 79.9749 47.8311 79.383L45.2126 82.8622ZM33.1649 84.7919C36.4272 84.8063 39.4939 84.8216 41.9306 84.6293C43.1513 84.533 44.3031 84.3787 45.2924 84.1155C46.2347 83.8648 47.3024 83.447 48.0865 82.6367L44.9572 79.6086C44.994 79.5706 44.8435 79.729 44.1728 79.9074C43.5492 80.0734 42.6934 80.2011 41.588 80.2883C39.3725 80.4632 36.5128 80.4522 33.1842 80.4375L33.1649 84.7919ZM33.1573 84.7918L33.1609 84.7919L33.1882 80.4375L33.1845 80.4375L33.1573 84.7918ZM30.3227 84.7836C31.2882 84.7836 32.2351 84.7878 33.1612 84.7919L33.1805 80.4374C32.2558 80.4333 31.2994 80.4291 30.3227 80.4291V84.7836ZM27.4842 84.7919C28.4104 84.7878 29.3573 84.7836 30.3227 84.7836V80.4291C29.3461 80.4291 28.3897 80.4333 27.465 80.4374L27.4842 84.7919ZM27.4845 84.7919L27.4882 84.7918L27.461 80.4375L27.4573 80.4375L27.4845 84.7919ZM27.4709 84.7919H27.4709V80.4374H27.4709V84.7919ZM11.5191 80.0811C11.5191 81.7946 12.5984 82.8988 13.7258 83.4986C14.764 84.051 16.0731 84.3282 17.3752 84.4937C20.0164 84.8294 23.6301 84.809 27.4805 84.7919L27.4612 80.4375C23.4879 80.4551 20.2144 80.4651 17.9242 80.174C16.7606 80.0261 16.093 79.8256 15.771 79.6543C15.5381 79.5304 15.8736 79.665 15.8736 80.0811H11.5191ZM14.318 75.8697C13.0074 76.6897 11.5191 78.0618 11.5191 80.0811H15.8736C15.8736 80.2344 15.8085 80.2726 15.8898 80.1659C15.9836 80.0428 16.2005 79.8284 16.6277 79.5611L14.318 75.8697ZM9.42964 75.3311C10.8406 76.9305 12.471 78.3448 14.2749 79.5334L16.6708 75.8974C15.1851 74.9184 13.8479 73.7572 12.695 72.4503L9.42964 75.3311ZM9.00965 78.6491C11.0313 78.0774 12.3478 76.4787 13.0742 74.7231L9.05047 73.0584C8.64912 74.0284 8.16099 74.3639 7.82475 74.459L9.00965 78.6491ZM-1.51051 69.6229C-0.719898 72.4188 0.684297 74.8658 2.42666 76.5394C4.1257 78.1714 6.50086 79.3585 9.00964 78.6491L7.82476 74.4589C7.41598 74.5745 6.57897 74.49 5.44316 73.399C4.35067 72.3496 3.29733 70.6223 2.67965 68.438L-1.51051 69.6229ZM2.72489 56.4242C0.216109 57.1336 -1.18564 59.3888 -1.77842 61.6689C-2.38633 64.0071 -2.30112 66.8271 -1.51051 69.6229L2.67965 68.438C2.06198 66.2537 2.05479 64.2306 2.43595 62.7645C2.83223 61.2403 3.50101 60.7299 3.90978 60.6143L2.72489 56.4242ZM6.82813 56.8092C5.58111 56.2417 4.15708 56.0192 2.7249 56.4242L3.90978 60.6143C4.16181 60.5431 4.52017 60.543 5.02446 60.7725L6.82813 56.8092ZM28.2205 36.9671C15.3713 36.9671 4.67429 46.4212 3.7552 58.6274L8.09738 58.9543C8.83199 49.1982 17.466 41.3215 28.2205 41.3215V36.9671ZM36.1458 38.2132C33.656 37.4045 30.9893 36.9671 28.2205 36.9671V41.3215C30.529 41.3215 32.7419 41.686 34.8006 42.3547L36.1458 38.2132ZM31.0284 28.1926C29.7526 32.5308 30.9209 37.3717 33.6604 41.4899L37.286 39.0781C35.051 35.7183 34.3878 32.2031 35.206 29.4212L31.0284 28.1926ZM25.5529 19.0523C26.9343 23.8541 29.1629 28.056 31.6185 30.3862L34.6159 27.2276C32.9404 25.6376 31.0061 22.2576 29.7377 17.8484L25.5529 19.0523ZM28.3629 1.69713C26.871 2.1263 25.9063 3.25703 25.3233 4.42849C24.7411 5.5981 24.4252 7.01369 24.2916 8.49776C24.0231 11.4809 24.4501 15.2187 25.5529 19.0523L29.7377 17.8484C28.7449 14.3975 28.4195 11.2111 28.6286 8.88809C28.7338 7.71907 28.9641 6.88606 29.2216 6.3688C29.4781 5.85338 29.6464 5.85895 29.5667 5.88188L28.3629 1.69713ZM37.733 9.08555C36.6103 6.81953 35.2785 4.86081 33.8386 3.51458C32.4861 2.25015 30.5232 1.07564 28.3629 1.69713L29.5667 5.88188C29.4552 5.91396 29.8475 5.74438 30.8647 6.69543C31.7945 7.56468 32.8469 9.03198 33.8312 11.0187L37.733 9.08555ZM40.9977 -2.04215C40.0031 -1.75601 39.1203 -1.11457 38.4031 -0.428066C37.6568 0.286215 36.946 1.1875 36.3129 2.20387C35.0487 4.23332 33.9964 6.87948 33.6228 9.77337L37.9414 10.3309C38.2288 8.10506 39.0482 6.04861 40.0089 4.50621C40.4883 3.73666 40.9783 3.13471 41.4141 2.71765C41.6307 2.5103 41.8176 2.36428 41.9662 2.26789C42.0394 2.2204 42.0975 2.18875 42.1397 2.16852C42.1823 2.14816 42.2027 2.14227 42.2016 2.1426L40.9977 -2.04215ZM46.8791 7.40414C46.5799 5.38288 46.2522 3.12476 45.7213 1.4545C45.4629 0.641581 45.0751 -0.311818 44.4165 -1.0355C44.0638 -1.42304 43.579 -1.80505 42.9399 -2.0163C42.2808 -2.23419 41.612 -2.21887 40.9977 -2.04215L42.2016 2.1426C42.0644 2.18205 41.8319 2.20364 41.5732 2.11813C41.3347 2.03927 41.2146 1.91576 41.1961 1.89542C41.183 1.88106 41.2285 1.92864 41.3097 2.09413C41.3881 2.25383 41.477 2.47655 41.5714 2.77358C41.9716 4.03252 42.2524 5.8853 42.5716 8.04177L46.8791 7.40414ZM47.8683 12.7337C47.4644 11.3298 47.1828 9.45592 46.8791 7.40414L42.5716 8.04177C42.8612 9.9985 43.1821 12.1946 43.6835 13.9375L47.8683 12.7337ZM52.7085 32.6851C52.7032 32.6789 52.6901 32.662 52.6754 32.6286C52.6614 32.5969 52.6386 32.5333 52.6296 32.435C52.6136 32.2599 52.6429 31.7623 53.1154 31.3604L55.9368 34.6772C56.8338 33.9142 57.0396 32.8456 56.966 32.0392C56.8917 31.2254 56.5374 30.4658 56.0253 29.8637L52.7085 32.6851ZM54.0813 32.4959C53.6088 32.8978 53.113 32.8469 52.9426 32.8031C52.8471 32.7784 52.788 32.7457 52.7589 32.7268C52.7283 32.7069 52.7137 32.6912 52.7085 32.6851L56.0253 29.8637C55.5132 29.2617 54.8202 28.7901 54.0289 28.5863C53.2447 28.3842 52.1569 28.416 51.26 29.179L54.0813 32.4959ZM54.4883 31.1711C54.4935 31.1773 54.5067 31.1942 54.5214 31.2277C54.5354 31.2593 54.5582 31.3229 54.5672 31.4212C54.5832 31.5963 54.5539 32.0939 54.0813 32.4959L51.26 29.179C50.363 29.942 50.1571 31.0106 50.2307 31.8171C50.305 32.6308 50.6593 33.3904 51.1715 33.9925L54.4883 31.1711ZM53.1154 31.3604C53.588 30.9584 54.0838 31.0093 54.2541 31.0532C54.3497 31.0778 54.4088 31.1105 54.4378 31.1294C54.4685 31.1493 54.4831 31.165 54.4883 31.1711L51.1715 33.9925C51.6836 34.5945 52.3766 35.0661 53.1678 35.27C53.9521 35.472 55.0398 35.4402 55.9368 34.6772L53.1154 31.3604Z" fill="#11644D" mask="url(#path-1-inside-1_329_233)"/>
</svg>
