<svg>
    <symbol id="rabbit" width="87" height="102" viewBox="0 0 87 102" fill="none" xmlns="http://www.w3.org/2000/svg">
        <path d="M63.7534 27.2282L63.0177 27.3744L63.1182 27.8797L63.6258 27.9673L63.7534 27.2282ZM60.985 17.1403L60.2689 17.3633L60.2689 17.3633L60.985 17.1403ZM74.1839 31.1605L73.797 31.803L73.797 31.803L74.1839 31.1605ZM84.0029 55.6582L83.3902 55.2256L83.3902 55.2256L84.0029 55.6582ZM69.6757 61.541L69.7044 60.7915L67.4361 60.7046L69.2061 62.1258L69.6757 61.541ZM73.563 91.2249L72.9082 90.8593L72.5047 91.5817L73.2632 91.9124L73.563 91.2249ZM61.9616 99.185L62.3897 98.5692L61.8867 98.2194L61.4436 98.6426L61.9616 99.185ZM44.471 100.991L44.4679 101.741L44.4679 101.741L44.471 100.991ZM36.9972 100.991L37.0002 101.741L37.0002 101.741L36.9972 100.991ZM21.2749 95.0617L21.6502 95.7111L22.7449 95.0784L21.6648 94.421L21.2749 95.0617ZM15.4958 90.4328L16.0382 89.9148L15.2675 89.1079L14.8114 90.1262L15.4958 90.4328ZM12.0298 93.6561L12.2193 94.3818L12.2193 94.3818L12.0298 93.6561ZM1.76601 84.5503L1.04887 84.7698L1.04887 84.7698L1.76601 84.5503ZM5.34699 71.8284L5.53652 72.554L5.53652 72.554L5.34699 71.8284ZM8.76592 72.1572L8.47527 72.8486L9.42933 73.2496L9.51344 72.2181L8.76592 72.1572ZM47.4862 49.759L47.2707 50.4773L49.3852 51.1119L48.0948 49.3206L47.4862 49.759ZM44.3975 35.866L45.1121 36.0936L45.2611 35.6256L44.8918 35.302L44.3975 35.866ZM37.2266 23.3309L37.9427 23.1078L37.9427 23.1078L37.2266 23.3309ZM38.9556 5.58661L38.763 4.86176L38.763 4.86176L38.9556 5.58661ZM47.8892 13.1669L47.2283 13.5214L48.3141 15.5456L48.632 13.2707L47.8892 13.1669ZM55.5125 1.06079L55.7051 1.78564L55.7051 1.78564L55.5125 1.06079ZM59.6084 10.3472L60.3489 10.2285L60.3489 10.2285L59.6084 10.3472ZM72.2421 38.8537L71.6904 39.3618L71.6904 39.3618L72.2421 38.8537ZM72.4508 40.965L71.9874 40.3752L71.9874 40.3752L72.4508 40.965ZM64.489 27.082C63.8959 24.0984 62.8328 20.5509 61.7011 16.9173L60.2689 17.3633C61.4031 21.0048 62.4424 24.4799 63.0177 27.3744L64.489 27.082ZM74.5709 30.518C71.1279 28.4444 67.4572 27.1064 63.8809 26.4892L63.6258 27.9673C67.0164 28.5525 70.5114 29.8242 73.797 31.803L74.5709 30.518ZM84.6156 56.0907C87.3369 52.2361 87.4847 47.4143 85.6363 42.8027C83.7899 38.1961 79.9427 33.7533 74.5709 30.518L73.797 31.803C78.9322 34.8957 82.5366 39.101 84.244 43.3608C85.9493 47.6156 85.7531 51.8786 83.3902 55.2256L84.6156 56.0907ZM69.6469 62.2904C75.8438 62.5279 81.5132 60.4852 84.6156 56.0907L83.3902 55.2256C80.6762 59.0699 75.5855 61.0169 69.7044 60.7915L69.6469 62.2904ZM77.3397 78.7522C77.3397 71.1553 74.4868 64.4422 70.1452 60.9562L69.2061 62.1258C73.099 65.2516 75.8397 71.4739 75.8397 78.7522H77.3397ZM74.2178 91.5906C76.1765 88.0832 77.3397 83.6084 77.3397 78.7522H75.8397C75.8397 83.3777 74.7302 87.5966 72.9082 90.8593L74.2178 91.5906ZM78.0084 95.6195C78.0084 93.3669 76.216 91.5635 73.8627 90.5374L73.2632 91.9124C75.3819 92.8362 76.5084 94.2426 76.5084 95.6195H78.0084ZM68.5128 101.751C71.0438 101.751 73.371 101.122 75.0899 100.064C76.7967 99.0135 78.0084 97.4632 78.0084 95.6195H76.5084C76.5084 96.7481 75.7623 97.8888 74.3038 98.7864C72.8574 99.6765 70.8119 100.251 68.5128 100.251V101.751ZM61.5334 99.8008C63.2842 101.018 65.7823 101.751 68.5128 101.751V100.251C66.0277 100.251 63.8435 99.5801 62.3897 98.5692L61.5334 99.8008ZM44.4679 101.741C48.7761 101.759 52.6922 101.775 55.7757 101.551C57.318 101.438 58.6808 101.264 59.7964 100.989C60.8932 100.72 61.8466 100.332 62.4796 99.7274L61.4436 98.6426C61.0976 98.973 60.4549 99.2829 59.4383 99.5327C58.4404 99.778 57.1725 99.9448 55.6666 100.055C52.6536 100.274 48.8033 100.259 44.4741 100.241L44.4679 101.741ZM40.7341 101.731C42.0064 101.731 43.2535 101.736 44.4679 101.741L44.4741 100.241C43.2601 100.236 42.01 100.231 40.7341 100.231V101.731ZM37.0002 101.741C38.2146 101.736 39.4617 101.731 40.7341 101.731V100.231C39.4582 100.231 38.208 100.236 36.9941 100.241L37.0002 101.741ZM18.1971 97.9249C18.1971 99.1085 18.9666 99.9025 19.995 100.408C21.0044 100.904 22.4037 101.204 24.0401 101.396C27.3271 101.782 31.8938 101.762 37.0002 101.741L36.9941 100.241C31.8484 100.262 27.3901 100.279 24.215 99.9066C22.6205 99.7194 21.4296 99.4415 20.6565 99.0616C19.9023 98.691 19.6971 98.3114 19.6971 97.9249H18.1971ZM20.8996 94.4123C19.3686 95.2971 18.1971 96.4633 18.1971 97.9249H19.6971C19.6971 97.3267 20.2032 96.5473 21.6502 95.7111L20.8996 94.4123ZM14.9535 90.9508C16.6799 92.7583 18.6757 94.3577 20.885 95.7024L21.6648 94.421C19.5638 93.1423 17.6713 91.6245 16.0382 89.9148L14.9535 90.9508ZM12.2193 94.3818C14.0394 93.9064 15.3747 92.5378 16.1803 90.7394L14.8114 90.1262C14.1393 91.6266 13.1098 92.5989 11.8402 92.9305L12.2193 94.3818ZM1.04887 84.7698C2.00636 87.8973 3.68464 90.5478 5.6585 92.299C7.62065 94.0398 9.9754 94.9679 12.2193 94.3818L11.8402 92.9305C10.261 93.343 8.40659 92.7319 6.65398 91.177C4.9131 89.6325 3.37106 87.2309 2.48315 84.3307L1.04887 84.7698ZM5.15746 71.1027C2.89968 71.6924 1.4002 73.6441 0.708862 76.1002C0.0153482 78.564 0.0916901 81.6434 1.04887 84.7698L2.48315 84.3307C1.59494 81.4296 1.55021 78.6473 2.15275 76.5067C2.75747 74.3583 3.97118 72.9629 5.53652 72.554L5.15746 71.1027ZM9.05656 71.4658C7.78703 70.9321 6.44926 70.7653 5.15746 71.1027L5.53652 72.554C6.4518 72.315 7.44979 72.4175 8.47527 72.8486L9.05656 71.4658ZM37.9799 47.6289C22.2071 47.6289 9.14005 58.339 8.0184 72.0962L9.51344 72.2181C10.559 59.3942 22.8228 49.1289 37.9799 49.1289V47.6289ZM47.7018 49.0406C44.651 48.1251 41.3805 47.6289 37.9799 47.6289V49.1289C41.2344 49.1289 44.3597 49.6037 47.2707 50.4773L47.7018 49.0406ZM43.6828 35.6385C42.2181 40.2386 43.5235 45.5412 46.8777 50.1974L48.0948 49.3206C44.9283 44.925 43.8325 40.1123 45.1121 36.0936L43.6828 35.6385ZM36.5105 23.5539C38.2702 29.2035 41.0553 33.9343 43.9032 36.4301L44.8918 35.302C42.326 33.0534 39.6555 28.6072 37.9427 23.1078L36.5105 23.5539ZM38.763 4.86176C37.5807 5.17593 36.6941 6.03463 36.0778 7.17839C35.4646 8.31615 35.0893 9.78339 34.9271 11.4486C34.6022 14.7829 35.1158 19.0757 36.5105 23.5539L37.9427 23.1078C36.5915 18.7695 36.1191 14.6819 36.42 11.594C36.5706 10.0481 36.9111 8.79387 37.3982 7.88997C37.8821 6.99208 38.4801 6.48898 39.1482 6.31146L38.763 4.86176ZM48.5502 12.8123C47.1424 10.1878 45.528 8.03094 43.8841 6.61127C42.2644 5.21263 40.4662 4.40922 38.763 4.86176L39.1482 6.31146C40.1299 6.05062 41.418 6.46359 42.9037 7.74655C44.365 9.00848 45.875 10.9984 47.2283 13.5214L48.5502 12.8123ZM55.3199 0.335937C54.4849 0.5578 53.6208 1.09779 52.7997 1.82373C51.9699 2.55735 51.1426 3.5175 50.3845 4.64152C48.8696 6.88778 47.5968 9.8403 47.1465 13.0631L48.632 13.2707C49.0476 10.2967 50.2274 7.55726 51.6281 5.48022C52.3279 4.44259 53.0742 3.58325 53.7932 2.94752C54.521 2.3041 55.1811 1.92488 55.7051 1.78564L55.3199 0.335937ZM60.3489 10.2285C59.9477 7.72507 59.5396 5.16262 58.9036 3.3146C58.5875 2.39605 58.1853 1.55965 57.6279 0.993982C57.0257 0.382859 56.238 0.0920074 55.3199 0.335937L55.7051 1.78564C56.0376 1.69729 56.2858 1.76906 56.5594 2.04679C56.8779 2.36997 57.1913 2.94864 57.4853 3.80272C58.0694 5.49996 58.4587 7.913 58.8678 10.4659L60.3489 10.2285ZM61.7011 16.9173C61.1274 15.0753 60.7405 12.6717 60.3489 10.2285L58.8678 10.4659C59.2538 12.8743 59.6564 15.3967 60.2689 17.3633L61.7011 16.9173ZM71.6904 39.3618C71.9335 39.6258 72.0411 39.8969 72.0604 40.0927C72.0792 40.2828 72.0188 40.3506 71.9874 40.3752L72.9141 41.5547C73.4389 41.1424 73.6099 40.5191 73.5531 39.9451C73.497 39.3768 73.2221 38.8108 72.7938 38.3457L71.6904 39.3618ZM70.4827 38.9146C70.5286 38.8786 70.6602 38.8213 70.9139 38.8817C71.1603 38.9403 71.4483 39.0989 71.6904 39.3618L72.7938 38.3457C72.3645 37.8796 71.8192 37.5552 71.2611 37.4224C70.7104 37.2914 70.0663 37.3342 69.556 37.7351L70.4827 38.9146ZM70.7797 39.928C70.5366 39.6641 70.4291 39.393 70.4097 39.1972C70.3909 39.0071 70.4514 38.9393 70.4827 38.9146L69.556 37.7351C69.0312 38.1475 68.8603 38.7707 68.917 39.3447C68.9732 39.9131 69.248 40.4791 69.6764 40.9442L70.7797 39.928ZM71.9874 40.3752C71.9416 40.4112 71.8099 40.4685 71.5562 40.4082C71.3098 40.3495 71.0219 40.191 70.7797 39.928L69.6764 40.9442C70.1056 41.4103 70.651 41.7346 71.209 41.8674C71.7598 41.9985 72.4038 41.9557 72.9141 41.5547L71.9874 40.3752Z" fill="#11644D"/>
    </symbol>
</svg>
