<svg>
    <symbol id="rabbit-left" width="100%" height="100%" viewBox="0 0 87 102" xmlns="http://www.w3.org/2000/svg">
        <path d="M23.3638 27.2282L24.0994 27.3744L23.999 27.8797L23.4914 27.9673L23.3638 27.2282ZM26.1322 17.1403L25.4161 16.9173L25.4161 16.9173L26.1322 17.1403ZM12.9333 31.1605L13.3202 31.803L13.3202 31.803L12.9333 31.1605ZM3.11429 55.6582L3.72699 55.2256L3.72699 55.2256L3.11429 55.6582ZM17.4415 61.541L17.4128 60.7915L19.6811 60.7046L17.9111 62.1258L17.4415 61.541ZM13.5542 91.2249L14.209 90.8593L14.6125 91.5817L13.854 91.9124L13.5542 91.2249ZM25.1556 99.185L24.7274 98.5692L25.2305 98.2194L25.6736 98.6426L25.1556 99.185ZM42.6462 100.991L42.6493 101.741L42.6492 101.741L42.6462 100.991ZM50.12 100.991L50.117 101.741L50.117 101.741L50.12 100.991ZM65.8423 95.0617L65.467 95.7111L64.3723 95.0784L65.4523 94.421L65.8423 95.0617ZM71.6213 90.4328L71.079 89.9148L71.8497 89.1079L72.3058 90.1262L71.6213 90.4328ZM75.0874 93.6562L74.8979 94.3818L74.8979 94.3818L75.0874 93.6562ZM85.3512 84.5503L86.0683 84.7698L86.0683 84.7698L85.3512 84.5503ZM81.7702 71.8284L81.5807 72.554L81.5807 72.554L81.7702 71.8284ZM78.3513 72.1572L78.6419 72.8486L77.6879 73.2496L77.6038 72.2181L78.3513 72.1572ZM39.631 49.759L39.8465 50.4773L37.732 51.1119L39.0224 49.3206L39.631 49.759ZM42.7197 35.866L42.0051 36.0936L41.8561 35.6256L42.2254 35.302L42.7197 35.866ZM49.8906 23.3309L49.1745 23.1078L49.1745 23.1078L49.8906 23.3309ZM48.1616 5.58661L48.3541 4.86177L48.3541 4.86177L48.1616 5.58661ZM39.228 13.1669L39.8889 13.5214L38.8031 15.5456L38.4852 13.2707L39.228 13.1669ZM31.6047 1.06079L31.4121 1.78564L31.4121 1.78564L31.6047 1.06079ZM27.5088 10.3472L26.7683 10.2285L26.7683 10.2285L27.5088 10.3472ZM14.8751 38.8537L15.4268 39.3618L15.4268 39.3618L14.8751 38.8537ZM14.6664 40.965L15.1298 40.3752L15.1298 40.3752L14.6664 40.965ZM22.6282 27.082C23.2213 24.0984 24.2844 20.5509 25.4161 16.9173L26.8483 17.3633C25.7141 21.0048 24.6748 24.4799 24.0994 27.3744L22.6282 27.082ZM12.5463 30.518C15.9893 28.4444 19.66 27.1064 23.2363 26.4892L23.4914 27.9673C20.1008 28.5525 16.6057 29.8242 13.3202 31.803L12.5463 30.518ZM2.50159 56.0907C-0.219661 52.2361 -0.367492 47.4143 1.4809 42.8027C3.3273 38.1961 7.1745 33.7533 12.5463 30.518L13.3202 31.803C8.18496 34.8957 4.58059 39.101 2.87322 43.3608C1.16785 47.6156 1.36405 51.8786 3.72699 55.2256L2.50159 56.0907ZM17.4702 62.2904C11.2733 62.5279 5.60395 60.4852 2.50159 56.0907L3.72699 55.2256C6.44096 59.0699 11.5317 61.0169 17.4128 60.7915L17.4702 62.2904ZM9.77746 78.7522C9.77746 71.1553 12.6303 64.4422 16.972 60.9562L17.9111 62.1258C14.0182 65.2516 11.2775 71.4739 11.2775 78.7522H9.77746ZM12.8994 91.5906C10.9407 88.0832 9.77746 83.6084 9.77746 78.7522H11.2775C11.2775 83.3777 12.387 87.5966 14.209 90.8593L12.8994 91.5906ZM9.1088 95.6195C9.1088 93.3669 10.9012 91.5635 13.2544 90.5374L13.854 91.9124C11.7353 92.8362 10.6088 94.2426 10.6088 95.6195H9.1088ZM18.6044 101.751C16.0734 101.751 13.7462 101.122 12.0273 100.064C10.3205 99.0135 9.1088 97.4632 9.1088 95.6195H10.6088C10.6088 96.7481 11.3549 97.8888 12.8134 98.7864C14.2598 99.6765 16.3053 100.251 18.6044 100.251V101.751ZM25.5838 99.8008C23.8329 101.018 21.3348 101.751 18.6044 101.751V100.251C21.0894 100.251 23.2736 99.5801 24.7274 98.5692L25.5838 99.8008ZM42.6492 101.741C38.3411 101.759 34.425 101.775 31.3415 101.551C29.7992 101.438 28.4364 101.264 27.3208 100.989C26.224 100.72 25.2706 100.332 24.6376 99.7274L25.6736 98.6426C26.0195 98.973 26.6623 99.2829 27.6789 99.5328C28.6767 99.778 29.9447 99.9448 31.4506 100.055C34.4636 100.274 38.3139 100.259 42.6431 100.241L42.6492 101.741ZM46.3831 101.731C45.1107 101.731 43.8637 101.736 42.6493 101.741L42.6431 100.241C43.8571 100.236 45.1072 100.231 46.3831 100.231V101.731ZM50.117 101.741C48.9026 101.736 47.6555 101.731 46.3831 101.731V100.231C47.659 100.231 48.9091 100.236 50.1231 100.241L50.117 101.741ZM68.9201 97.9249C68.9201 99.1085 68.1505 99.9026 67.1222 100.408C66.1128 100.904 64.7135 101.204 63.077 101.396C59.7901 101.782 55.2234 101.762 50.117 101.741L50.1231 100.241C55.2688 100.262 59.7271 100.279 62.9022 99.9066C64.4967 99.7194 65.6876 99.4415 66.4607 99.0616C67.2149 98.691 67.4201 98.3114 67.4201 97.9249H68.9201ZM66.2175 94.4123C67.7486 95.2971 68.9201 96.4633 68.9201 97.9249H67.4201C67.4201 97.3267 66.914 96.5473 65.467 95.7111L66.2175 94.4123ZM72.1637 90.9508C70.4373 92.7583 68.4415 94.3577 66.2322 95.7024L65.4523 94.421C67.5534 93.1423 69.4459 91.6245 71.079 89.9148L72.1637 90.9508ZM74.8979 94.3818C73.0778 93.9064 71.7425 92.5378 70.9369 90.7394L72.3058 90.1262C72.9779 91.6266 74.0074 92.5989 75.277 92.9305L74.8979 94.3818ZM86.0683 84.7698C85.1108 87.8973 83.4325 90.5479 81.4587 92.299C79.4965 94.0398 77.1418 94.9679 74.8979 94.3818L75.277 92.9305C76.8562 93.343 78.7106 92.7319 80.4632 91.177C82.2041 89.6325 83.7461 87.2309 84.634 84.3307L86.0683 84.7698ZM81.9597 71.1027C84.2175 71.6924 85.717 73.6441 86.4083 76.1002C87.1018 78.564 87.0255 81.6434 86.0683 84.7698L84.634 84.3307C85.5223 81.4296 85.567 78.6473 84.9644 76.5067C84.3597 74.3583 83.146 72.9629 81.5807 72.554L81.9597 71.1027ZM78.0606 71.4658C79.3302 70.9321 80.6679 70.7653 81.9597 71.1027L81.5807 72.554C80.6654 72.315 79.6674 72.4175 78.6419 72.8486L78.0606 71.4658ZM49.1373 47.6289C64.9101 47.6289 77.9771 58.339 79.0988 72.0962L77.6038 72.2181C76.5582 59.3942 64.2943 49.1289 49.1373 49.1289V47.6289ZM39.4154 49.0406C42.4661 48.1251 45.7367 47.6289 49.1373 47.6289V49.1289C45.8828 49.1289 42.7575 49.6037 39.8465 50.4773L39.4154 49.0406ZM43.4343 35.6385C44.8991 40.2386 43.5937 45.5412 40.2395 50.1974L39.0224 49.3206C42.1889 44.925 43.2847 40.1123 42.0051 36.0936L43.4343 35.6385ZM50.6067 23.5539C48.847 29.2035 46.0619 33.9343 43.214 36.4301L42.2254 35.302C44.7912 33.0534 47.4617 28.6072 49.1745 23.1078L50.6067 23.5539ZM48.3541 4.86177C49.5365 5.17593 50.4231 6.03463 51.0394 7.17839C51.6525 8.31615 52.0279 9.78339 52.1901 11.4486C52.515 14.7829 52.0014 19.0757 50.6067 23.5539L49.1745 23.1078C50.5257 18.7695 50.9981 14.6819 50.6972 11.594C50.5466 10.0481 50.206 8.79387 49.719 7.88997C49.2351 6.99208 48.637 6.48898 47.969 6.31146L48.3541 4.86177ZM38.567 12.8123C39.9748 10.1878 41.5891 8.03094 43.2331 6.61127C44.8528 5.21263 46.651 4.40922 48.3541 4.86177L47.969 6.31146C46.9872 6.05062 45.6992 6.46359 44.2135 7.74655C42.7522 9.00848 41.2422 10.9984 39.8889 13.5214L38.567 12.8123ZM31.7973 0.335937C32.6323 0.5578 33.4964 1.09779 34.3175 1.82373C35.1473 2.55735 35.9746 3.5175 36.7327 4.64152C38.2476 6.88778 39.5204 9.8403 39.9707 13.0631L38.4852 13.2707C38.0696 10.2967 36.8898 7.55726 35.4891 5.48022C34.7893 4.44259 34.043 3.58325 33.3239 2.94752C32.5962 2.3041 31.9361 1.92488 31.4121 1.78564L31.7973 0.335937ZM26.7683 10.2285C27.1695 7.72507 27.5776 5.16262 28.2136 3.3146C28.5297 2.39605 28.9319 1.55965 29.4893 0.993981C30.0915 0.382859 30.8792 0.0920074 31.7973 0.335937L31.4121 1.78564C31.0796 1.69729 30.8314 1.76906 30.5577 2.04679C30.2393 2.36997 29.9258 2.94864 29.6319 3.80272C29.0478 5.49996 28.6585 7.913 28.2494 10.4659L26.7683 10.2285ZM25.4161 16.9173C25.9898 15.0753 26.3767 12.6717 26.7683 10.2285L28.2494 10.4659C27.8634 12.8743 27.4608 15.3967 26.8483 17.3633L25.4161 16.9173ZM15.4268 39.3618C15.1837 39.6258 15.0761 39.8969 15.0568 40.0927C15.038 40.2828 15.0984 40.3506 15.1298 40.3752L14.2031 41.5547C13.6783 41.1424 13.5073 40.5191 13.5641 39.9451C13.6202 39.3768 13.8951 38.8108 14.3234 38.3457L15.4268 39.3618ZM16.6345 38.9146C16.5886 38.8786 16.457 38.8213 16.2033 38.8817C15.9569 38.9403 15.6689 39.0989 15.4268 39.3618L14.3234 38.3457C14.7527 37.8796 15.298 37.5552 15.8561 37.4224C16.4068 37.2914 17.0508 37.3342 17.5612 37.7351L16.6345 38.9146ZM16.3375 39.928C16.5805 39.6641 16.6881 39.393 16.7075 39.1972C16.7263 39.0071 16.6658 38.9393 16.6345 38.9146L17.5612 37.7351C18.086 38.1475 18.2569 38.7707 18.2002 39.3447C18.144 39.9131 17.8692 40.4791 17.4408 40.9442L16.3375 39.928ZM15.1298 40.3752C15.1756 40.4112 15.3072 40.4685 15.561 40.4082C15.8074 40.3495 16.0953 40.191 16.3375 39.928L17.4408 40.9442C17.0116 41.4103 16.4662 41.7346 15.9082 41.8674C15.3574 41.9985 14.7134 41.9557 14.2031 41.5547L15.1298 40.3752Z"/>
    </symbol>
    <symbol id="rabbit-right" width="100%" height="100%" viewBox="0 0 87 102" xmlns="http://www.w3.org/2000/svg">
        <path d="M63.7534 27.2282L63.0177 27.3744L63.1182 27.8797L63.6258 27.9673L63.7534 27.2282ZM60.985 17.1403L60.2689 17.3633L60.2689 17.3633L60.985 17.1403ZM74.1839 31.1605L73.797 31.803L73.797 31.803L74.1839 31.1605ZM84.0029 55.6582L83.3902 55.2256L83.3902 55.2256L84.0029 55.6582ZM69.6757 61.541L69.7044 60.7915L67.4361 60.7046L69.2061 62.1258L69.6757 61.541ZM73.563 91.2249L72.9082 90.8593L72.5047 91.5817L73.2632 91.9124L73.563 91.2249ZM61.9616 99.185L62.3897 98.5692L61.8867 98.2194L61.4436 98.6426L61.9616 99.185ZM44.471 100.991L44.4679 101.741L44.4679 101.741L44.471 100.991ZM36.9972 100.991L37.0002 101.741L37.0002 101.741L36.9972 100.991ZM21.2749 95.0617L21.6502 95.7111L22.7449 95.0784L21.6648 94.421L21.2749 95.0617ZM15.4958 90.4328L16.0382 89.9148L15.2675 89.1079L14.8114 90.1262L15.4958 90.4328ZM12.0298 93.6561L12.2193 94.3818L12.2193 94.3818L12.0298 93.6561ZM1.76601 84.5503L1.04887 84.7698L1.04887 84.7698L1.76601 84.5503ZM5.34699 71.8284L5.53652 72.554L5.53652 72.554L5.34699 71.8284ZM8.76592 72.1572L8.47527 72.8486L9.42933 73.2496L9.51344 72.2181L8.76592 72.1572ZM47.4862 49.759L47.2707 50.4773L49.3852 51.1119L48.0948 49.3206L47.4862 49.759ZM44.3975 35.866L45.1121 36.0936L45.2611 35.6256L44.8918 35.302L44.3975 35.866ZM37.2266 23.3309L37.9427 23.1078L37.9427 23.1078L37.2266 23.3309ZM38.9556 5.58661L38.763 4.86176L38.763 4.86176L38.9556 5.58661ZM47.8892 13.1669L47.2283 13.5214L48.3141 15.5456L48.632 13.2707L47.8892 13.1669ZM55.5125 1.06079L55.7051 1.78564L55.7051 1.78564L55.5125 1.06079ZM59.6084 10.3472L60.3489 10.2285L60.3489 10.2285L59.6084 10.3472ZM72.2421 38.8537L71.6904 39.3618L71.6904 39.3618L72.2421 38.8537ZM72.4508 40.965L71.9874 40.3752L71.9874 40.3752L72.4508 40.965ZM64.489 27.082C63.8959 24.0984 62.8328 20.5509 61.7011 16.9173L60.2689 17.3633C61.4031 21.0048 62.4424 24.4799 63.0177 27.3744L64.489 27.082ZM74.5709 30.518C71.1279 28.4444 67.4572 27.1064 63.8809 26.4892L63.6258 27.9673C67.0164 28.5525 70.5114 29.8242 73.797 31.803L74.5709 30.518ZM84.6156 56.0907C87.3369 52.2361 87.4847 47.4143 85.6363 42.8027C83.7899 38.1961 79.9427 33.7533 74.5709 30.518L73.797 31.803C78.9322 34.8957 82.5366 39.101 84.244 43.3608C85.9493 47.6156 85.7531 51.8786 83.3902 55.2256L84.6156 56.0907ZM69.6469 62.2904C75.8438 62.5279 81.5132 60.4852 84.6156 56.0907L83.3902 55.2256C80.6762 59.0699 75.5855 61.0169 69.7044 60.7915L69.6469 62.2904ZM77.3397 78.7522C77.3397 71.1553 74.4868 64.4422 70.1452 60.9562L69.2061 62.1258C73.099 65.2516 75.8397 71.4739 75.8397 78.7522H77.3397ZM74.2178 91.5906C76.1765 88.0832 77.3397 83.6084 77.3397 78.7522H75.8397C75.8397 83.3777 74.7302 87.5966 72.9082 90.8593L74.2178 91.5906ZM78.0084 95.6195C78.0084 93.3669 76.216 91.5635 73.8627 90.5374L73.2632 91.9124C75.3819 92.8362 76.5084 94.2426 76.5084 95.6195H78.0084ZM68.5128 101.751C71.0438 101.751 73.371 101.122 75.0899 100.064C76.7967 99.0135 78.0084 97.4632 78.0084 95.6195H76.5084C76.5084 96.7481 75.7623 97.8888 74.3038 98.7864C72.8574 99.6765 70.8119 100.251 68.5128 100.251V101.751ZM61.5334 99.8008C63.2842 101.018 65.7823 101.751 68.5128 101.751V100.251C66.0277 100.251 63.8435 99.5801 62.3897 98.5692L61.5334 99.8008ZM44.4679 101.741C48.7761 101.759 52.6922 101.775 55.7757 101.551C57.318 101.438 58.6808 101.264 59.7964 100.989C60.8932 100.72 61.8466 100.332 62.4796 99.7274L61.4436 98.6426C61.0976 98.973 60.4549 99.2829 59.4383 99.5327C58.4404 99.778 57.1725 99.9448 55.6666 100.055C52.6536 100.274 48.8033 100.259 44.4741 100.241L44.4679 101.741ZM40.7341 101.731C42.0064 101.731 43.2535 101.736 44.4679 101.741L44.4741 100.241C43.2601 100.236 42.01 100.231 40.7341 100.231V101.731ZM37.0002 101.741C38.2146 101.736 39.4617 101.731 40.7341 101.731V100.231C39.4582 100.231 38.208 100.236 36.9941 100.241L37.0002 101.741ZM18.1971 97.9249C18.1971 99.1085 18.9666 99.9025 19.995 100.408C21.0044 100.904 22.4037 101.204 24.0401 101.396C27.3271 101.782 31.8938 101.762 37.0002 101.741L36.9941 100.241C31.8484 100.262 27.3901 100.279 24.215 99.9066C22.6205 99.7194 21.4296 99.4415 20.6565 99.0616C19.9023 98.691 19.6971 98.3114 19.6971 97.9249H18.1971ZM20.8996 94.4123C19.3686 95.2971 18.1971 96.4633 18.1971 97.9249H19.6971C19.6971 97.3267 20.2032 96.5473 21.6502 95.7111L20.8996 94.4123ZM14.9535 90.9508C16.6799 92.7583 18.6757 94.3577 20.885 95.7024L21.6648 94.421C19.5638 93.1423 17.6713 91.6245 16.0382 89.9148L14.9535 90.9508ZM12.2193 94.3818C14.0394 93.9064 15.3747 92.5378 16.1803 90.7394L14.8114 90.1262C14.1393 91.6266 13.1098 92.5989 11.8402 92.9305L12.2193 94.3818ZM1.04887 84.7698C2.00636 87.8973 3.68464 90.5478 5.6585 92.299C7.62065 94.0398 9.9754 94.9679 12.2193 94.3818L11.8402 92.9305C10.261 93.343 8.40659 92.7319 6.65398 91.177C4.9131 89.6325 3.37106 87.2309 2.48315 84.3307L1.04887 84.7698ZM5.15746 71.1027C2.89968 71.6924 1.4002 73.6441 0.708862 76.1002C0.0153482 78.564 0.0916901 81.6434 1.04887 84.7698L2.48315 84.3307C1.59494 81.4296 1.55021 78.6473 2.15275 76.5067C2.75747 74.3583 3.97118 72.9629 5.53652 72.554L5.15746 71.1027ZM9.05656 71.4658C7.78703 70.9321 6.44926 70.7653 5.15746 71.1027L5.53652 72.554C6.4518 72.315 7.44979 72.4175 8.47527 72.8486L9.05656 71.4658ZM37.9799 47.6289C22.2071 47.6289 9.14005 58.339 8.0184 72.0962L9.51344 72.2181C10.559 59.3942 22.8228 49.1289 37.9799 49.1289V47.6289ZM47.7018 49.0406C44.651 48.1251 41.3805 47.6289 37.9799 47.6289V49.1289C41.2344 49.1289 44.3597 49.6037 47.2707 50.4773L47.7018 49.0406ZM43.6828 35.6385C42.2181 40.2386 43.5235 45.5412 46.8777 50.1974L48.0948 49.3206C44.9283 44.925 43.8325 40.1123 45.1121 36.0936L43.6828 35.6385ZM36.5105 23.5539C38.2702 29.2035 41.0553 33.9343 43.9032 36.4301L44.8918 35.302C42.326 33.0534 39.6555 28.6072 37.9427 23.1078L36.5105 23.5539ZM38.763 4.86176C37.5807 5.17593 36.6941 6.03463 36.0778 7.17839C35.4646 8.31615 35.0893 9.78339 34.9271 11.4486C34.6022 14.7829 35.1158 19.0757 36.5105 23.5539L37.9427 23.1078C36.5915 18.7695 36.1191 14.6819 36.42 11.594C36.5706 10.0481 36.9111 8.79387 37.3982 7.88997C37.8821 6.99208 38.4801 6.48898 39.1482 6.31146L38.763 4.86176ZM48.5502 12.8123C47.1424 10.1878 45.528 8.03094 43.8841 6.61127C42.2644 5.21263 40.4662 4.40922 38.763 4.86176L39.1482 6.31146C40.1299 6.05062 41.418 6.46359 42.9037 7.74655C44.365 9.00848 45.875 10.9984 47.2283 13.5214L48.5502 12.8123ZM55.3199 0.335937C54.4849 0.5578 53.6208 1.09779 52.7997 1.82373C51.9699 2.55735 51.1426 3.5175 50.3845 4.64152C48.8696 6.88778 47.5968 9.8403 47.1465 13.0631L48.632 13.2707C49.0476 10.2967 50.2274 7.55726 51.6281 5.48022C52.3279 4.44259 53.0742 3.58325 53.7932 2.94752C54.521 2.3041 55.1811 1.92488 55.7051 1.78564L55.3199 0.335937ZM60.3489 10.2285C59.9477 7.72507 59.5396 5.16262 58.9036 3.3146C58.5875 2.39605 58.1853 1.55965 57.6279 0.993982C57.0257 0.382859 56.238 0.0920074 55.3199 0.335937L55.7051 1.78564C56.0376 1.69729 56.2858 1.76906 56.5594 2.04679C56.8779 2.36997 57.1913 2.94864 57.4853 3.80272C58.0694 5.49996 58.4587 7.913 58.8678 10.4659L60.3489 10.2285ZM61.7011 16.9173C61.1274 15.0753 60.7405 12.6717 60.3489 10.2285L58.8678 10.4659C59.2538 12.8743 59.6564 15.3967 60.2689 17.3633L61.7011 16.9173ZM71.6904 39.3618C71.9335 39.6258 72.0411 39.8969 72.0604 40.0927C72.0792 40.2828 72.0188 40.3506 71.9874 40.3752L72.9141 41.5547C73.4389 41.1424 73.6099 40.5191 73.5531 39.9451C73.497 39.3768 73.2221 38.8108 72.7938 38.3457L71.6904 39.3618ZM70.4827 38.9146C70.5286 38.8786 70.6602 38.8213 70.9139 38.8817C71.1603 38.9403 71.4483 39.0989 71.6904 39.3618L72.7938 38.3457C72.3645 37.8796 71.8192 37.5552 71.2611 37.4224C70.7104 37.2914 70.0663 37.3342 69.556 37.7351L70.4827 38.9146ZM70.7797 39.928C70.5366 39.6641 70.4291 39.393 70.4097 39.1972C70.3909 39.0071 70.4514 38.9393 70.4827 38.9146L69.556 37.7351C69.0312 38.1475 68.8603 38.7707 68.917 39.3447C68.9732 39.9131 69.248 40.4791 69.6764 40.9442L70.7797 39.928ZM71.9874 40.3752C71.9416 40.4112 71.8099 40.4685 71.5562 40.4082C71.3098 40.3495 71.0219 40.191 70.7797 39.928L69.6764 40.9442C70.1056 41.4103 70.651 41.7346 71.209 41.8674C71.7598 41.9985 72.4038 41.9557 72.9141 41.5547L71.9874 40.3752Z"/>
    </symbol>
</svg>
