<svg width="257" height="74" viewBox="0 0 257 74" fill="none" xmlns="http://www.w3.org/2000/svg">
<path d="M66.44 25.32L71.76 25.28C73.7333 25.28 74.72 25.3067 74.72 25.36C74.72 21.8667 74.7733 19.32 74.88 17.72C74.9867 16.12 75.04 15.2933 75.04 15.24C75.04 15.1867 75.2267 15.0533 75.6 14.84C76 14.6267 76.5467 14.4267 77.24 14.24C77.9333 14.0267 78.52 13.92 79 13.92C79.5067 13.92 79.76 13.9733 79.76 14.08C79.4667 18 79.32 22.1867 79.32 26.64C79.32 31.0667 79.4533 34.36 79.72 36.52C79.9867 38.68 80.5733 40.2133 81.48 41.12C81.48 41.1733 81.3467 41.3067 81.08 41.52C80.84 41.7333 80.24 41.9867 79.28 42.28C78.3467 42.5733 77.4667 42.72 76.64 42.72L76.16 42.64C75.6533 42.1333 75.2933 41.0933 75.08 39.52C74.8933 37.92 74.7867 34.5733 74.76 29.48C74.3067 29.4533 72.8533 29.44 70.4 29.44C67.9733 29.44 66.64 29.48 66.4 29.56C66.3733 30.3067 66.36 31.96 66.36 34.52C66.36 37.0533 66.4667 39.1733 66.68 40.88C66.68 41.1733 66.2533 41.4133 65.4 41.6C64.5467 41.8133 63.7467 41.92 63 41.92C62.28 41.92 61.84 41.84 61.68 41.68C61.5467 41.5467 61.48 39.1067 61.48 34.36V29.64C61.1333 29.32 60.7333 28.7067 60.28 27.8C59.8267 26.8933 59.6 26.1467 59.6 25.56C59.6 25.48 60.2533 25.44 61.56 25.44C61.5867 23.5467 61.6 21.3733 61.6 18.92V18.08C60.9067 16.8 60.56 15.5333 60.56 14.28C60.56 14.1733 60.5733 14.1067 60.6 14.08C60.76 14.0533 60.9067 14.04 61.04 14.04C61.1733 14.04 61.4667 14.04 61.92 14.04C62.4 14.04 63.0667 14.1333 63.92 14.32C64.7733 14.48 65.4533 14.6667 65.96 14.88C66.4667 15.0933 66.72 15.2667 66.72 15.4C66.5333 16.7067 66.44 19.7467 66.44 24.52V25.32ZM95.9816 42.2C92.0082 42.2 89.0616 41.0533 87.1416 38.76C85.2482 36.4667 84.3016 33.5867 84.3016 30.12C84.3016 28.44 84.5016 26.8667 84.9016 25.4C85.3016 23.9333 85.6749 22.8933 86.0216 22.28C86.3682 21.6667 86.6482 21.3067 86.8616 21.2C87.0749 21.0667 87.9149 21 89.3816 21H90.1416C90.1416 19.6667 90.3949 18.5067 90.9016 17.52C91.4349 16.5333 92.1149 15.8 92.9416 15.32C94.4882 14.44 95.9549 14 97.3416 14C104.755 14 108.462 18.6667 108.462 28C108.462 30.9067 107.968 33.4933 106.982 35.76C106.422 37.04 105.688 38.1467 104.782 39.08C103.875 39.9867 102.662 40.7333 101.142 41.32C99.6482 41.9067 97.9282 42.2 95.9816 42.2ZM103.302 27.68C103.302 21.4133 101.435 18.28 97.7016 18.28C96.6349 18.28 95.8082 18.5867 95.2216 19.2C94.6616 19.8133 94.3816 20.6 94.3816 21.56C94.3816 22.4933 94.6749 23.6 95.2616 24.88C95.8749 26.16 96.4882 27.1733 97.1016 27.92L97.9816 29.04C97.9816 29.36 97.4882 29.6667 96.5016 29.96C95.5149 30.2267 94.7282 30.36 94.1416 30.36C94.0082 30.36 93.7282 30.1067 93.3016 29.6C92.9016 29.0933 92.4216 28.32 91.8616 27.28C91.3282 26.2133 90.9416 25.0933 90.7016 23.92C90.3016 24.32 89.9816 25.1333 89.7416 26.36C89.5016 27.5867 89.3816 28.7733 89.3816 29.92C89.3816 32.16 90.0082 34.08 91.2616 35.68C92.5149 37.2533 94.1016 38.04 96.0216 38.04C100.875 38.04 103.302 34.5867 103.302 27.68ZM118.624 27.44C124.597 26.9067 127.584 25 127.584 21.72C127.584 20.6533 127.024 19.8267 125.904 19.24C124.811 18.6267 123.411 18.32 121.704 18.32L118.824 18.56C118.691 19.52 118.624 22.48 118.624 27.44ZM119.024 41.24C118.731 41.5333 118.144 41.76 117.264 41.92C116.411 42.1067 115.677 42.2 115.064 42.2C114.451 42.2 113.957 42.12 113.584 41.96L113.824 18.88C113.451 18.4533 113.091 17.7467 112.744 16.76C112.424 15.7733 112.264 15.1733 112.264 14.96C112.264 14.72 112.291 14.5733 112.344 14.52C112.424 14.44 113.277 14.36 114.904 14.28C116.557 14.1733 118.211 14.12 119.864 14.12C121.544 14.12 123.037 14.2133 124.344 14.4C125.651 14.5867 126.984 14.9333 128.344 15.44C129.731 15.92 130.824 16.68 131.624 17.72C132.451 18.7333 132.864 20.04 132.864 21.64C132.864 23.24 132.371 24.7067 131.384 26.04C130.424 27.3733 129.251 28.3867 127.864 29.08C124.984 30.5467 122.397 31.4267 120.104 31.72L118.624 31.88C118.731 37.32 118.864 40.44 119.024 41.24ZM142.632 27.44C148.605 26.9067 151.592 25 151.592 21.72C151.592 20.6533 151.032 19.8267 149.912 19.24C148.819 18.6267 147.419 18.32 145.712 18.32L142.832 18.56C142.699 19.52 142.632 22.48 142.632 27.44ZM143.032 41.24C142.739 41.5333 142.152 41.76 141.272 41.92C140.419 42.1067 139.685 42.2 139.072 42.2C138.459 42.2 137.965 42.12 137.592 41.96L137.832 18.88C137.459 18.4533 137.099 17.7467 136.752 16.76C136.432 15.7733 136.272 15.1733 136.272 14.96C136.272 14.72 136.299 14.5733 136.352 14.52C136.432 14.44 137.285 14.36 138.912 14.28C140.565 14.1733 142.219 14.12 143.872 14.12C145.552 14.12 147.045 14.2133 148.352 14.4C149.659 14.5867 150.992 14.9333 152.352 15.44C153.739 15.92 154.832 16.68 155.632 17.72C156.459 18.7333 156.872 20.04 156.872 21.64C156.872 23.24 156.379 24.7067 155.392 26.04C154.432 27.3733 153.259 28.3867 151.872 29.08C148.992 30.5467 146.405 31.4267 144.112 31.72L142.632 31.88C142.739 37.32 142.872 40.44 143.032 41.24ZM162.4 25.36L162.44 21.04C162.44 19.8933 162.413 19.2667 162.36 19.16C162.066 18.8667 161.68 18.16 161.2 17.04C160.746 15.92 160.52 15.2 160.52 14.88C160.813 14.5867 165.493 14.44 174.56 14.44C176.8 14.44 177.92 14.4933 177.92 14.6C177.92 15.16 177.786 15.7733 177.52 16.44C177.28 17.1067 177.013 17.64 176.72 18.04C176.453 18.44 176.253 18.6267 176.12 18.6C176.013 18.5467 175.466 18.52 174.48 18.52C173.52 18.52 172.173 18.5867 170.44 18.72C168.706 18.8267 167.76 18.96 167.6 19.12C167.44 19.28 167.36 20.7467 167.36 23.52L167.4 25.2C168.466 25.1733 170.04 25.16 172.12 25.16C174.2 25.16 175.24 25.2 175.24 25.28C175.24 26.24 174.92 27.3333 174.28 28.56C174.04 28.9867 173.893 29.1867 173.84 29.16C173.146 29.16 171.96 29.2267 170.28 29.36C168.6 29.4667 167.626 29.6 167.36 29.76C167.333 29.7867 167.32 30.9067 167.32 33.12C167.32 35.3333 167.386 36.5067 167.52 36.64C167.946 37.0667 170.24 37.28 174.4 37.28C176.08 37.28 177.213 37.24 177.8 37.16C178.386 37.0533 178.68 37.0133 178.68 37.04C178.68 37.68 178.466 38.44 178.04 39.32C177.613 40.2 177.16 40.8667 176.68 41.32C176.413 41.5867 174.013 41.72 169.48 41.72C164.973 41.72 162.64 41.6133 162.48 41.4C162.32 41.2667 162.24 39.9867 162.24 37.56C162.24 35.1067 162.266 32.52 162.32 29.8C161.84 29.3733 161.373 28.7067 160.92 27.8C160.493 26.8933 160.28 26.12 160.28 25.48C160.28 25.4533 160.986 25.4133 162.4 25.36ZM188.811 27.44C191.957 27.1467 194.264 26.4133 195.731 25.24C197.224 24.04 197.971 22.8667 197.971 21.72C197.971 20.5467 197.397 19.6933 196.251 19.16C195.104 18.6 193.651 18.32 191.891 18.32C190.957 18.32 190.011 18.4 189.051 18.56C188.891 19.7067 188.811 22.6667 188.811 27.44ZM189.251 41.24C188.957 41.5333 188.371 41.76 187.491 41.92C186.611 42.1067 185.877 42.2 185.291 42.2C184.704 42.2 184.197 42.12 183.771 41.96L184.011 18.88C183.664 18.4533 183.317 17.7467 182.971 16.76C182.651 15.7733 182.491 15.1733 182.491 14.96C182.491 14.72 182.517 14.5733 182.571 14.52C182.624 14.44 183.464 14.36 185.091 14.28C186.744 14.1733 188.411 14.12 190.091 14.12C191.771 14.12 193.264 14.2133 194.571 14.4C195.877 14.5867 197.237 14.92 198.651 15.4C200.064 15.8533 201.184 16.5867 202.011 17.6C202.837 18.6133 203.251 19.92 203.251 21.52C203.251 23.0933 202.691 24.56 201.571 25.92C200.451 27.28 198.931 28.4267 197.011 29.36C197.011 29.7867 197.851 31.7067 199.531 35.12C201.211 38.5067 202.544 40.6933 203.531 41.68C203.557 41.7067 203.571 41.7467 203.571 41.8C203.571 41.88 203.357 42.0133 202.931 42.2C201.757 42.76 200.491 43.04 199.131 43.04L198.131 42.96C197.544 42.3733 196.517 40.4267 195.051 37.12C193.611 33.8133 192.811 31.7867 192.651 31.04C192.331 31.2267 191.064 31.5067 188.851 31.88C188.904 37.24 189.037 40.36 189.251 41.24Z" fill="#11644D"/>
<path d="M60.56 68.14C60.2933 68.14 60.0867 68.0667 59.94 67.92C59.8067 67.76 59.74 67.5467 59.74 67.28V54.74C59.74 54.46 59.8133 54.2533 59.96 54.12C60.1067 53.9733 60.3133 53.9 60.58 53.9H65.32C66.8267 53.9 67.9867 54.2533 68.8 54.96C69.6133 55.6667 70.02 56.6733 70.02 57.98C70.02 58.8067 69.8333 59.5267 69.46 60.14C69.1 60.74 68.5667 61.2 67.86 61.52C67.1533 61.8267 66.3067 61.98 65.32 61.98L65.52 61.72H65.92C66.44 61.72 66.8933 61.8533 67.28 62.12C67.6667 62.3867 68.02 62.8133 68.34 63.4L70.26 66.98C70.3667 67.1667 70.4133 67.3533 70.4 67.54C70.4 67.7133 70.34 67.86 70.22 67.98C70.1 68.0867 69.9267 68.14 69.7 68.14C69.4733 68.14 69.2867 68.0867 69.14 67.98C68.9933 67.8733 68.8667 67.72 68.76 67.52L66.58 63.48C66.2733 62.9067 65.92 62.5267 65.52 62.34C65.12 62.14 64.5933 62.04 63.94 62.04H61.38V67.28C61.38 67.5467 61.3133 67.76 61.18 67.92C61.0467 68.0667 60.84 68.14 60.56 68.14ZM61.38 60.74H65.08C66.1733 60.74 67 60.5133 67.56 60.06C68.12 59.5933 68.4 58.9 68.4 57.98C68.4 57.0867 68.12 56.4133 67.56 55.96C67 55.4933 66.1733 55.26 65.08 55.26H61.38V60.74ZM76.3041 68.14C76.0907 68.14 75.9174 68.0933 75.7841 68C75.6641 67.8933 75.5907 67.76 75.5641 67.6C75.5507 67.4267 75.5907 67.2333 75.6841 67.02L81.1841 54.5C81.3041 54.2333 81.4441 54.0467 81.6041 53.94C81.7774 53.82 81.9641 53.76 82.1641 53.76C82.3641 53.76 82.5441 53.82 82.7041 53.94C82.8774 54.0467 83.0174 54.2333 83.1241 54.5L88.6441 67.02C88.7507 67.2333 88.7907 67.4267 88.7641 67.6C88.7507 67.7733 88.6841 67.9067 88.5641 68C88.4441 68.0933 88.2774 68.14 88.0641 68.14C87.8241 68.14 87.6307 68.08 87.4841 67.96C87.3374 67.8267 87.2174 67.64 87.1241 67.4L85.6441 63.98L86.4441 64.4H77.8441L78.6641 63.98L77.2041 67.4C77.0841 67.6533 76.9574 67.84 76.8241 67.96C76.6907 68.08 76.5174 68.14 76.3041 68.14ZM82.1441 55.82L78.9241 63.4L78.4441 63.02H85.8441L85.4041 63.4L82.1841 55.82H82.1441ZM95.7744 68C95.481 68 95.2544 67.9267 95.0944 67.78C94.9477 67.62 94.8744 67.3933 94.8744 67.1V54.8C94.8744 54.5067 94.9477 54.2867 95.0944 54.14C95.2544 53.98 95.481 53.9 95.7744 53.9H100.514C101.488 53.9 102.308 54.0467 102.974 54.34C103.654 54.62 104.174 55.0333 104.534 55.58C104.894 56.1267 105.074 56.7933 105.074 57.58C105.074 58.46 104.814 59.1933 104.294 59.78C103.788 60.3667 103.094 60.7533 102.214 60.94V60.66C103.214 60.78 103.994 61.14 104.554 61.74C105.128 62.34 105.414 63.1333 105.414 64.12C105.414 65.3733 105.008 66.3333 104.194 67C103.381 67.6667 102.234 68 100.754 68H95.7744ZM96.4744 66.68H100.594C101.661 66.68 102.461 66.4667 102.994 66.04C103.528 65.6133 103.794 64.9667 103.794 64.1C103.794 63.22 103.528 62.5733 102.994 62.16C102.461 61.7333 101.661 61.52 100.594 61.52H96.4744V66.68ZM96.4744 60.2H100.274C101.314 60.2 102.101 59.9867 102.634 59.56C103.181 59.1333 103.454 58.52 103.454 57.72C103.454 56.8933 103.181 56.2733 102.634 55.86C102.101 55.4333 101.314 55.22 100.274 55.22H96.4744V60.2ZM112.99 68C112.697 68 112.47 67.9267 112.31 67.78C112.163 67.62 112.09 67.3933 112.09 67.1V54.8C112.09 54.5067 112.163 54.2867 112.31 54.14C112.47 53.98 112.697 53.9 112.99 53.9H117.73C118.703 53.9 119.523 54.0467 120.19 54.34C120.87 54.62 121.39 55.0333 121.75 55.58C122.11 56.1267 122.29 56.7933 122.29 57.58C122.29 58.46 122.03 59.1933 121.51 59.78C121.003 60.3667 120.31 60.7533 119.43 60.94V60.66C120.43 60.78 121.21 61.14 121.77 61.74C122.343 62.34 122.63 63.1333 122.63 64.12C122.63 65.3733 122.223 66.3333 121.41 67C120.597 67.6667 119.45 68 117.97 68H112.99ZM113.69 66.68H117.81C118.877 66.68 119.677 66.4667 120.21 66.04C120.743 65.6133 121.01 64.9667 121.01 64.1C121.01 63.22 120.743 62.5733 120.21 62.16C119.677 61.7333 118.877 61.52 117.81 61.52H113.69V66.68ZM113.69 60.2H117.49C118.53 60.2 119.317 59.9867 119.85 59.56C120.397 59.1333 120.67 58.52 120.67 57.72C120.67 56.8933 120.397 56.2733 119.85 55.86C119.317 55.4333 118.53 55.22 117.49 55.22H113.69V60.2ZM130.126 68.14C129.859 68.14 129.652 68.0667 129.506 67.92C129.372 67.76 129.306 67.5467 129.306 67.28V54.62C129.306 54.34 129.372 54.1267 129.506 53.98C129.652 53.8333 129.859 53.76 130.126 53.76C130.392 53.76 130.592 53.8333 130.726 53.98C130.872 54.1267 130.946 54.34 130.946 54.62V67.28C130.946 67.5467 130.879 67.76 130.746 67.92C130.612 68.0667 130.406 68.14 130.126 68.14ZM142.422 68.14C142.169 68.14 141.969 68.0667 141.822 67.92C141.676 67.76 141.602 67.5467 141.602 67.28V55.32H137.102C136.862 55.32 136.676 55.2533 136.542 55.12C136.409 54.9867 136.342 54.8133 136.342 54.6C136.342 54.3733 136.409 54.2 136.542 54.08C136.676 53.96 136.862 53.9 137.102 53.9H147.762C148.002 53.9 148.189 53.96 148.322 54.08C148.456 54.2 148.522 54.3733 148.522 54.6C148.522 54.8267 148.456 55.0067 148.322 55.14C148.189 55.26 148.002 55.32 147.762 55.32H143.262V67.28C143.262 67.5467 143.189 67.76 143.042 67.92C142.909 68.0667 142.702 68.14 142.422 68.14ZM163.55 68.14C163.283 68.14 163.077 68.0667 162.93 67.92C162.797 67.76 162.73 67.5467 162.73 67.28V54.74C162.73 54.46 162.803 54.2533 162.95 54.12C163.097 53.9733 163.303 53.9 163.57 53.9H168.31C169.817 53.9 170.977 54.2533 171.79 54.96C172.603 55.6667 173.01 56.6733 173.01 57.98C173.01 58.8067 172.823 59.5267 172.45 60.14C172.09 60.74 171.557 61.2 170.85 61.52C170.143 61.8267 169.297 61.98 168.31 61.98L168.51 61.72H168.91C169.43 61.72 169.883 61.8533 170.27 62.12C170.657 62.3867 171.01 62.8133 171.33 63.4L173.25 66.98C173.357 67.1667 173.403 67.3533 173.39 67.54C173.39 67.7133 173.33 67.86 173.21 67.98C173.09 68.0867 172.917 68.14 172.69 68.14C172.463 68.14 172.277 68.0867 172.13 67.98C171.983 67.8733 171.857 67.72 171.75 67.52L169.57 63.48C169.263 62.9067 168.91 62.5267 168.51 62.34C168.11 62.14 167.583 62.04 166.93 62.04H164.37V67.28C164.37 67.5467 164.303 67.76 164.17 67.92C164.037 68.0667 163.83 68.14 163.55 68.14ZM164.37 60.74H168.07C169.163 60.74 169.99 60.5133 170.55 60.06C171.11 59.5933 171.39 58.9 171.39 57.98C171.39 57.0867 171.11 56.4133 170.55 55.96C169.99 55.4933 169.163 55.26 168.07 55.26H164.37V60.74ZM180.709 68C180.415 68 180.189 67.9267 180.029 67.78C179.882 67.62 179.809 67.3933 179.809 67.1V54.8C179.809 54.5067 179.882 54.2867 180.029 54.14C180.189 53.98 180.415 53.9 180.709 53.9H188.149C188.375 53.9 188.549 53.96 188.669 54.08C188.789 54.2 188.849 54.3667 188.849 54.58C188.849 54.8067 188.789 54.98 188.669 55.1C188.549 55.22 188.375 55.28 188.149 55.28H181.409V60.16H187.729C187.955 60.16 188.129 60.22 188.249 60.34C188.369 60.4467 188.429 60.6133 188.429 60.84C188.429 61.0667 188.369 61.24 188.249 61.36C188.129 61.48 187.955 61.54 187.729 61.54H181.409V66.62H188.149C188.375 66.62 188.549 66.68 188.669 66.8C188.789 66.92 188.849 67.0867 188.849 67.3C188.849 67.5267 188.789 67.7 188.669 67.82C188.549 67.94 188.375 68 188.149 68H180.709ZM199.534 68.18C198.907 68.18 198.294 68.1267 197.694 68.02C197.094 67.9133 196.534 67.76 196.014 67.56C195.507 67.36 195.047 67.1067 194.634 66.8C194.474 66.68 194.36 66.5467 194.294 66.4C194.24 66.24 194.227 66.0867 194.254 65.94C194.294 65.78 194.36 65.6467 194.454 65.54C194.56 65.4333 194.687 65.3733 194.834 65.36C194.98 65.3467 195.14 65.3933 195.314 65.5C195.914 65.9267 196.554 66.24 197.234 66.44C197.914 66.6267 198.68 66.72 199.534 66.72C200.734 66.72 201.62 66.5 202.194 66.06C202.78 65.6067 203.074 65.0133 203.074 64.28C203.074 63.68 202.86 63.2133 202.434 62.88C202.02 62.5333 201.32 62.26 200.334 62.06L198.254 61.64C197 61.3733 196.06 60.94 195.434 60.34C194.82 59.7267 194.514 58.9133 194.514 57.9C194.514 57.2733 194.64 56.7067 194.894 56.2C195.147 55.68 195.5 55.24 195.954 54.88C196.407 54.5067 196.947 54.22 197.574 54.02C198.2 53.82 198.894 53.72 199.654 53.72C200.494 53.72 201.274 53.84 201.994 54.08C202.727 54.3067 203.387 54.6533 203.974 55.12C204.12 55.24 204.22 55.38 204.274 55.54C204.327 55.6867 204.334 55.8333 204.294 55.98C204.254 56.1133 204.18 56.2267 204.074 56.32C203.98 56.4133 203.854 56.4667 203.694 56.48C203.547 56.4933 203.38 56.44 203.194 56.32C202.66 55.92 202.107 55.6333 201.534 55.46C200.96 55.2733 200.327 55.18 199.634 55.18C198.927 55.18 198.314 55.2867 197.794 55.5C197.287 55.7133 196.887 56.0267 196.594 56.44C196.314 56.84 196.174 57.3067 196.174 57.84C196.174 58.48 196.367 58.9867 196.754 59.36C197.154 59.7333 197.8 60.0067 198.694 60.18L200.774 60.62C202.12 60.9 203.114 61.3267 203.754 61.9C204.407 62.46 204.734 63.2267 204.734 64.2C204.734 64.7867 204.614 65.3267 204.374 65.82C204.134 66.3133 203.787 66.74 203.334 67.1C202.88 67.4467 202.334 67.7133 201.694 67.9C201.054 68.0867 200.334 68.18 199.534 68.18ZM217.078 68.18C215.692 68.18 214.505 67.8867 213.518 67.3C212.532 66.7133 211.772 65.88 211.238 64.8C210.718 63.72 210.458 62.4333 210.458 60.94C210.458 59.82 210.605 58.82 210.898 57.94C211.205 57.0467 211.638 56.2933 212.198 55.68C212.772 55.0533 213.472 54.5733 214.298 54.24C215.125 53.8933 216.052 53.72 217.078 53.72C217.905 53.72 218.692 53.84 219.438 54.08C220.185 54.3067 220.832 54.6467 221.378 55.1C221.552 55.2333 221.665 55.3867 221.718 55.56C221.785 55.72 221.792 55.88 221.738 56.04C221.698 56.1867 221.618 56.3133 221.498 56.42C221.392 56.5133 221.258 56.56 221.098 56.56C220.938 56.56 220.758 56.4933 220.558 56.36C220.078 55.9733 219.552 55.6867 218.978 55.5C218.405 55.3133 217.785 55.22 217.118 55.22C216.065 55.22 215.172 55.4467 214.438 55.9C213.705 56.34 213.152 56.9867 212.778 57.84C212.405 58.6933 212.218 59.7267 212.218 60.94C212.218 62.1533 212.405 63.1933 212.778 64.06C213.152 64.9133 213.705 65.5667 214.438 66.02C215.172 66.46 216.065 66.68 217.118 66.68C217.772 66.68 218.392 66.5867 218.978 66.4C219.565 66.2 220.105 65.9067 220.598 65.52C220.798 65.3867 220.978 65.3267 221.138 65.34C221.298 65.34 221.432 65.3867 221.538 65.48C221.645 65.5733 221.718 65.6933 221.758 65.84C221.812 65.9867 221.812 66.14 221.758 66.3C221.718 66.46 221.618 66.6 221.458 66.72C220.898 67.2 220.238 67.5667 219.478 67.82C218.732 68.06 217.932 68.18 217.078 68.18ZM233.695 68.18C232.762 68.18 231.942 68.06 231.235 67.82C230.542 67.5667 229.955 67.2 229.475 66.72C228.995 66.2267 228.635 65.62 228.395 64.9C228.155 64.18 228.035 63.3533 228.035 62.42V54.6C228.035 54.32 228.102 54.1133 228.235 53.98C228.382 53.8333 228.589 53.76 228.855 53.76C229.122 53.76 229.322 53.8333 229.455 53.98C229.602 54.1133 229.675 54.32 229.675 54.6V62.34C229.675 63.8067 230.015 64.9067 230.695 65.64C231.375 66.36 232.375 66.72 233.695 66.72C235.015 66.72 236.009 66.36 236.675 65.64C237.342 64.9067 237.675 63.8067 237.675 62.34V54.6C237.675 54.32 237.749 54.1133 237.895 53.98C238.042 53.8333 238.249 53.76 238.515 53.76C238.769 53.76 238.962 53.8333 239.095 53.98C239.242 54.1133 239.315 54.32 239.315 54.6V62.42C239.315 63.66 239.102 64.7133 238.675 65.58C238.262 66.4467 237.635 67.1 236.795 67.54C235.955 67.9667 234.922 68.18 233.695 68.18ZM247.286 68C246.993 68 246.766 67.9267 246.606 67.78C246.459 67.62 246.386 67.3933 246.386 67.1V54.8C246.386 54.5067 246.459 54.2867 246.606 54.14C246.766 53.98 246.993 53.9 247.286 53.9H254.726C254.953 53.9 255.126 53.96 255.246 54.08C255.366 54.2 255.426 54.3667 255.426 54.58C255.426 54.8067 255.366 54.98 255.246 55.1C255.126 55.22 254.953 55.28 254.726 55.28H247.986V60.16H254.306C254.533 60.16 254.706 60.22 254.826 60.34C254.946 60.4467 255.006 60.6133 255.006 60.84C255.006 61.0667 254.946 61.24 254.826 61.36C254.706 61.48 254.533 61.54 254.306 61.54H247.986V66.62H254.726C254.953 66.62 255.126 66.68 255.246 66.8C255.366 66.92 255.426 67.0867 255.426 67.3C255.426 67.5267 255.366 67.7 255.246 67.82C255.126 67.94 254.953 68 254.726 68H247.286Z" fill="#757575"/>
<mask id="path-2-inside-1_548_171" fill="white">
<path fill-rule="evenodd" clip-rule="evenodd" d="M33.1171 17.6689C33.7424 19.8473 34.3227 21.9501 34.6452 23.7105C36.5688 24.0706 38.5472 24.8523 40.4049 26.0663C46.206 29.8571 48.6332 36.4275 45.8261 40.7417C44.2206 43.2093 41.2504 44.4043 37.9164 44.2658C40.1903 46.2459 41.7351 50.121 41.7351 54.5774C41.7351 57.4177 41.1075 60.022 40.0636 62.0499C41.2975 62.634 42.1028 63.5952 42.1028 64.682C42.1028 66.4626 39.9409 67.9061 37.2742 67.9061C35.835 67.9061 34.5428 67.4856 33.6582 66.8187C32.5756 67.9376 28.7697 67.9207 24.0027 67.8995H24.0026C23.3323 67.8965 22.6429 67.8934 21.9394 67.8934C21.2359 67.8934 20.5465 67.8965 19.8762 67.8995H19.8761C14.2158 67.9246 9.91048 67.9438 9.91048 66.0625C9.91048 65.4458 10.3732 64.8633 11.1947 64.348C10.0045 63.5622 8.93083 62.6285 8.00318 61.5749C7.59524 62.5628 6.9425 63.2637 6.0897 63.5054C3.9789 64.1036 1.4418 61.6614 0.422927 58.0505C-0.595946 54.4397 0.289237 51.0276 2.40004 50.4294C3.00896 50.2569 3.65336 50.3373 4.28656 50.6259C4.8848 42.6641 11.8776 36.3813 20.416 36.3813C22.2534 36.3813 24.0191 36.6723 25.665 37.2082C23.8647 34.4968 23.2017 31.4667 23.9594 28.885C22.4654 27.4635 20.96 24.7155 20.0018 21.3772C18.4857 16.0956 18.9131 11.3365 20.9564 10.7474C22.4382 10.3202 24.363 12.2034 25.8872 15.2851C26.3662 11.5745 28.5954 8.46892 30.0957 8.03641C31.4765 7.63832 31.9096 10.5704 32.357 13.5995C32.5717 15.0526 32.7896 16.5281 33.1171 17.6689ZM38.4635 33.2705C39.1716 33.2705 39.7457 32.5994 39.7457 31.7714C39.7457 30.9435 39.1716 30.2723 38.4635 30.2723C37.7554 30.2723 37.1813 30.9435 37.1813 31.7714C37.1813 32.5994 37.7554 33.2705 38.4635 33.2705Z"/>
</mask>
<path fill-rule="evenodd" clip-rule="evenodd" d="M33.1171 17.6689C33.7424 19.8473 34.3227 21.9501 34.6452 23.7105C36.5688 24.0706 38.5472 24.8523 40.4049 26.0663C46.206 29.8571 48.6332 36.4275 45.8261 40.7417C44.2206 43.2093 41.2504 44.4043 37.9164 44.2658C40.1903 46.2459 41.7351 50.121 41.7351 54.5774C41.7351 57.4177 41.1075 60.022 40.0636 62.0499C41.2975 62.634 42.1028 63.5952 42.1028 64.682C42.1028 66.4626 39.9409 67.9061 37.2742 67.9061C35.835 67.9061 34.5428 67.4856 33.6582 66.8187C32.5756 67.9376 28.7697 67.9207 24.0027 67.8995H24.0026C23.3323 67.8965 22.6429 67.8934 21.9394 67.8934C21.2359 67.8934 20.5465 67.8965 19.8762 67.8995H19.8761C14.2158 67.9246 9.91048 67.9438 9.91048 66.0625C9.91048 65.4458 10.3732 64.8633 11.1947 64.348C10.0045 63.5622 8.93083 62.6285 8.00318 61.5749C7.59524 62.5628 6.9425 63.2637 6.0897 63.5054C3.9789 64.1036 1.4418 61.6614 0.422927 58.0505C-0.595946 54.4397 0.289237 51.0276 2.40004 50.4294C3.00896 50.2569 3.65336 50.3373 4.28656 50.6259C4.8848 42.6641 11.8776 36.3813 20.416 36.3813C22.2534 36.3813 24.0191 36.6723 25.665 37.2082C23.8647 34.4968 23.2017 31.4667 23.9594 28.885C22.4654 27.4635 20.96 24.7155 20.0018 21.3772C18.4857 16.0956 18.9131 11.3365 20.9564 10.7474C22.4382 10.3202 24.363 12.2034 25.8872 15.2851C26.3662 11.5745 28.5954 8.46892 30.0957 8.03641C31.4765 7.63832 31.9096 10.5704 32.357 13.5995C32.5717 15.0526 32.7896 16.5281 33.1171 17.6689ZM38.4635 33.2705C39.1716 33.2705 39.7457 32.5994 39.7457 31.7714C39.7457 30.9435 39.1716 30.2723 38.4635 30.2723C37.7554 30.2723 37.1813 30.9435 37.1813 31.7714C37.1813 32.5994 37.7554 33.2705 38.4635 33.2705Z" fill="#11644D"/>
<path d="M34.6452 23.7105L32.5037 24.1029L32.7735 25.5751L34.2446 25.8505L34.6452 23.7105ZM33.1171 17.6689L35.2098 17.0682L35.2098 17.0682L33.1171 17.6689ZM40.4049 26.0663L39.2139 27.8889L39.2139 27.8889L40.4049 26.0663ZM45.8261 40.7417L44.0012 39.5543L44.0012 39.5543L45.8261 40.7417ZM37.9164 44.2658L38.0067 42.0905L31.8072 41.8331L36.4866 45.9078L37.9164 44.2658ZM40.0636 62.0499L38.1278 61.0534L37.0976 63.0548L39.1321 64.0178L40.0636 62.0499ZM33.6582 66.8187L34.9689 65.0802L33.432 63.9214L32.0935 65.3047L33.6582 66.8187ZM24.0027 67.8995L24.0123 65.7223H24.0027V67.8995ZM24.0026 67.8995L23.993 70.0767H24.0026V67.8995ZM19.8762 67.8995L19.8762 70.0767L19.8858 70.0767L19.8762 67.8995ZM19.8761 67.8995L19.8761 65.7222L19.8665 65.7223L19.8761 67.8995ZM11.1947 64.348L12.3517 66.1923L15.2172 64.3947L12.3943 62.531L11.1947 64.348ZM8.00318 61.5749L9.63729 60.1362L7.32589 57.5109L5.99079 60.7439L8.00318 61.5749ZM6.0897 63.5054L5.49608 61.4107L5.49607 61.4107L6.0897 63.5054ZM2.40004 50.4294L1.80641 48.3347L1.80641 48.3347L2.40004 50.4294ZM4.28656 50.6259L3.38371 52.6071L6.22382 53.9014L6.45768 50.789L4.28656 50.6259ZM25.665 37.2082L24.9909 39.2785L30.9393 41.2155L27.4788 36.0039L25.665 37.2082ZM23.9594 28.885L26.0485 29.4981L26.4227 28.2234L25.4602 27.3076L23.9594 28.885ZM20.0018 21.3772L22.0945 20.7764L22.0945 20.7764L20.0018 21.3772ZM20.9564 10.7474L20.3533 8.65538L20.3533 8.65538L20.9564 10.7474ZM25.8872 15.2851L23.9356 16.2504L27.1253 22.6996L28.0465 15.5639L25.8872 15.2851ZM30.0957 8.03641L30.6988 10.1284L30.0957 8.03641ZM32.357 13.5995L34.5109 13.2813L34.5109 13.2813L32.357 13.5995ZM36.7868 23.318C36.4422 21.4372 35.8321 19.2362 35.2098 17.0682L31.0244 18.2696C31.6527 20.4584 32.2031 22.463 32.5037 24.1029L36.7868 23.318ZM41.5959 24.2437C39.5064 22.8782 37.2606 21.9851 35.0459 21.5704L34.2446 25.8505C35.8769 26.1562 37.588 26.8264 39.2139 27.8889L41.5959 24.2437ZM47.6511 41.9291C49.5168 39.0616 49.544 35.5882 48.3859 32.4533C47.2276 29.3177 44.8486 26.3692 41.5959 24.2437L39.2139 27.8889C41.7623 29.5542 43.4974 31.7863 44.3012 33.9622C45.1052 36.1387 44.9425 38.1076 44.0012 39.5543L47.6511 41.9291ZM37.8261 46.4412C41.6916 46.6017 45.5115 45.2174 47.6511 41.9291L44.0012 39.5543C42.9296 41.2012 40.8092 42.2068 38.0067 42.0905L37.8261 46.4412ZM43.9123 54.5774C43.9123 49.716 42.2416 45.1451 39.3462 42.6239L36.4866 45.9078C38.1391 47.3467 39.5578 50.526 39.5578 54.5774H43.9123ZM41.9994 63.0464C43.2198 60.6757 43.9123 57.7233 43.9123 54.5774H39.5578C39.5578 57.1122 38.9953 59.3683 38.1278 61.0534L41.9994 63.0464ZM44.28 64.682C44.28 62.4226 42.6362 60.8589 40.9951 60.082L39.1321 64.0178C39.5081 64.1958 39.7295 64.3907 39.8388 64.5288C39.891 64.5948 39.912 64.6401 39.9197 64.6606C39.9236 64.6709 39.9248 64.6768 39.9252 64.6787C39.9255 64.6804 39.9255 64.6811 39.9255 64.682H44.28ZM37.2742 70.0833C38.9781 70.0833 40.6191 69.6261 41.8975 68.7724C43.1611 67.9288 44.28 66.5251 44.28 64.682H39.9255C39.9255 64.6828 39.9255 64.6833 39.9254 64.6842C39.9252 64.6852 39.9247 64.6882 39.923 64.6938C39.9197 64.7044 39.9101 64.7307 39.8841 64.7718C39.8296 64.8577 39.7096 64.9974 39.4795 65.1511C39.0103 65.4643 38.237 65.7288 37.2742 65.7288V70.0833ZM32.3475 68.5572C33.6685 69.5531 35.4412 70.0833 37.2742 70.0833V65.7288C36.2287 65.7288 35.4172 65.4181 34.9689 65.0802L32.3475 68.5572ZM23.993 70.0767C26.3433 70.0871 28.5902 70.0988 30.3836 69.9571C31.2827 69.886 32.1571 69.7706 32.9236 69.5665C33.6433 69.3747 34.5422 69.0362 35.2229 68.3326L32.0935 65.3047C32.2329 65.1607 32.2501 65.2395 31.8028 65.3587C31.4022 65.4654 30.8242 65.5542 30.0406 65.6161C28.4687 65.7404 26.429 65.733 24.0123 65.7223L23.993 70.0767ZM24.0026 70.0767H24.0027V65.7223H24.0026V70.0767ZM21.9394 70.0707C22.6373 70.0707 23.3219 70.0737 23.993 70.0767L24.0123 65.7223C23.3426 65.7193 22.6485 65.7162 21.9394 65.7162V70.0707ZM19.8858 70.0767C20.5569 70.0737 21.2415 70.0707 21.9394 70.0707V65.7162C21.2303 65.7162 20.5362 65.7193 19.8665 65.7223L19.8858 70.0767ZM19.8761 70.0767H19.8762V65.7223H19.8761V70.0767ZM7.73324 66.0625C7.73324 67.5952 8.70683 68.5665 9.64728 69.068C10.4979 69.5215 11.5342 69.7332 12.4956 69.8557C14.4553 70.1053 17.1172 70.089 19.8858 70.0767L19.8665 65.7223C16.9747 65.7351 14.6538 65.7409 13.0458 65.5361C12.2233 65.4313 11.8295 65.2967 11.696 65.2255C11.6523 65.2022 12.0877 65.4705 12.0877 66.0625H7.73324ZM10.0377 62.5036C9.0405 63.1292 7.73324 64.2802 7.73324 66.0625H12.0877C12.0877 66.1865 12.0635 66.2937 12.0333 66.3737C12.0046 66.45 11.9765 66.4866 11.9775 66.4852C11.9792 66.4831 12.0036 66.452 12.0675 66.397C12.1309 66.3425 12.2232 66.273 12.3517 66.1923L10.0377 62.5036ZM6.36908 63.0137C7.4256 64.2137 8.6458 65.2741 9.99513 66.1649L12.3943 62.531C11.3632 61.8503 10.4361 61.0434 9.63729 60.1362L6.36908 63.0137ZM6.68333 65.6002C8.37981 65.1194 9.44591 63.7854 10.0156 62.406L5.99079 60.7439C5.74457 61.3401 5.50519 61.4081 5.49608 61.4107L6.68333 65.6002ZM-1.67249 58.6418C-1.07695 60.7523 -0.013118 62.6254 1.33691 63.9249C2.6433 65.1825 4.57551 66.1975 6.68333 65.6002L5.49607 61.4107C5.49309 61.4115 5.10135 61.5045 4.35678 60.7878C3.65583 60.113 2.94168 58.9595 2.51834 57.4593L-1.67249 58.6418ZM1.80641 48.3347C-0.300112 48.9316 -1.41428 50.8083 -1.86962 52.5635C-2.34031 54.3778 -2.26805 56.5311 -1.67249 58.6418L2.51834 57.4593C2.09503 55.9591 2.10044 54.6009 2.34533 53.657C2.60557 52.6538 2.98939 52.5254 2.99367 52.5242L1.80641 48.3347ZM5.18941 48.6447C4.18443 48.1867 3.00632 47.9946 1.80641 48.3347L2.99366 52.5242C3.01161 52.5191 3.1223 52.488 3.38371 52.6071L5.18941 48.6447ZM20.416 34.2041C10.8261 34.2041 2.80546 41.2796 2.11544 50.4627L6.45768 50.789C6.96415 44.0486 12.9291 38.5586 20.416 38.5586V34.2041ZM26.3392 35.138C24.4773 34.5317 22.4841 34.2041 20.416 34.2041V38.5586C22.0226 38.5586 23.5609 38.8128 24.9909 39.2785L26.3392 35.138ZM21.8703 28.2718C20.8846 31.6302 21.7991 35.322 23.8512 38.4126L27.4788 36.0039C25.9302 33.6716 25.5187 31.3033 26.0485 29.4981L21.8703 28.2718ZM17.909 21.9779C18.9235 25.512 20.5755 28.6705 22.4586 30.4623L25.4602 27.3076C24.3554 26.2564 22.9966 23.919 22.0945 20.7764L17.909 21.9779ZM20.3533 8.65538C19.0556 9.02948 18.2482 10.0069 17.782 10.9456C17.3165 11.883 17.0763 12.9889 16.9758 14.1079C16.7734 16.3608 17.0961 19.1461 17.909 21.9779L22.0945 20.7764C21.3913 18.3267 21.1696 16.0916 21.3128 14.4973C21.3851 13.6927 21.5401 13.1683 21.682 12.8826C21.8232 12.5982 21.8355 12.7599 21.5595 12.8394L20.3533 8.65538ZM27.8387 14.3199C27.0077 12.6397 26.006 11.1527 24.8943 10.1114C23.8704 9.15236 22.2323 8.11366 20.3533 8.65538L21.5595 12.8394C21.1623 12.9539 21.2276 12.6433 21.9175 13.2895C22.5196 13.8534 23.2424 14.8489 23.9356 16.2504L27.8387 14.3199ZM29.4925 5.94438C28.6408 6.18993 27.9189 6.72754 27.3655 7.25832C26.783 7.81701 26.2385 8.51141 25.7595 9.28187C24.8034 10.8195 24.0104 12.8179 23.7278 15.0064L28.0465 15.5639C28.243 14.0417 28.8041 12.632 29.4575 11.5811C29.7831 11.0572 30.1072 10.6622 30.3796 10.401C30.681 10.1119 30.8004 10.0991 30.6988 10.1284L29.4925 5.94438ZM34.5109 13.2813C34.2972 11.8343 34.0537 10.1417 33.6517 8.87452C33.4579 8.26329 33.146 7.47081 32.5804 6.848C32.2743 6.51089 31.8399 6.1637 31.2556 5.97014C30.651 5.76985 30.0416 5.78609 29.4925 5.94438L30.6988 10.1284C30.4949 10.1872 30.2011 10.208 29.8862 10.1037C29.5917 10.0061 29.4212 9.84635 29.3568 9.77547C29.2748 9.68513 29.3581 9.74035 29.501 10.191C29.7727 11.0476 29.9695 12.3356 30.2032 13.9176L34.5109 13.2813ZM35.2098 17.0682C34.9309 16.0966 34.7325 14.7819 34.5109 13.2813L30.2032 13.9176C30.4108 15.3233 30.6483 16.9596 31.0244 18.2696L35.2098 17.0682ZM37.5685 31.7714C37.5685 31.6873 37.597 31.5549 37.7156 31.4163C37.838 31.2731 38.0955 31.0933 38.4635 31.0933V35.4478C40.6809 35.4478 41.9229 33.4701 41.9229 31.7714H37.5685ZM38.4635 32.4495C38.0955 32.4495 37.838 32.2698 37.7156 32.1266C37.597 31.9879 37.5685 31.8556 37.5685 31.7714H41.9229C41.9229 30.0727 40.6809 28.0951 38.4635 28.0951V32.4495ZM39.3586 31.7714C39.3586 31.8556 39.33 31.9879 39.2115 32.1266C39.089 32.2698 38.8315 32.4495 38.4635 32.4495V28.0951C36.2461 28.0951 35.0041 30.0727 35.0041 31.7714H39.3586ZM38.4635 31.0933C38.8315 31.0933 39.089 31.2731 39.2115 31.4163C39.33 31.5549 39.3586 31.6873 39.3586 31.7714H35.0041C35.0041 33.4701 36.2461 35.4478 38.4635 35.4478V31.0933Z" fill="#11644D" mask="url(#path-2-inside-1_548_171)"/>
</svg>
