<svg width="269" height="74" viewBox="0 0 269 74" fill="none" xmlns="http://www.w3.org/2000/svg">
<path d="M66.6724 25.32L71.9924 25.28C73.9658 25.28 74.9524 25.3067 74.9524 25.36C74.9524 21.8667 75.0058 19.32 75.1124 17.72C75.2191 16.12 75.2724 15.2933 75.2724 15.24C75.2724 15.1867 75.4591 15.0533 75.8324 14.84C76.2324 14.6267 76.7791 14.4267 77.4724 14.24C78.1658 14.0267 78.7524 13.92 79.2324 13.92C79.7391 13.92 79.9924 13.9733 79.9924 14.08C79.6991 18 79.5524 22.1867 79.5524 26.64C79.5524 31.0667 79.6858 34.36 79.9524 36.52C80.2191 38.68 80.8058 40.2133 81.7124 41.12C81.7124 41.1733 81.5791 41.3067 81.3124 41.52C81.0724 41.7333 80.4724 41.9867 79.5124 42.28C78.5791 42.5733 77.6991 42.72 76.8724 42.72L76.3924 42.64C75.8858 42.1333 75.5258 41.0933 75.3124 39.52C75.1258 37.92 75.0191 34.5733 74.9924 29.48C74.5391 29.4533 73.0858 29.44 70.6324 29.44C68.2058 29.44 66.8724 29.48 66.6324 29.56C66.6058 30.3067 66.5924 31.96 66.5924 34.52C66.5924 37.0533 66.6991 39.1733 66.9124 40.88C66.9124 41.1733 66.4858 41.4133 65.6324 41.6C64.7791 41.8133 63.9791 41.92 63.2324 41.92C62.5124 41.92 62.0724 41.84 61.9124 41.68C61.7791 41.5467 61.7124 39.1067 61.7124 34.36V29.64C61.3658 29.32 60.9658 28.7067 60.5124 27.8C60.0591 26.8933 59.8324 26.1467 59.8324 25.56C59.8324 25.48 60.4858 25.44 61.7924 25.44C61.8191 23.5467 61.8324 21.3733 61.8324 18.92V18.08C61.1391 16.8 60.7924 15.5333 60.7924 14.28C60.7924 14.1733 60.8058 14.1067 60.8324 14.08C60.9924 14.0533 61.1391 14.04 61.2724 14.04C61.4058 14.04 61.6991 14.04 62.1524 14.04C62.6324 14.04 63.2991 14.1333 64.1524 14.32C65.0058 14.48 65.6858 14.6667 66.1924 14.88C66.6991 15.0933 66.9524 15.2667 66.9524 15.4C66.7658 16.7067 66.6724 19.7467 66.6724 24.52V25.32ZM96.214 42.2C92.2407 42.2 89.294 41.0533 87.374 38.76C85.4807 36.4667 84.534 33.5867 84.534 30.12C84.534 28.44 84.734 26.8667 85.134 25.4C85.534 23.9333 85.9073 22.8933 86.254 22.28C86.6007 21.6667 86.8807 21.3067 87.094 21.2C87.3073 21.0667 88.1473 21 89.614 21H90.374C90.374 19.6667 90.6273 18.5067 91.134 17.52C91.6673 16.5333 92.3473 15.8 93.174 15.32C94.7207 14.44 96.1873 14 97.574 14C104.987 14 108.694 18.6667 108.694 28C108.694 30.9067 108.201 33.4933 107.214 35.76C106.654 37.04 105.921 38.1467 105.014 39.08C104.107 39.9867 102.894 40.7333 101.374 41.32C99.8807 41.9067 98.1607 42.2 96.214 42.2ZM103.534 27.68C103.534 21.4133 101.667 18.28 97.934 18.28C96.8673 18.28 96.0407 18.5867 95.454 19.2C94.894 19.8133 94.614 20.6 94.614 21.56C94.614 22.4933 94.9073 23.6 95.494 24.88C96.1073 26.16 96.7207 27.1733 97.334 27.92L98.214 29.04C98.214 29.36 97.7207 29.6667 96.734 29.96C95.7473 30.2267 94.9607 30.36 94.374 30.36C94.2407 30.36 93.9607 30.1067 93.534 29.6C93.134 29.0933 92.654 28.32 92.094 27.28C91.5607 26.2133 91.174 25.0933 90.934 23.92C90.534 24.32 90.214 25.1333 89.974 26.36C89.734 27.5867 89.614 28.7733 89.614 29.92C89.614 32.16 90.2407 34.08 91.494 35.68C92.7473 37.2533 94.334 38.04 96.254 38.04C101.107 38.04 103.534 34.5867 103.534 27.68ZM118.856 27.44C124.83 26.9067 127.816 25 127.816 21.72C127.816 20.6533 127.256 19.8267 126.136 19.24C125.043 18.6267 123.643 18.32 121.936 18.32L119.056 18.56C118.923 19.52 118.856 22.48 118.856 27.44ZM119.256 41.24C118.963 41.5333 118.376 41.76 117.496 41.92C116.643 42.1067 115.91 42.2 115.296 42.2C114.683 42.2 114.19 42.12 113.816 41.96L114.056 18.88C113.683 18.4533 113.323 17.7467 112.976 16.76C112.656 15.7733 112.496 15.1733 112.496 14.96C112.496 14.72 112.523 14.5733 112.576 14.52C112.656 14.44 113.51 14.36 115.136 14.28C116.79 14.1733 118.443 14.12 120.096 14.12C121.776 14.12 123.27 14.2133 124.576 14.4C125.883 14.5867 127.216 14.9333 128.576 15.44C129.963 15.92 131.056 16.68 131.856 17.72C132.683 18.7333 133.096 20.04 133.096 21.64C133.096 23.24 132.603 24.7067 131.616 26.04C130.656 27.3733 129.483 28.3867 128.096 29.08C125.216 30.5467 122.63 31.4267 120.336 31.72L118.856 31.88C118.963 37.32 119.096 40.44 119.256 41.24ZM142.864 27.44C148.838 26.9067 151.824 25 151.824 21.72C151.824 20.6533 151.264 19.8267 150.144 19.24C149.051 18.6267 147.651 18.32 145.944 18.32L143.064 18.56C142.931 19.52 142.864 22.48 142.864 27.44ZM143.264 41.24C142.971 41.5333 142.384 41.76 141.504 41.92C140.651 42.1067 139.918 42.2 139.304 42.2C138.691 42.2 138.198 42.12 137.824 41.96L138.064 18.88C137.691 18.4533 137.331 17.7467 136.984 16.76C136.664 15.7733 136.504 15.1733 136.504 14.96C136.504 14.72 136.531 14.5733 136.584 14.52C136.664 14.44 137.518 14.36 139.144 14.28C140.798 14.1733 142.451 14.12 144.104 14.12C145.784 14.12 147.278 14.2133 148.584 14.4C149.891 14.5867 151.224 14.9333 152.584 15.44C153.971 15.92 155.064 16.68 155.864 17.72C156.691 18.7333 157.104 20.04 157.104 21.64C157.104 23.24 156.611 24.7067 155.624 26.04C154.664 27.3733 153.491 28.3867 152.104 29.08C149.224 30.5467 146.638 31.4267 144.344 31.72L142.864 31.88C142.971 37.32 143.104 40.44 143.264 41.24ZM162.632 25.36L162.672 21.04C162.672 19.8933 162.645 19.2667 162.592 19.16C162.299 18.8667 161.912 18.16 161.432 17.04C160.979 15.92 160.752 15.2 160.752 14.88C161.045 14.5867 165.725 14.44 174.792 14.44C177.032 14.44 178.152 14.4933 178.152 14.6C178.152 15.16 178.019 15.7733 177.752 16.44C177.512 17.1067 177.245 17.64 176.952 18.04C176.685 18.44 176.485 18.6267 176.352 18.6C176.245 18.5467 175.699 18.52 174.712 18.52C173.752 18.52 172.405 18.5867 170.672 18.72C168.939 18.8267 167.992 18.96 167.832 19.12C167.672 19.28 167.592 20.7467 167.592 23.52L167.632 25.2C168.699 25.1733 170.272 25.16 172.352 25.16C174.432 25.16 175.472 25.2 175.472 25.28C175.472 26.24 175.152 27.3333 174.512 28.56C174.272 28.9867 174.125 29.1867 174.072 29.16C173.379 29.16 172.192 29.2267 170.512 29.36C168.832 29.4667 167.859 29.6 167.592 29.76C167.565 29.7867 167.552 30.9067 167.552 33.12C167.552 35.3333 167.619 36.5067 167.752 36.64C168.179 37.0667 170.472 37.28 174.632 37.28C176.312 37.28 177.445 37.24 178.032 37.16C178.619 37.0533 178.912 37.0133 178.912 37.04C178.912 37.68 178.699 38.44 178.272 39.32C177.845 40.2 177.392 40.8667 176.912 41.32C176.645 41.5867 174.245 41.72 169.712 41.72C165.205 41.72 162.872 41.6133 162.712 41.4C162.552 41.2667 162.472 39.9867 162.472 37.56C162.472 35.1067 162.499 32.52 162.552 29.8C162.072 29.3733 161.605 28.7067 161.152 27.8C160.725 26.8933 160.512 26.12 160.512 25.48C160.512 25.4533 161.219 25.4133 162.632 25.36ZM189.043 27.44C192.19 27.1467 194.496 26.4133 195.963 25.24C197.456 24.04 198.203 22.8667 198.203 21.72C198.203 20.5467 197.63 19.6933 196.483 19.16C195.336 18.6 193.883 18.32 192.123 18.32C191.19 18.32 190.243 18.4 189.283 18.56C189.123 19.7067 189.043 22.6667 189.043 27.44ZM189.483 41.24C189.19 41.5333 188.603 41.76 187.723 41.92C186.843 42.1067 186.11 42.2 185.523 42.2C184.936 42.2 184.43 42.12 184.003 41.96L184.243 18.88C183.896 18.4533 183.55 17.7467 183.203 16.76C182.883 15.7733 182.723 15.1733 182.723 14.96C182.723 14.72 182.75 14.5733 182.803 14.52C182.856 14.44 183.696 14.36 185.323 14.28C186.976 14.1733 188.643 14.12 190.323 14.12C192.003 14.12 193.496 14.2133 194.803 14.4C196.11 14.5867 197.47 14.92 198.883 15.4C200.296 15.8533 201.416 16.5867 202.243 17.6C203.07 18.6133 203.483 19.92 203.483 21.52C203.483 23.0933 202.923 24.56 201.803 25.92C200.683 27.28 199.163 28.4267 197.243 29.36C197.243 29.7867 198.083 31.7067 199.763 35.12C201.443 38.5067 202.776 40.6933 203.763 41.68C203.79 41.7067 203.803 41.7467 203.803 41.8C203.803 41.88 203.59 42.0133 203.163 42.2C201.99 42.76 200.723 43.04 199.363 43.04L198.363 42.96C197.776 42.3733 196.75 40.4267 195.283 37.12C193.843 33.8133 193.043 31.7867 192.883 31.04C192.563 31.2267 191.296 31.5067 189.083 31.88C189.136 37.24 189.27 40.36 189.483 41.24Z" fill="#11644D"/>
<path d="M60.7924 68.14C60.5258 68.14 60.3191 68.0667 60.1724 67.92C60.0391 67.76 59.9724 67.5467 59.9724 67.28V54.74C59.9724 54.46 60.0458 54.2533 60.1924 54.12C60.3391 53.9733 60.5458 53.9 60.8124 53.9H65.5524C67.0591 53.9 68.2191 54.2533 69.0324 54.96C69.8458 55.6667 70.2524 56.6733 70.2524 57.98C70.2524 58.8067 70.0658 59.5267 69.6924 60.14C69.3324 60.74 68.7991 61.2 68.0924 61.52C67.3858 61.8267 66.5391 61.98 65.5524 61.98L65.7524 61.72H66.1524C66.6724 61.72 67.1258 61.8533 67.5124 62.12C67.8991 62.3867 68.2524 62.8133 68.5724 63.4L70.4924 66.98C70.5991 67.1667 70.6458 67.3533 70.6324 67.54C70.6324 67.7133 70.5724 67.86 70.4524 67.98C70.3324 68.0867 70.1591 68.14 69.9324 68.14C69.7058 68.14 69.5191 68.0867 69.3724 67.98C69.2258 67.8733 69.0991 67.72 68.9924 67.52L66.8124 63.48C66.5058 62.9067 66.1524 62.5267 65.7524 62.34C65.3524 62.14 64.8258 62.04 64.1724 62.04H61.6124V67.28C61.6124 67.5467 61.5458 67.76 61.4124 67.92C61.2791 68.0667 61.0724 68.14 60.7924 68.14ZM61.6124 60.74H65.3124C66.4058 60.74 67.2324 60.5133 67.7924 60.06C68.3524 59.5933 68.6324 58.9 68.6324 57.98C68.6324 57.0867 68.3524 56.4133 67.7924 55.96C67.2324 55.4933 66.4058 55.26 65.3124 55.26H61.6124V60.74ZM76.5365 68.14C76.3232 68.14 76.1498 68.0933 76.0165 68C75.8965 67.8933 75.8232 67.76 75.7965 67.6C75.7832 67.4267 75.8232 67.2333 75.9165 67.02L81.4165 54.5C81.5365 54.2333 81.6765 54.0467 81.8365 53.94C82.0098 53.82 82.1965 53.76 82.3965 53.76C82.5965 53.76 82.7765 53.82 82.9365 53.94C83.1098 54.0467 83.2498 54.2333 83.3565 54.5L88.8765 67.02C88.9832 67.2333 89.0232 67.4267 88.9965 67.6C88.9832 67.7733 88.9165 67.9067 88.7965 68C88.6765 68.0933 88.5098 68.14 88.2965 68.14C88.0565 68.14 87.8632 68.08 87.7165 67.96C87.5698 67.8267 87.4498 67.64 87.3565 67.4L85.8765 63.98L86.6765 64.4H78.0765L78.8965 63.98L77.4365 67.4C77.3165 67.6533 77.1898 67.84 77.0565 67.96C76.9232 68.08 76.7498 68.14 76.5365 68.14ZM82.3765 55.82L79.1565 63.4L78.6765 63.02H86.0765L85.6365 63.4L82.4165 55.82H82.3765ZM96.0068 68C95.7135 68 95.4868 67.9267 95.3268 67.78C95.1801 67.62 95.1068 67.3933 95.1068 67.1V54.8C95.1068 54.5067 95.1801 54.2867 95.3268 54.14C95.4868 53.98 95.7135 53.9 96.0068 53.9H100.747C101.72 53.9 102.54 54.0467 103.207 54.34C103.887 54.62 104.407 55.0333 104.767 55.58C105.127 56.1267 105.307 56.7933 105.307 57.58C105.307 58.46 105.047 59.1933 104.527 59.78C104.02 60.3667 103.327 60.7533 102.447 60.94V60.66C103.447 60.78 104.227 61.14 104.787 61.74C105.36 62.34 105.647 63.1333 105.647 64.12C105.647 65.3733 105.24 66.3333 104.427 67C103.613 67.6667 102.467 68 100.987 68H96.0068ZM96.7068 66.68H100.827C101.893 66.68 102.693 66.4667 103.227 66.04C103.76 65.6133 104.027 64.9667 104.027 64.1C104.027 63.22 103.76 62.5733 103.227 62.16C102.693 61.7333 101.893 61.52 100.827 61.52H96.7068V66.68ZM96.7068 60.2H100.507C101.547 60.2 102.333 59.9867 102.867 59.56C103.413 59.1333 103.687 58.52 103.687 57.72C103.687 56.8933 103.413 56.2733 102.867 55.86C102.333 55.4333 101.547 55.22 100.507 55.22H96.7068V60.2ZM113.222 68C112.929 68 112.702 67.9267 112.542 67.78C112.396 67.62 112.322 67.3933 112.322 67.1V54.8C112.322 54.5067 112.396 54.2867 112.542 54.14C112.702 53.98 112.929 53.9 113.222 53.9H117.962C118.936 53.9 119.756 54.0467 120.422 54.34C121.102 54.62 121.622 55.0333 121.982 55.58C122.342 56.1267 122.522 56.7933 122.522 57.58C122.522 58.46 122.262 59.1933 121.742 59.78C121.236 60.3667 120.542 60.7533 119.662 60.94V60.66C120.662 60.78 121.442 61.14 122.002 61.74C122.576 62.34 122.862 63.1333 122.862 64.12C122.862 65.3733 122.456 66.3333 121.642 67C120.829 67.6667 119.682 68 118.202 68H113.222ZM113.922 66.68H118.042C119.109 66.68 119.909 66.4667 120.442 66.04C120.976 65.6133 121.242 64.9667 121.242 64.1C121.242 63.22 120.976 62.5733 120.442 62.16C119.909 61.7333 119.109 61.52 118.042 61.52H113.922V66.68ZM113.922 60.2H117.722C118.762 60.2 119.549 59.9867 120.082 59.56C120.629 59.1333 120.902 58.52 120.902 57.72C120.902 56.8933 120.629 56.2733 120.082 55.86C119.549 55.4333 118.762 55.22 117.722 55.22H113.922V60.2ZM130.358 68.14C130.091 68.14 129.885 68.0667 129.738 67.92C129.605 67.76 129.538 67.5467 129.538 67.28V54.62C129.538 54.34 129.605 54.1267 129.738 53.98C129.885 53.8333 130.091 53.76 130.358 53.76C130.625 53.76 130.825 53.8333 130.958 53.98C131.105 54.1267 131.178 54.34 131.178 54.62V67.28C131.178 67.5467 131.111 67.76 130.978 67.92C130.845 68.0667 130.638 68.14 130.358 68.14ZM142.655 68.14C142.401 68.14 142.201 68.0667 142.055 67.92C141.908 67.76 141.835 67.5467 141.835 67.28V55.32H137.335C137.095 55.32 136.908 55.2533 136.775 55.12C136.641 54.9867 136.575 54.8133 136.575 54.6C136.575 54.3733 136.641 54.2 136.775 54.08C136.908 53.96 137.095 53.9 137.335 53.9H147.995C148.235 53.9 148.421 53.96 148.555 54.08C148.688 54.2 148.755 54.3733 148.755 54.6C148.755 54.8267 148.688 55.0067 148.555 55.14C148.421 55.26 148.235 55.32 147.995 55.32H143.495V67.28C143.495 67.5467 143.421 67.76 143.275 67.92C143.141 68.0667 142.935 68.14 142.655 68.14ZM163.782 68.14C163.516 68.14 163.309 68.0667 163.162 67.92C163.029 67.76 162.962 67.5467 162.962 67.28V54.74C162.962 54.46 163.036 54.2533 163.182 54.12C163.329 53.9733 163.536 53.9 163.802 53.9H168.542C170.049 53.9 171.209 54.2533 172.022 54.96C172.836 55.6667 173.242 56.6733 173.242 57.98C173.242 58.8067 173.056 59.5267 172.682 60.14C172.322 60.74 171.789 61.2 171.082 61.52C170.376 61.8267 169.529 61.98 168.542 61.98L168.742 61.72H169.142C169.662 61.72 170.116 61.8533 170.502 62.12C170.889 62.3867 171.242 62.8133 171.562 63.4L173.482 66.98C173.589 67.1667 173.636 67.3533 173.622 67.54C173.622 67.7133 173.562 67.86 173.442 67.98C173.322 68.0867 173.149 68.14 172.922 68.14C172.696 68.14 172.509 68.0867 172.362 67.98C172.216 67.8733 172.089 67.72 171.982 67.52L169.802 63.48C169.496 62.9067 169.142 62.5267 168.742 62.34C168.342 62.14 167.816 62.04 167.162 62.04H164.602V67.28C164.602 67.5467 164.536 67.76 164.402 67.92C164.269 68.0667 164.062 68.14 163.782 68.14ZM164.602 60.74H168.302C169.396 60.74 170.222 60.5133 170.782 60.06C171.342 59.5933 171.622 58.9 171.622 57.98C171.622 57.0867 171.342 56.4133 170.782 55.96C170.222 55.4933 169.396 55.26 168.302 55.26H164.602V60.74ZM180.941 68C180.648 68 180.421 67.9267 180.261 67.78C180.115 67.62 180.041 67.3933 180.041 67.1V54.8C180.041 54.5067 180.115 54.2867 180.261 54.14C180.421 53.98 180.648 53.9 180.941 53.9H188.381C188.608 53.9 188.781 53.96 188.901 54.08C189.021 54.2 189.081 54.3667 189.081 54.58C189.081 54.8067 189.021 54.98 188.901 55.1C188.781 55.22 188.608 55.28 188.381 55.28H181.641V60.16H187.961C188.188 60.16 188.361 60.22 188.481 60.34C188.601 60.4467 188.661 60.6133 188.661 60.84C188.661 61.0667 188.601 61.24 188.481 61.36C188.361 61.48 188.188 61.54 187.961 61.54H181.641V66.62H188.381C188.608 66.62 188.781 66.68 188.901 66.8C189.021 66.92 189.081 67.0867 189.081 67.3C189.081 67.5267 189.021 67.7 188.901 67.82C188.781 67.94 188.608 68 188.381 68H180.941ZM199.766 68.18C199.139 68.18 198.526 68.1267 197.926 68.02C197.326 67.9133 196.766 67.76 196.246 67.56C195.739 67.36 195.279 67.1067 194.866 66.8C194.706 66.68 194.593 66.5467 194.526 66.4C194.473 66.24 194.459 66.0867 194.486 65.94C194.526 65.78 194.593 65.6467 194.686 65.54C194.793 65.4333 194.919 65.3733 195.066 65.36C195.213 65.3467 195.373 65.3933 195.546 65.5C196.146 65.9267 196.786 66.24 197.466 66.44C198.146 66.6267 198.913 66.72 199.766 66.72C200.966 66.72 201.853 66.5 202.426 66.06C203.013 65.6067 203.306 65.0133 203.306 64.28C203.306 63.68 203.093 63.2133 202.666 62.88C202.253 62.5333 201.553 62.26 200.566 62.06L198.486 61.64C197.233 61.3733 196.293 60.94 195.666 60.34C195.053 59.7267 194.746 58.9133 194.746 57.9C194.746 57.2733 194.873 56.7067 195.126 56.2C195.379 55.68 195.733 55.24 196.186 54.88C196.639 54.5067 197.179 54.22 197.806 54.02C198.433 53.82 199.126 53.72 199.886 53.72C200.726 53.72 201.506 53.84 202.226 54.08C202.959 54.3067 203.619 54.6533 204.206 55.12C204.353 55.24 204.453 55.38 204.506 55.54C204.559 55.6867 204.566 55.8333 204.526 55.98C204.486 56.1133 204.413 56.2267 204.306 56.32C204.213 56.4133 204.086 56.4667 203.926 56.48C203.779 56.4933 203.613 56.44 203.426 56.32C202.893 55.92 202.339 55.6333 201.766 55.46C201.193 55.2733 200.559 55.18 199.866 55.18C199.159 55.18 198.546 55.2867 198.026 55.5C197.519 55.7133 197.119 56.0267 196.826 56.44C196.546 56.84 196.406 57.3067 196.406 57.84C196.406 58.48 196.599 58.9867 196.986 59.36C197.386 59.7333 198.033 60.0067 198.926 60.18L201.006 60.62C202.353 60.9 203.346 61.3267 203.986 61.9C204.639 62.46 204.966 63.2267 204.966 64.2C204.966 64.7867 204.846 65.3267 204.606 65.82C204.366 66.3133 204.019 66.74 203.566 67.1C203.113 67.4467 202.566 67.7133 201.926 67.9C201.286 68.0867 200.566 68.18 199.766 68.18ZM217.311 68.18C215.924 68.18 214.737 67.8867 213.751 67.3C212.764 66.7133 212.004 65.88 211.471 64.8C210.951 63.72 210.691 62.4333 210.691 60.94C210.691 59.82 210.837 58.82 211.131 57.94C211.437 57.0467 211.871 56.2933 212.431 55.68C213.004 55.0533 213.704 54.5733 214.531 54.24C215.357 53.8933 216.284 53.72 217.311 53.72C218.137 53.72 218.924 53.84 219.671 54.08C220.417 54.3067 221.064 54.6467 221.611 55.1C221.784 55.2333 221.897 55.3867 221.951 55.56C222.017 55.72 222.024 55.88 221.971 56.04C221.931 56.1867 221.851 56.3133 221.731 56.42C221.624 56.5133 221.491 56.56 221.331 56.56C221.171 56.56 220.991 56.4933 220.791 56.36C220.311 55.9733 219.784 55.6867 219.211 55.5C218.637 55.3133 218.017 55.22 217.351 55.22C216.297 55.22 215.404 55.4467 214.671 55.9C213.937 56.34 213.384 56.9867 213.011 57.84C212.637 58.6933 212.451 59.7267 212.451 60.94C212.451 62.1533 212.637 63.1933 213.011 64.06C213.384 64.9133 213.937 65.5667 214.671 66.02C215.404 66.46 216.297 66.68 217.351 66.68C218.004 66.68 218.624 66.5867 219.211 66.4C219.797 66.2 220.337 65.9067 220.831 65.52C221.031 65.3867 221.211 65.3267 221.371 65.34C221.531 65.34 221.664 65.3867 221.771 65.48C221.877 65.5733 221.951 65.6933 221.991 65.84C222.044 65.9867 222.044 66.14 221.991 66.3C221.951 66.46 221.851 66.6 221.691 66.72C221.131 67.2 220.471 67.5667 219.711 67.82C218.964 68.06 218.164 68.18 217.311 68.18ZM233.928 68.18C232.994 68.18 232.174 68.06 231.468 67.82C230.774 67.5667 230.188 67.2 229.708 66.72C229.228 66.2267 228.868 65.62 228.628 64.9C228.388 64.18 228.268 63.3533 228.268 62.42V54.6C228.268 54.32 228.334 54.1133 228.468 53.98C228.614 53.8333 228.821 53.76 229.088 53.76C229.354 53.76 229.554 53.8333 229.688 53.98C229.834 54.1133 229.908 54.32 229.908 54.6V62.34C229.908 63.8067 230.248 64.9067 230.928 65.64C231.608 66.36 232.608 66.72 233.928 66.72C235.248 66.72 236.241 66.36 236.908 65.64C237.574 64.9067 237.908 63.8067 237.908 62.34V54.6C237.908 54.32 237.981 54.1133 238.128 53.98C238.274 53.8333 238.481 53.76 238.748 53.76C239.001 53.76 239.194 53.8333 239.328 53.98C239.474 54.1133 239.548 54.32 239.548 54.6V62.42C239.548 63.66 239.334 64.7133 238.908 65.58C238.494 66.4467 237.868 67.1 237.028 67.54C236.188 67.9667 235.154 68.18 233.928 68.18ZM247.519 68C247.225 68 246.999 67.9267 246.839 67.78C246.692 67.62 246.619 67.3933 246.619 67.1V54.8C246.619 54.5067 246.692 54.2867 246.839 54.14C246.999 53.98 247.225 53.9 247.519 53.9H254.959C255.185 53.9 255.359 53.96 255.479 54.08C255.599 54.2 255.659 54.3667 255.659 54.58C255.659 54.8067 255.599 54.98 255.479 55.1C255.359 55.22 255.185 55.28 254.959 55.28H248.219V60.16H254.539C254.765 60.16 254.939 60.22 255.059 60.34C255.179 60.4467 255.239 60.6133 255.239 60.84C255.239 61.0667 255.179 61.24 255.059 61.36C254.939 61.48 254.765 61.54 254.539 61.54H248.219V66.62H254.959C255.185 66.62 255.359 66.68 255.479 66.8C255.599 66.92 255.659 67.0867 255.659 67.3C255.659 67.5267 255.599 67.7 255.479 67.82C255.359 67.94 255.185 68 254.959 68H247.519Z" fill="#757575"/>
<mask id="path-2-inside-1_475_100" fill="white">
<path fill-rule="evenodd" clip-rule="evenodd" d="M33.1171 17.6689C33.7424 19.8473 34.3227 21.9501 34.6452 23.7105C36.5688 24.0706 38.5472 24.8523 40.4049 26.0663C46.206 29.8571 48.6332 36.4275 45.8261 40.7417C44.2206 43.2093 41.2504 44.4043 37.9164 44.2658C40.1903 46.2459 41.7351 50.121 41.7351 54.5774C41.7351 57.4177 41.1075 60.022 40.0636 62.0499C41.2975 62.634 42.1028 63.5952 42.1028 64.682C42.1028 66.4626 39.9409 67.9061 37.2742 67.9061C35.835 67.9061 34.5428 67.4856 33.6582 66.8187C32.5756 67.9376 28.7697 67.9207 24.0027 67.8995H24.0026C23.3323 67.8965 22.6429 67.8934 21.9394 67.8934C21.2359 67.8934 20.5465 67.8965 19.8762 67.8995H19.8761C14.2158 67.9246 9.91048 67.9438 9.91048 66.0625C9.91048 65.4458 10.3732 64.8633 11.1947 64.348C10.0045 63.5622 8.93083 62.6285 8.00318 61.5749C7.59524 62.5628 6.9425 63.2637 6.0897 63.5054C3.9789 64.1036 1.4418 61.6614 0.422927 58.0505C-0.595946 54.4397 0.289237 51.0276 2.40004 50.4294C3.00896 50.2569 3.65336 50.3373 4.28656 50.6259C4.8848 42.6641 11.8776 36.3813 20.416 36.3813C22.2534 36.3813 24.0191 36.6723 25.665 37.2082C23.8647 34.4968 23.2017 31.4667 23.9594 28.885C22.4654 27.4635 20.96 24.7155 20.0018 21.3772C18.4857 16.0956 18.9131 11.3365 20.9564 10.7474C22.4382 10.3202 24.363 12.2034 25.8872 15.2851C26.3662 11.5745 28.5954 8.46892 30.0957 8.03641C31.4765 7.63832 31.9096 10.5704 32.357 13.5995C32.5717 15.0526 32.7896 16.5281 33.1171 17.6689ZM38.4635 33.2705C39.1716 33.2705 39.7457 32.5994 39.7457 31.7714C39.7457 30.9435 39.1716 30.2723 38.4635 30.2723C37.7554 30.2723 37.1813 30.9435 37.1813 31.7714C37.1813 32.5994 37.7554 33.2705 38.4635 33.2705Z"/>
</mask>
<path fill-rule="evenodd" clip-rule="evenodd" d="M33.1171 17.6689C33.7424 19.8473 34.3227 21.9501 34.6452 23.7105C36.5688 24.0706 38.5472 24.8523 40.4049 26.0663C46.206 29.8571 48.6332 36.4275 45.8261 40.7417C44.2206 43.2093 41.2504 44.4043 37.9164 44.2658C40.1903 46.2459 41.7351 50.121 41.7351 54.5774C41.7351 57.4177 41.1075 60.022 40.0636 62.0499C41.2975 62.634 42.1028 63.5952 42.1028 64.682C42.1028 66.4626 39.9409 67.9061 37.2742 67.9061C35.835 67.9061 34.5428 67.4856 33.6582 66.8187C32.5756 67.9376 28.7697 67.9207 24.0027 67.8995H24.0026C23.3323 67.8965 22.6429 67.8934 21.9394 67.8934C21.2359 67.8934 20.5465 67.8965 19.8762 67.8995H19.8761C14.2158 67.9246 9.91048 67.9438 9.91048 66.0625C9.91048 65.4458 10.3732 64.8633 11.1947 64.348C10.0045 63.5622 8.93083 62.6285 8.00318 61.5749C7.59524 62.5628 6.9425 63.2637 6.0897 63.5054C3.9789 64.1036 1.4418 61.6614 0.422927 58.0505C-0.595946 54.4397 0.289237 51.0276 2.40004 50.4294C3.00896 50.2569 3.65336 50.3373 4.28656 50.6259C4.8848 42.6641 11.8776 36.3813 20.416 36.3813C22.2534 36.3813 24.0191 36.6723 25.665 37.2082C23.8647 34.4968 23.2017 31.4667 23.9594 28.885C22.4654 27.4635 20.96 24.7155 20.0018 21.3772C18.4857 16.0956 18.9131 11.3365 20.9564 10.7474C22.4382 10.3202 24.363 12.2034 25.8872 15.2851C26.3662 11.5745 28.5954 8.46892 30.0957 8.03641C31.4765 7.63832 31.9096 10.5704 32.357 13.5995C32.5717 15.0526 32.7896 16.5281 33.1171 17.6689ZM38.4635 33.2705C39.1716 33.2705 39.7457 32.5994 39.7457 31.7714C39.7457 30.9435 39.1716 30.2723 38.4635 30.2723C37.7554 30.2723 37.1813 30.9435 37.1813 31.7714C37.1813 32.5994 37.7554 33.2705 38.4635 33.2705Z" fill="#11644D"/>
<path d="M34.6452 23.7105L32.5037 24.1029L32.7735 25.5751L34.2446 25.8505L34.6452 23.7105ZM33.1171 17.6689L35.2098 17.0682L35.2098 17.0682L33.1171 17.6689ZM40.4049 26.0663L39.2139 27.8889L39.2139 27.8889L40.4049 26.0663ZM45.8261 40.7417L44.0012 39.5543L44.0012 39.5543L45.8261 40.7417ZM37.9164 44.2658L38.0067 42.0905L31.8072 41.8331L36.4866 45.9078L37.9164 44.2658ZM40.0636 62.0499L38.1278 61.0534L37.0976 63.0548L39.1321 64.0178L40.0636 62.0499ZM33.6582 66.8187L34.9689 65.0802L33.432 63.9214L32.0935 65.3047L33.6582 66.8187ZM24.0027 67.8995L24.0123 65.7223H24.0027V67.8995ZM24.0026 67.8995L23.993 70.0767H24.0026V67.8995ZM19.8762 67.8995L19.8762 70.0767L19.8858 70.0767L19.8762 67.8995ZM19.8761 67.8995L19.8761 65.7222L19.8665 65.7223L19.8761 67.8995ZM11.1947 64.348L12.3517 66.1923L15.2172 64.3947L12.3943 62.531L11.1947 64.348ZM8.00318 61.5749L9.63729 60.1362L7.32589 57.5109L5.99079 60.7439L8.00318 61.5749ZM6.0897 63.5054L5.49608 61.4107L5.49607 61.4107L6.0897 63.5054ZM2.40004 50.4294L1.80641 48.3347L1.80641 48.3347L2.40004 50.4294ZM4.28656 50.6259L3.38371 52.6071L6.22382 53.9014L6.45768 50.789L4.28656 50.6259ZM25.665 37.2082L24.9909 39.2785L30.9393 41.2155L27.4788 36.0039L25.665 37.2082ZM23.9594 28.885L26.0485 29.4981L26.4227 28.2234L25.4602 27.3076L23.9594 28.885ZM20.0018 21.3772L22.0945 20.7764L22.0945 20.7764L20.0018 21.3772ZM20.9564 10.7474L20.3533 8.65538L20.3533 8.65538L20.9564 10.7474ZM25.8872 15.2851L23.9356 16.2504L27.1253 22.6996L28.0465 15.5639L25.8872 15.2851ZM30.0957 8.03641L30.6988 10.1284L30.0957 8.03641ZM32.357 13.5995L34.5109 13.2813L34.5109 13.2813L32.357 13.5995ZM36.7868 23.318C36.4422 21.4372 35.8321 19.2362 35.2098 17.0682L31.0244 18.2696C31.6527 20.4584 32.2031 22.463 32.5037 24.1029L36.7868 23.318ZM41.5959 24.2437C39.5064 22.8782 37.2606 21.9851 35.0459 21.5704L34.2446 25.8505C35.8769 26.1562 37.588 26.8264 39.2139 27.8889L41.5959 24.2437ZM47.6511 41.9291C49.5168 39.0616 49.544 35.5882 48.3859 32.4533C47.2276 29.3177 44.8486 26.3692 41.5959 24.2437L39.2139 27.8889C41.7623 29.5542 43.4974 31.7863 44.3012 33.9622C45.1052 36.1387 44.9425 38.1076 44.0012 39.5543L47.6511 41.9291ZM37.8261 46.4412C41.6916 46.6017 45.5115 45.2174 47.6511 41.9291L44.0012 39.5543C42.9296 41.2012 40.8092 42.2068 38.0067 42.0905L37.8261 46.4412ZM43.9123 54.5774C43.9123 49.716 42.2416 45.1451 39.3462 42.6239L36.4866 45.9078C38.1391 47.3467 39.5578 50.526 39.5578 54.5774H43.9123ZM41.9994 63.0464C43.2198 60.6757 43.9123 57.7233 43.9123 54.5774H39.5578C39.5578 57.1122 38.9953 59.3683 38.1278 61.0534L41.9994 63.0464ZM44.28 64.682C44.28 62.4226 42.6362 60.8589 40.9951 60.082L39.1321 64.0178C39.5081 64.1958 39.7295 64.3907 39.8388 64.5288C39.891 64.5948 39.912 64.6401 39.9197 64.6606C39.9236 64.6709 39.9248 64.6768 39.9252 64.6787C39.9255 64.6804 39.9255 64.6811 39.9255 64.682H44.28ZM37.2742 70.0833C38.9781 70.0833 40.6191 69.6261 41.8975 68.7724C43.1611 67.9288 44.28 66.5251 44.28 64.682H39.9255C39.9255 64.6828 39.9255 64.6833 39.9254 64.6842C39.9252 64.6852 39.9247 64.6882 39.923 64.6938C39.9197 64.7044 39.9101 64.7307 39.8841 64.7718C39.8296 64.8577 39.7096 64.9974 39.4795 65.1511C39.0103 65.4643 38.237 65.7288 37.2742 65.7288V70.0833ZM32.3475 68.5572C33.6685 69.5531 35.4412 70.0833 37.2742 70.0833V65.7288C36.2287 65.7288 35.4172 65.4181 34.9689 65.0802L32.3475 68.5572ZM23.993 70.0767C26.3433 70.0871 28.5902 70.0988 30.3836 69.9571C31.2827 69.886 32.1571 69.7706 32.9236 69.5665C33.6433 69.3747 34.5422 69.0362 35.2229 68.3326L32.0935 65.3047C32.2329 65.1607 32.2501 65.2395 31.8028 65.3587C31.4022 65.4654 30.8242 65.5542 30.0406 65.6161C28.4687 65.7404 26.429 65.733 24.0123 65.7223L23.993 70.0767ZM24.0026 70.0767H24.0027V65.7223H24.0026V70.0767ZM21.9394 70.0707C22.6373 70.0707 23.3219 70.0737 23.993 70.0767L24.0123 65.7223C23.3426 65.7193 22.6485 65.7162 21.9394 65.7162V70.0707ZM19.8858 70.0767C20.5569 70.0737 21.2415 70.0707 21.9394 70.0707V65.7162C21.2303 65.7162 20.5362 65.7193 19.8665 65.7223L19.8858 70.0767ZM19.8761 70.0767H19.8762V65.7223H19.8761V70.0767ZM7.73324 66.0625C7.73324 67.5952 8.70683 68.5665 9.64728 69.068C10.4979 69.5215 11.5342 69.7332 12.4956 69.8557C14.4553 70.1053 17.1172 70.089 19.8858 70.0767L19.8665 65.7223C16.9747 65.7351 14.6538 65.7409 13.0458 65.5361C12.2233 65.4313 11.8295 65.2967 11.696 65.2255C11.6523 65.2022 12.0877 65.4705 12.0877 66.0625H7.73324ZM10.0377 62.5036C9.0405 63.1292 7.73324 64.2802 7.73324 66.0625H12.0877C12.0877 66.1865 12.0635 66.2937 12.0333 66.3737C12.0046 66.45 11.9765 66.4866 11.9775 66.4852C11.9792 66.4831 12.0036 66.452 12.0675 66.397C12.1309 66.3425 12.2232 66.273 12.3517 66.1923L10.0377 62.5036ZM6.36908 63.0137C7.4256 64.2137 8.6458 65.2741 9.99513 66.1649L12.3943 62.531C11.3632 61.8503 10.4361 61.0434 9.63729 60.1362L6.36908 63.0137ZM6.68333 65.6002C8.37981 65.1194 9.44591 63.7854 10.0156 62.406L5.99079 60.7439C5.74457 61.3401 5.50519 61.4081 5.49608 61.4107L6.68333 65.6002ZM-1.67249 58.6418C-1.07695 60.7523 -0.013118 62.6254 1.33691 63.9249C2.6433 65.1825 4.57551 66.1975 6.68333 65.6002L5.49607 61.4107C5.49309 61.4115 5.10135 61.5045 4.35678 60.7878C3.65583 60.113 2.94168 58.9595 2.51834 57.4593L-1.67249 58.6418ZM1.80641 48.3347C-0.300112 48.9316 -1.41428 50.8083 -1.86962 52.5635C-2.34031 54.3778 -2.26805 56.5311 -1.67249 58.6418L2.51834 57.4593C2.09503 55.9591 2.10044 54.6009 2.34533 53.657C2.60557 52.6538 2.98939 52.5254 2.99367 52.5242L1.80641 48.3347ZM5.18941 48.6447C4.18443 48.1867 3.00632 47.9946 1.80641 48.3347L2.99366 52.5242C3.01161 52.5191 3.1223 52.488 3.38371 52.6071L5.18941 48.6447ZM20.416 34.2041C10.8261 34.2041 2.80546 41.2796 2.11544 50.4627L6.45768 50.789C6.96415 44.0486 12.9291 38.5586 20.416 38.5586V34.2041ZM26.3392 35.138C24.4773 34.5317 22.4841 34.2041 20.416 34.2041V38.5586C22.0226 38.5586 23.5609 38.8128 24.9909 39.2785L26.3392 35.138ZM21.8703 28.2718C20.8846 31.6302 21.7991 35.322 23.8512 38.4126L27.4788 36.0039C25.9302 33.6716 25.5187 31.3033 26.0485 29.4981L21.8703 28.2718ZM17.909 21.9779C18.9235 25.512 20.5755 28.6705 22.4586 30.4623L25.4602 27.3076C24.3554 26.2564 22.9966 23.919 22.0945 20.7764L17.909 21.9779ZM20.3533 8.65538C19.0556 9.02948 18.2482 10.0069 17.782 10.9456C17.3165 11.883 17.0763 12.9889 16.9758 14.1079C16.7734 16.3608 17.0961 19.1461 17.909 21.9779L22.0945 20.7764C21.3913 18.3267 21.1696 16.0916 21.3128 14.4973C21.3851 13.6927 21.5401 13.1683 21.682 12.8826C21.8232 12.5982 21.8355 12.7599 21.5595 12.8394L20.3533 8.65538ZM27.8387 14.3199C27.0077 12.6397 26.006 11.1527 24.8943 10.1114C23.8704 9.15236 22.2323 8.11366 20.3533 8.65538L21.5595 12.8394C21.1623 12.9539 21.2276 12.6433 21.9175 13.2895C22.5196 13.8534 23.2424 14.8489 23.9356 16.2504L27.8387 14.3199ZM29.4925 5.94438C28.6408 6.18993 27.9189 6.72754 27.3655 7.25832C26.783 7.81701 26.2385 8.51141 25.7595 9.28187C24.8034 10.8195 24.0104 12.8179 23.7278 15.0064L28.0465 15.5639C28.243 14.0417 28.8041 12.632 29.4575 11.5811C29.7831 11.0572 30.1072 10.6622 30.3796 10.401C30.681 10.1119 30.8004 10.0991 30.6988 10.1284L29.4925 5.94438ZM34.5109 13.2813C34.2972 11.8343 34.0537 10.1417 33.6517 8.87452C33.4579 8.26329 33.146 7.47081 32.5804 6.848C32.2743 6.51089 31.8399 6.1637 31.2556 5.97014C30.651 5.76985 30.0416 5.78609 29.4925 5.94438L30.6988 10.1284C30.4949 10.1872 30.2011 10.208 29.8862 10.1037C29.5917 10.0061 29.4212 9.84635 29.3568 9.77547C29.2748 9.68513 29.3581 9.74035 29.501 10.191C29.7727 11.0476 29.9695 12.3356 30.2032 13.9176L34.5109 13.2813ZM35.2098 17.0682C34.9309 16.0966 34.7325 14.7819 34.5109 13.2813L30.2032 13.9176C30.4108 15.3233 30.6483 16.9596 31.0244 18.2696L35.2098 17.0682ZM37.5685 31.7714C37.5685 31.6873 37.597 31.5549 37.7156 31.4163C37.838 31.2731 38.0955 31.0933 38.4635 31.0933V35.4478C40.6809 35.4478 41.9229 33.4701 41.9229 31.7714H37.5685ZM38.4635 32.4495C38.0955 32.4495 37.838 32.2698 37.7156 32.1266C37.597 31.9879 37.5685 31.8556 37.5685 31.7714H41.9229C41.9229 30.0727 40.6809 28.0951 38.4635 28.0951V32.4495ZM39.3586 31.7714C39.3586 31.8556 39.33 31.9879 39.2115 32.1266C39.089 32.2698 38.8315 32.4495 38.4635 32.4495V28.0951C36.2461 28.0951 35.0041 30.0727 35.0041 31.7714H39.3586ZM38.4635 31.0933C38.8315 31.0933 39.089 31.2731 39.2115 31.4163C39.33 31.5549 39.3586 31.6873 39.3586 31.7714H35.0041C35.0041 33.4701 36.2461 35.4478 38.4635 35.4478V31.0933Z" fill="#11644D" mask="url(#path-2-inside-1_475_100)"/>
</svg>
