<svg width="189" height="45" viewBox="0 0 189 45" fill="none" xmlns="http://www.w3.org/2000/svg">
<path d="M43.22 15.16L45.88 15.14C46.8667 15.14 47.36 15.1533 47.36 15.18C47.36 13.4333 47.3867 12.16 47.44 11.36C47.4933 10.56 47.52 10.1467 47.52 10.12C47.52 10.0933 47.6133 10.0267 47.8 9.92C48 9.81333 48.2733 9.71333 48.62 9.62C48.9667 9.51333 49.26 9.46 49.5 9.46C49.7533 9.46 49.88 9.48667 49.88 9.54C49.7333 11.5 49.66 13.5933 49.66 15.82C49.66 18.0333 49.7267 19.68 49.86 20.76C49.9933 21.84 50.2867 22.6067 50.74 23.06C50.74 23.0867 50.6733 23.1533 50.54 23.26C50.42 23.3667 50.12 23.4933 49.64 23.64C49.1733 23.7867 48.7333 23.86 48.32 23.86L48.08 23.82C47.8267 23.5667 47.6467 23.0467 47.54 22.26C47.4467 21.46 47.3933 19.7867 47.38 17.24C47.1533 17.2267 46.4267 17.22 45.2 17.22C43.9867 17.22 43.32 17.24 43.2 17.28C43.1867 17.6533 43.18 18.48 43.18 19.76C43.18 21.0267 43.2333 22.0867 43.34 22.94C43.34 23.0867 43.1267 23.2067 42.7 23.3C42.2733 23.4067 41.8733 23.46 41.5 23.46C41.14 23.46 40.92 23.42 40.84 23.34C40.7733 23.2733 40.74 22.0533 40.74 19.68V17.32C40.5667 17.16 40.3667 16.8533 40.14 16.4C39.9133 15.9467 39.8 15.5733 39.8 15.28C39.8 15.24 40.1267 15.22 40.78 15.22C40.7933 14.2733 40.8 13.1867 40.8 11.96V11.54C40.4533 10.9 40.28 10.2667 40.28 9.64C40.28 9.58667 40.2867 9.55333 40.3 9.54C40.38 9.52667 40.4533 9.52 40.52 9.52C40.5867 9.52 40.7333 9.52 40.96 9.52C41.2 9.52 41.5333 9.56667 41.96 9.66C42.3867 9.74 42.7267 9.83333 42.98 9.94C43.2333 10.0467 43.36 10.1333 43.36 10.2C43.2667 10.8533 43.22 12.3733 43.22 14.76V15.16ZM57.9908 23.6C56.0041 23.6 54.5308 23.0267 53.5708 21.88C52.6241 20.7333 52.1508 19.2933 52.1508 17.56C52.1508 16.72 52.2508 15.9333 52.4508 15.2C52.6508 14.4667 52.8374 13.9467 53.0108 13.64C53.1841 13.3333 53.3241 13.1533 53.4308 13.1C53.5374 13.0333 53.9574 13 54.6908 13H55.0708C55.0708 12.3333 55.1974 11.7533 55.4508 11.26C55.7174 10.7667 56.0574 10.4 56.4708 10.16C57.2441 9.72 57.9774 9.5 58.6708 9.5C62.3774 9.5 64.2308 11.8333 64.2308 16.5C64.2308 17.9533 63.9841 19.2467 63.4908 20.38C63.2108 21.02 62.8441 21.5733 62.3908 22.04C61.9374 22.4933 61.3308 22.8667 60.5708 23.16C59.8241 23.4533 58.9641 23.6 57.9908 23.6ZM61.6508 16.34C61.6508 13.2067 60.7174 11.64 58.8508 11.64C58.3174 11.64 57.9041 11.7933 57.6108 12.1C57.3308 12.4067 57.1908 12.8 57.1908 13.28C57.1908 13.7467 57.3374 14.3 57.6308 14.94C57.9374 15.58 58.2441 16.0867 58.5508 16.46L58.9908 17.02C58.9908 17.18 58.7441 17.3333 58.2508 17.48C57.7574 17.6133 57.3641 17.68 57.0708 17.68C57.0041 17.68 56.8641 17.5533 56.6508 17.3C56.4508 17.0467 56.2108 16.66 55.9308 16.14C55.6641 15.6067 55.4708 15.0467 55.3508 14.46C55.1508 14.66 54.9908 15.0667 54.8708 15.68C54.7508 16.2933 54.6908 16.8867 54.6908 17.46C54.6908 18.58 55.0041 19.54 55.6308 20.34C56.2574 21.1267 57.0508 21.52 58.0108 21.52C60.4374 21.52 61.6508 19.7933 61.6508 16.34ZM69.312 16.22C72.2987 15.9533 73.792 15 73.792 13.36C73.792 12.8267 73.512 12.4133 72.952 12.12C72.4054 11.8133 71.7054 11.66 70.852 11.66L69.412 11.78C69.3454 12.26 69.312 13.74 69.312 16.22ZM69.512 23.12C69.3654 23.2667 69.072 23.38 68.632 23.46C68.2054 23.5533 67.8387 23.6 67.532 23.6C67.2254 23.6 66.9787 23.56 66.792 23.48L66.912 11.94C66.7254 11.7267 66.5454 11.3733 66.372 10.88C66.212 10.3867 66.132 10.0867 66.132 9.98C66.132 9.86 66.1454 9.78667 66.172 9.76C66.212 9.72 66.6387 9.68 67.452 9.64C68.2787 9.58667 69.1054 9.56 69.932 9.56C70.772 9.56 71.5187 9.60667 72.172 9.7C72.8254 9.79333 73.492 9.96667 74.172 10.22C74.8654 10.46 75.412 10.84 75.812 11.36C76.2254 11.8667 76.432 12.52 76.432 13.32C76.432 14.12 76.1854 14.8533 75.692 15.52C75.212 16.1867 74.6254 16.6933 73.932 17.04C72.492 17.7733 71.1987 18.2133 70.052 18.36L69.312 18.44C69.3654 21.16 69.432 22.72 69.512 23.12ZM81.3159 16.22C84.3026 15.9533 85.7959 15 85.7959 13.36C85.7959 12.8267 85.5159 12.4133 84.9559 12.12C84.4093 11.8133 83.7093 11.66 82.8559 11.66L81.4159 11.78C81.3493 12.26 81.3159 13.74 81.3159 16.22ZM81.5159 23.12C81.3693 23.2667 81.0759 23.38 80.6359 23.46C80.2093 23.5533 79.8426 23.6 79.5359 23.6C79.2293 23.6 78.9826 23.56 78.7959 23.48L78.9159 11.94C78.7293 11.7267 78.5493 11.3733 78.3759 10.88C78.2159 10.3867 78.1359 10.0867 78.1359 9.98C78.1359 9.86 78.1493 9.78667 78.1759 9.76C78.2159 9.72 78.6426 9.68 79.4559 9.64C80.2826 9.58667 81.1093 9.56 81.9359 9.56C82.7759 9.56 83.5226 9.60667 84.1759 9.7C84.8293 9.79333 85.4959 9.96667 86.1759 10.22C86.8693 10.46 87.4159 10.84 87.8159 11.36C88.2293 11.8667 88.4359 12.52 88.4359 13.32C88.4359 14.12 88.1893 14.8533 87.6959 15.52C87.2159 16.1867 86.6293 16.6933 85.9359 17.04C84.4959 17.7733 83.2026 18.2133 82.0559 18.36L81.3159 18.44C81.3693 21.16 81.4359 22.72 81.5159 23.12ZM91.1998 15.18L91.2198 13.02C91.2198 12.4467 91.2065 12.1333 91.1798 12.08C91.0332 11.9333 90.8398 11.58 90.5998 11.02C90.3732 10.46 90.2598 10.1 90.2598 9.94C90.4065 9.79333 92.7465 9.72 97.2798 9.72C98.3998 9.72 98.9598 9.74667 98.9598 9.8C98.9598 10.08 98.8932 10.3867 98.7598 10.72C98.6398 11.0533 98.5065 11.32 98.3598 11.52C98.2265 11.72 98.1265 11.8133 98.0598 11.8C98.0065 11.7733 97.7332 11.76 97.2398 11.76C96.7598 11.76 96.0865 11.7933 95.2198 11.86C94.3532 11.9133 93.8798 11.98 93.7998 12.06C93.7198 12.14 93.6798 12.8733 93.6798 14.26L93.6998 15.1C94.2332 15.0867 95.0198 15.08 96.0598 15.08C97.0998 15.08 97.6198 15.1 97.6198 15.14C97.6198 15.62 97.4598 16.1667 97.1398 16.78C97.0198 16.9933 96.9465 17.0933 96.9198 17.08C96.5732 17.08 95.9798 17.1133 95.1398 17.18C94.2998 17.2333 93.8132 17.3 93.6798 17.38C93.6665 17.3933 93.6598 17.9533 93.6598 19.06C93.6598 20.1667 93.6932 20.7533 93.7598 20.82C93.9732 21.0333 95.1198 21.14 97.1998 21.14C98.0398 21.14 98.6065 21.12 98.8998 21.08C99.1932 21.0267 99.3398 21.0067 99.3398 21.02C99.3398 21.34 99.2332 21.72 99.0198 22.16C98.8065 22.6 98.5798 22.9333 98.3398 23.16C98.2065 23.2933 97.0065 23.36 94.7398 23.36C92.4865 23.36 91.3198 23.3067 91.2398 23.2C91.1598 23.1333 91.1198 22.4933 91.1198 21.28C91.1198 20.0533 91.1332 18.76 91.1598 17.4C90.9198 17.1867 90.6865 16.8533 90.4598 16.4C90.2465 15.9467 90.1398 15.56 90.1398 15.24C90.1398 15.2267 90.4932 15.2067 91.1998 15.18ZM104.405 16.22C105.979 16.0733 107.132 15.7067 107.865 15.12C108.612 14.52 108.985 13.9333 108.985 13.36C108.985 12.7733 108.699 12.3467 108.125 12.08C107.552 11.8 106.825 11.66 105.945 11.66C105.479 11.66 105.005 11.7 104.525 11.78C104.445 12.3533 104.405 13.8333 104.405 16.22ZM104.625 23.12C104.479 23.2667 104.185 23.38 103.745 23.46C103.305 23.5533 102.939 23.6 102.645 23.6C102.352 23.6 102.099 23.56 101.885 23.48L102.005 11.94C101.832 11.7267 101.659 11.3733 101.485 10.88C101.325 10.3867 101.245 10.0867 101.245 9.98C101.245 9.86 101.259 9.78667 101.285 9.76C101.312 9.72 101.732 9.68 102.545 9.64C103.372 9.58667 104.205 9.56 105.045 9.56C105.885 9.56 106.632 9.60667 107.285 9.7C107.939 9.79333 108.619 9.96 109.325 10.2C110.032 10.4267 110.592 10.7933 111.005 11.3C111.419 11.8067 111.625 12.46 111.625 13.26C111.625 14.0467 111.345 14.78 110.785 15.46C110.225 16.14 109.465 16.7133 108.505 17.18C108.505 17.3933 108.925 18.3533 109.765 20.06C110.605 21.7533 111.272 22.8467 111.765 23.34C111.779 23.3533 111.785 23.3733 111.785 23.4C111.785 23.44 111.679 23.5067 111.465 23.6C110.879 23.88 110.245 24.02 109.565 24.02L109.065 23.98C108.772 23.6867 108.259 22.7133 107.525 21.06C106.805 19.4067 106.405 18.3933 106.325 18.02C106.165 18.1133 105.532 18.2533 104.425 18.44C104.452 21.12 104.519 22.68 104.625 23.12Z" fill="#11644D"/>
<path d="M40.792 41.098C40.6053 41.098 40.4607 41.0467 40.358 40.944C40.2647 40.832 40.218 40.6827 40.218 40.496V31.718C40.218 31.522 40.2693 31.3773 40.372 31.284C40.4747 31.1813 40.6193 31.13 40.806 31.13H44.124C45.1787 31.13 45.9907 31.3773 46.56 31.872C47.1293 32.3667 47.414 33.0713 47.414 33.986C47.414 34.5647 47.2833 35.0687 47.022 35.498C46.77 35.918 46.3967 36.24 45.902 36.464C45.4073 36.6787 44.8147 36.786 44.124 36.786L44.264 36.604H44.544C44.908 36.604 45.2253 36.6973 45.496 36.884C45.7667 37.0707 46.014 37.3693 46.238 37.78L47.582 40.286C47.6567 40.4167 47.6893 40.5473 47.68 40.678C47.68 40.7993 47.638 40.902 47.554 40.986C47.47 41.0607 47.3487 41.098 47.19 41.098C47.0313 41.098 46.9007 41.0607 46.798 40.986C46.6953 40.9113 46.6067 40.804 46.532 40.664L45.006 37.836C44.7913 37.4347 44.544 37.1687 44.264 37.038C43.984 36.898 43.6153 36.828 43.158 36.828H41.366V40.496C41.366 40.6827 41.3193 40.832 41.226 40.944C41.1327 41.0467 40.988 41.098 40.792 41.098ZM41.366 35.918H43.956C44.7213 35.918 45.3 35.7593 45.692 35.442C46.084 35.1153 46.28 34.63 46.28 33.986C46.28 33.3607 46.084 32.8893 45.692 32.572C45.3 32.2453 44.7213 32.082 43.956 32.082H41.366V35.918ZM49.9228 41.098C49.7735 41.098 49.6522 41.0653 49.5588 41C49.4748 40.9253 49.4235 40.832 49.4048 40.72C49.3955 40.5987 49.4235 40.4633 49.4888 40.314L53.3388 31.55C53.4228 31.3633 53.5208 31.2327 53.6328 31.158C53.7542 31.074 53.8848 31.032 54.0248 31.032C54.1648 31.032 54.2908 31.074 54.4028 31.158C54.5242 31.2327 54.6222 31.3633 54.6968 31.55L58.5608 40.314C58.6355 40.4633 58.6635 40.5987 58.6448 40.72C58.6355 40.8413 58.5888 40.9347 58.5048 41C58.4208 41.0653 58.3042 41.098 58.1548 41.098C57.9868 41.098 57.8515 41.056 57.7488 40.972C57.6462 40.8787 57.5622 40.748 57.4968 40.58L56.4608 38.186L57.0208 38.48H51.0008L51.5748 38.186L50.5528 40.58C50.4688 40.7573 50.3802 40.888 50.2868 40.972C50.1935 41.056 50.0722 41.098 49.9228 41.098ZM54.0108 32.474L51.7568 37.78L51.4208 37.514H56.6008L56.2928 37.78L54.0388 32.474H54.0108ZM61.6621 41C61.4567 41 61.2981 40.9487 61.1861 40.846C61.0834 40.734 61.0321 40.5753 61.0321 40.37V31.76C61.0321 31.5547 61.0834 31.4007 61.1861 31.298C61.2981 31.186 61.4567 31.13 61.6621 31.13H64.9801C65.6614 31.13 66.2354 31.2327 66.7021 31.438C67.1781 31.634 67.5421 31.9233 67.7941 32.306C68.0461 32.6887 68.1721 33.1553 68.1721 33.706C68.1721 34.322 67.9901 34.8353 67.6261 35.246C67.2714 35.6567 66.7861 35.9273 66.1701 36.058V35.862C66.8701 35.946 67.4161 36.198 67.8081 36.618C68.2094 37.038 68.4101 37.5933 68.4101 38.284C68.4101 39.1613 68.1254 39.8333 67.5561 40.3C66.9867 40.7667 66.1841 41 65.1481 41H61.6621ZM62.1521 40.076H65.0361C65.7827 40.076 66.3427 39.9267 66.7161 39.628C67.0894 39.3293 67.2761 38.8767 67.2761 38.27C67.2761 37.654 67.0894 37.2013 66.7161 36.912C66.3427 36.6133 65.7827 36.464 65.0361 36.464H62.1521V40.076ZM62.1521 35.54H64.8121C65.5401 35.54 66.0907 35.3907 66.4641 35.092C66.8467 34.7933 67.0381 34.364 67.0381 33.804C67.0381 33.2253 66.8467 32.7913 66.4641 32.502C66.0907 32.2033 65.5401 32.054 64.8121 32.054H62.1521V35.54ZM71.823 41C71.6177 41 71.459 40.9487 71.347 40.846C71.2443 40.734 71.193 40.5753 71.193 40.37V31.76C71.193 31.5547 71.2443 31.4007 71.347 31.298C71.459 31.186 71.6177 31.13 71.823 31.13H75.141C75.8223 31.13 76.3963 31.2327 76.863 31.438C77.339 31.634 77.703 31.9233 77.955 32.306C78.207 32.6887 78.333 33.1553 78.333 33.706C78.333 34.322 78.151 34.8353 77.787 35.246C77.4323 35.6567 76.947 35.9273 76.331 36.058V35.862C77.031 35.946 77.577 36.198 77.969 36.618C78.3703 37.038 78.571 37.5933 78.571 38.284C78.571 39.1613 78.2863 39.8333 77.717 40.3C77.1477 40.7667 76.345 41 75.309 41H71.823ZM72.313 40.076H75.197C75.9437 40.076 76.5037 39.9267 76.877 39.628C77.2503 39.3293 77.437 38.8767 77.437 38.27C77.437 37.654 77.2503 37.2013 76.877 36.912C76.5037 36.6133 75.9437 36.464 75.197 36.464H72.313V40.076ZM72.313 35.54H74.973C75.701 35.54 76.2517 35.3907 76.625 35.092C77.0077 34.7933 77.199 34.364 77.199 33.804C77.199 33.2253 77.0077 32.7913 76.625 32.502C76.2517 32.2033 75.701 32.054 74.973 32.054H72.313V35.54ZM81.9279 41.098C81.7413 41.098 81.5966 41.0467 81.4939 40.944C81.4006 40.832 81.3539 40.6827 81.3539 40.496V31.634C81.3539 31.438 81.4006 31.2887 81.4939 31.186C81.5966 31.0833 81.7413 31.032 81.9279 31.032C82.1146 31.032 82.2546 31.0833 82.3479 31.186C82.4506 31.2887 82.5019 31.438 82.5019 31.634V40.496C82.5019 40.6827 82.4553 40.832 82.3619 40.944C82.2686 41.0467 82.1239 41.098 81.9279 41.098ZM88.6456 41.098C88.4683 41.098 88.3283 41.0467 88.2256 40.944C88.123 40.832 88.0716 40.6827 88.0716 40.496V32.124H84.9216C84.7536 32.124 84.623 32.0773 84.5296 31.984C84.4363 31.8907 84.3896 31.7693 84.3896 31.62C84.3896 31.4613 84.4363 31.34 84.5296 31.256C84.623 31.172 84.7536 31.13 84.9216 31.13H92.3836C92.5516 31.13 92.6823 31.172 92.7756 31.256C92.869 31.34 92.9156 31.4613 92.9156 31.62C92.9156 31.7787 92.869 31.9047 92.7756 31.998C92.6823 32.082 92.5516 32.124 92.3836 32.124H89.2336V40.496C89.2336 40.6827 89.1823 40.832 89.0796 40.944C88.9863 41.0467 88.8416 41.098 88.6456 41.098ZM99.6549 41.098C99.4682 41.098 99.3236 41.0467 99.2209 40.944C99.1276 40.832 99.0809 40.6827 99.0809 40.496V31.718C99.0809 31.522 99.1322 31.3773 99.2349 31.284C99.3376 31.1813 99.4822 31.13 99.6689 31.13H102.987C104.042 31.13 104.854 31.3773 105.423 31.872C105.992 32.3667 106.277 33.0713 106.277 33.986C106.277 34.5647 106.146 35.0687 105.885 35.498C105.633 35.918 105.26 36.24 104.765 36.464C104.27 36.6787 103.678 36.786 102.987 36.786L103.127 36.604H103.407C103.771 36.604 104.088 36.6973 104.359 36.884C104.63 37.0707 104.877 37.3693 105.101 37.78L106.445 40.286C106.52 40.4167 106.552 40.5473 106.543 40.678C106.543 40.7993 106.501 40.902 106.417 40.986C106.333 41.0607 106.212 41.098 106.053 41.098C105.894 41.098 105.764 41.0607 105.661 40.986C105.558 40.9113 105.47 40.804 105.395 40.664L103.869 37.836C103.654 37.4347 103.407 37.1687 103.127 37.038C102.847 36.898 102.478 36.828 102.021 36.828H100.229V40.496C100.229 40.6827 100.182 40.832 100.089 40.944C99.9956 41.0467 99.8509 41.098 99.6549 41.098ZM100.229 35.918H102.819C103.584 35.918 104.163 35.7593 104.555 35.442C104.947 35.1153 105.143 34.63 105.143 33.986C105.143 33.3607 104.947 32.8893 104.555 32.572C104.163 32.2453 103.584 32.082 102.819 32.082H100.229V35.918ZM109.776 41C109.571 41 109.412 40.9487 109.3 40.846C109.197 40.734 109.146 40.5753 109.146 40.37V31.76C109.146 31.5547 109.197 31.4007 109.3 31.298C109.412 31.186 109.571 31.13 109.776 31.13H114.984C115.143 31.13 115.264 31.172 115.348 31.256C115.432 31.34 115.474 31.4567 115.474 31.606C115.474 31.7647 115.432 31.886 115.348 31.97C115.264 32.054 115.143 32.096 114.984 32.096H110.266V35.512H114.69C114.849 35.512 114.97 35.554 115.054 35.638C115.138 35.7127 115.18 35.8293 115.18 35.988C115.18 36.1467 115.138 36.268 115.054 36.352C114.97 36.436 114.849 36.478 114.69 36.478H110.266V40.034H114.984C115.143 40.034 115.264 40.076 115.348 40.16C115.432 40.244 115.474 40.3607 115.474 40.51C115.474 40.6687 115.432 40.79 115.348 40.874C115.264 40.958 115.143 41 114.984 41H109.776ZM121.064 41.126C120.625 41.126 120.196 41.0887 119.776 41.014C119.356 40.9393 118.964 40.832 118.6 40.692C118.245 40.552 117.923 40.3747 117.634 40.16C117.522 40.076 117.442 39.9827 117.396 39.88C117.358 39.768 117.349 39.6607 117.368 39.558C117.396 39.446 117.442 39.3527 117.508 39.278C117.582 39.2033 117.671 39.1613 117.774 39.152C117.876 39.1427 117.988 39.1753 118.11 39.25C118.53 39.5487 118.978 39.768 119.454 39.908C119.93 40.0387 120.466 40.104 121.064 40.104C121.904 40.104 122.524 39.95 122.926 39.642C123.336 39.3247 123.542 38.9093 123.542 38.396C123.542 37.976 123.392 37.6493 123.094 37.416C122.804 37.1733 122.314 36.982 121.624 36.842L120.168 36.548C119.29 36.3613 118.632 36.058 118.194 35.638C117.764 35.2087 117.55 34.6393 117.55 33.93C117.55 33.4913 117.638 33.0947 117.816 32.74C117.993 32.376 118.24 32.068 118.558 31.816C118.875 31.5547 119.253 31.354 119.692 31.214C120.13 31.074 120.616 31.004 121.148 31.004C121.736 31.004 122.282 31.088 122.786 31.256C123.299 31.4147 123.761 31.6573 124.172 31.984C124.274 32.068 124.344 32.166 124.382 32.278C124.419 32.3807 124.424 32.4833 124.396 32.586C124.368 32.6793 124.316 32.7587 124.242 32.824C124.176 32.8893 124.088 32.9267 123.976 32.936C123.873 32.9453 123.756 32.908 123.626 32.824C123.252 32.544 122.865 32.3433 122.464 32.222C122.062 32.0913 121.619 32.026 121.134 32.026C120.639 32.026 120.21 32.1007 119.846 32.25C119.491 32.3993 119.211 32.6187 119.006 32.908C118.81 33.188 118.712 33.5147 118.712 33.888C118.712 34.336 118.847 34.6907 119.118 34.952C119.398 35.2133 119.85 35.4047 120.476 35.526L121.932 35.834C122.874 36.03 123.57 36.3287 124.018 36.73C124.475 37.122 124.704 37.6587 124.704 38.34C124.704 38.7507 124.62 39.1287 124.452 39.474C124.284 39.8193 124.041 40.118 123.724 40.37C123.406 40.6127 123.024 40.7993 122.576 40.93C122.128 41.0607 121.624 41.126 121.064 41.126ZM131.455 41.126C130.484 41.126 129.653 40.9207 128.963 40.51C128.272 40.0993 127.74 39.516 127.367 38.76C127.003 38.004 126.821 37.1033 126.821 36.058C126.821 35.274 126.923 34.574 127.129 33.958C127.343 33.3327 127.647 32.8053 128.039 32.376C128.44 31.9373 128.93 31.6013 129.509 31.368C130.087 31.1253 130.736 31.004 131.455 31.004C132.033 31.004 132.584 31.088 133.107 31.256C133.629 31.4147 134.082 31.6527 134.465 31.97C134.586 32.0633 134.665 32.1707 134.703 32.292C134.749 32.404 134.754 32.516 134.717 32.628C134.689 32.7307 134.633 32.8193 134.549 32.894C134.474 32.9593 134.381 32.992 134.269 32.992C134.157 32.992 134.031 32.9453 133.891 32.852C133.555 32.5813 133.186 32.3807 132.785 32.25C132.383 32.1193 131.949 32.054 131.483 32.054C130.745 32.054 130.12 32.2127 129.607 32.53C129.093 32.838 128.706 33.2907 128.445 33.888C128.183 34.4853 128.053 35.2087 128.053 36.058C128.053 36.9073 128.183 37.6353 128.445 38.242C128.706 38.8393 129.093 39.2967 129.607 39.614C130.12 39.922 130.745 40.076 131.483 40.076C131.94 40.076 132.374 40.0107 132.785 39.88C133.195 39.74 133.573 39.5347 133.919 39.264C134.059 39.1707 134.185 39.1287 134.297 39.138C134.409 39.138 134.502 39.1707 134.577 39.236C134.651 39.3013 134.703 39.3853 134.731 39.488C134.768 39.5907 134.768 39.698 134.731 39.81C134.703 39.922 134.633 40.02 134.521 40.104C134.129 40.44 133.667 40.6967 133.135 40.874C132.612 41.042 132.052 41.126 131.455 41.126ZM141.197 41.126C140.543 41.126 139.969 41.042 139.475 40.874C138.989 40.6967 138.579 40.44 138.243 40.104C137.907 39.7587 137.655 39.334 137.487 38.83C137.319 38.326 137.235 37.7473 137.235 37.094V31.62C137.235 31.424 137.281 31.2793 137.375 31.186C137.477 31.0833 137.622 31.032 137.809 31.032C137.995 31.032 138.135 31.0833 138.229 31.186C138.331 31.2793 138.383 31.424 138.383 31.62V37.038C138.383 38.0647 138.621 38.8347 139.097 39.348C139.573 39.852 140.273 40.104 141.197 40.104C142.121 40.104 142.816 39.852 143.283 39.348C143.749 38.8347 143.983 38.0647 143.983 37.038V31.62C143.983 31.424 144.034 31.2793 144.137 31.186C144.239 31.0833 144.384 31.032 144.571 31.032C144.748 31.032 144.883 31.0833 144.977 31.186C145.079 31.2793 145.131 31.424 145.131 31.62V37.094C145.131 37.962 144.981 38.6993 144.683 39.306C144.393 39.9127 143.955 40.37 143.367 40.678C142.779 40.9767 142.055 41.126 141.197 41.126ZM148.82 41C148.615 41 148.456 40.9487 148.344 40.846C148.242 40.734 148.19 40.5753 148.19 40.37V31.76C148.19 31.5547 148.242 31.4007 148.344 31.298C148.456 31.186 148.615 31.13 148.82 31.13H154.028C154.187 31.13 154.308 31.172 154.392 31.256C154.476 31.34 154.518 31.4567 154.518 31.606C154.518 31.7647 154.476 31.886 154.392 31.97C154.308 32.054 154.187 32.096 154.028 32.096H149.31V35.512H153.734C153.893 35.512 154.014 35.554 154.098 35.638C154.182 35.7127 154.224 35.8293 154.224 35.988C154.224 36.1467 154.182 36.268 154.098 36.352C154.014 36.436 153.893 36.478 153.734 36.478H149.31V40.034H154.028C154.187 40.034 154.308 40.076 154.392 40.16C154.476 40.244 154.518 40.3607 154.518 40.51C154.518 40.6687 154.476 40.79 154.392 40.874C154.308 40.958 154.187 41 154.028 41H148.82Z" fill="#757575"/>
<mask id="path-2-inside-1_386_390" fill="white">
<path fill-rule="evenodd" clip-rule="evenodd" d="M21.5128 6.5586C21.9191 8.03627 22.296 9.46267 22.5055 10.6568C23.755 10.901 25.0402 11.4313 26.247 12.2547C30.0153 14.8261 31.592 19.2829 29.7686 22.2093C28.7256 23.8831 26.7962 24.6937 24.6305 24.5998C26.1076 25.943 27.1111 28.5715 27.1111 31.5943C27.1111 33.521 26.7034 35.2875 26.0253 36.6631C26.8268 37.0593 27.3499 37.7113 27.3499 38.4485C27.3499 39.6563 25.9456 40.6355 24.2133 40.6355C23.2784 40.6355 22.439 40.3503 21.8643 39.8979C21.1611 40.6568 18.6888 40.6454 15.5921 40.631C15.1566 40.629 14.7088 40.6269 14.2518 40.6269C13.7948 40.6269 13.347 40.629 12.9115 40.631C9.23458 40.6481 6.43784 40.661 6.43784 39.385C6.43784 38.9666 6.73843 38.5715 7.27208 38.2219C6.49894 37.6889 5.80147 37.0556 5.19887 36.3409C4.93387 37.011 4.50984 37.4865 3.95586 37.6504C2.58469 38.0562 0.93659 36.3996 0.274732 33.9503C-0.387125 31.501 0.187888 29.1865 1.55906 28.7807C1.95463 28.6637 2.37324 28.7183 2.78457 28.914C3.17317 23.5133 7.7157 19.2516 13.2622 19.2516C14.4558 19.2516 15.6028 19.4489 16.6719 19.8125C15.5024 17.9733 15.0718 15.9179 15.564 14.1667C14.5935 13.2025 13.6156 11.3384 12.9931 9.07397C12.0082 5.49138 12.2859 2.2632 13.6132 1.86361C14.5758 1.57382 15.8262 2.85132 16.8163 4.94176C17.1274 2.4247 18.5756 0.318083 19.5501 0.0247003C20.4471 -0.245337 20.7285 1.74358 21.0191 3.79824C21.1585 4.78395 21.3001 5.78479 21.5128 6.5586ZM24.9858 17.1415C25.4458 17.1415 25.8187 16.6862 25.8187 16.1246C25.8187 15.563 25.4458 15.1077 24.9858 15.1077C24.5258 15.1077 24.1529 15.563 24.1529 16.1246C24.1529 16.6862 24.5258 17.1415 24.9858 17.1415Z"/>
</mask>
<path fill-rule="evenodd" clip-rule="evenodd" d="M21.5128 6.5586C21.9191 8.03627 22.296 9.46267 22.5055 10.6568C23.755 10.901 25.0402 11.4313 26.247 12.2547C30.0153 14.8261 31.592 19.2829 29.7686 22.2093C28.7256 23.8831 26.7962 24.6937 24.6305 24.5998C26.1076 25.943 27.1111 28.5715 27.1111 31.5943C27.1111 33.521 26.7034 35.2875 26.0253 36.6631C26.8268 37.0593 27.3499 37.7113 27.3499 38.4485C27.3499 39.6563 25.9456 40.6355 24.2133 40.6355C23.2784 40.6355 22.439 40.3503 21.8643 39.8979C21.1611 40.6568 18.6888 40.6454 15.5921 40.631C15.1566 40.629 14.7088 40.6269 14.2518 40.6269C13.7948 40.6269 13.347 40.629 12.9115 40.631C9.23458 40.6481 6.43784 40.661 6.43784 39.385C6.43784 38.9666 6.73843 38.5715 7.27208 38.2219C6.49894 37.6889 5.80147 37.0556 5.19887 36.3409C4.93387 37.011 4.50984 37.4865 3.95586 37.6504C2.58469 38.0562 0.93659 36.3996 0.274732 33.9503C-0.387125 31.501 0.187888 29.1865 1.55906 28.7807C1.95463 28.6637 2.37324 28.7183 2.78457 28.914C3.17317 23.5133 7.7157 19.2516 13.2622 19.2516C14.4558 19.2516 15.6028 19.4489 16.6719 19.8125C15.5024 17.9733 15.0718 15.9179 15.564 14.1667C14.5935 13.2025 13.6156 11.3384 12.9931 9.07397C12.0082 5.49138 12.2859 2.2632 13.6132 1.86361C14.5758 1.57382 15.8262 2.85132 16.8163 4.94176C17.1274 2.4247 18.5756 0.318083 19.5501 0.0247003C20.4471 -0.245337 20.7285 1.74358 21.0191 3.79824C21.1585 4.78395 21.3001 5.78479 21.5128 6.5586ZM24.9858 17.1415C25.4458 17.1415 25.8187 16.6862 25.8187 16.1246C25.8187 15.563 25.4458 15.1077 24.9858 15.1077C24.5258 15.1077 24.1529 15.563 24.1529 16.1246C24.1529 16.6862 24.5258 17.1415 24.9858 17.1415Z" fill="#11644D"/>
<path d="M22.5055 10.6568L20.3611 11.0331L20.6196 12.5065L22.0878 12.7935L22.5055 10.6568ZM21.5128 6.5586L23.6122 5.98148V5.98148L21.5128 6.5586ZM26.247 12.2547L27.4741 10.4563L26.247 12.2547ZM29.7686 22.2093L31.6164 23.3608V23.3608L29.7686 22.2093ZM24.6305 24.5998L24.7248 22.4246L18.7154 22.1641L23.1657 26.2107L24.6305 24.5998ZM26.0253 36.6631L24.0724 35.7004L23.1107 37.6512L25.0605 38.6149L26.0253 36.6631ZM21.8643 39.8979L23.2111 38.1871L21.6327 36.9445L20.2673 38.4181L21.8643 39.8979ZM15.5921 40.631L15.582 42.8082H15.582L15.5921 40.631ZM12.9115 40.631L12.9216 42.8082H12.9216L12.9115 40.631ZM7.27208 38.2219L8.46513 40.0432L11.175 38.2681L8.50785 36.4294L7.27208 38.2219ZM5.19887 36.3409L6.86338 34.9374L4.51434 32.1515L3.17421 35.5402L5.19887 36.3409ZM3.95586 37.6504L4.57366 39.7382L4.57367 39.7382L3.95586 37.6504ZM0.274732 33.9503L2.37658 33.3823L2.37658 33.3823L0.274732 33.9503ZM1.55906 28.7807L2.17686 30.8685H2.17687L1.55906 28.7807ZM2.78457 28.914L1.84902 30.88L4.72741 32.2497L4.95619 29.0703L2.78457 28.914ZM16.6719 19.8125L15.971 21.8738L21.8295 23.8659L18.5092 18.6442L16.6719 19.8125ZM15.564 14.1667L17.66 14.7558L18.0062 13.524L17.0985 12.6221L15.564 14.1667ZM12.9931 9.07397L10.8937 9.65109V9.65109L12.9931 9.07397ZM13.6132 1.86361L12.9856 -0.221206L12.9856 -0.221206L13.6132 1.86361ZM16.8163 4.94176L14.8486 5.87373L18.0574 12.6486L18.9771 5.20887L16.8163 4.94176ZM19.5501 0.0247003L18.9225 -2.06011V-2.06011L19.5501 0.0247003ZM21.0191 3.79824L23.1749 3.49329V3.49329L21.0191 3.79824ZM24.65 10.2804C24.4201 8.97038 24.0157 7.44929 23.6122 5.98148L19.4135 7.13571C19.8224 8.62324 20.1719 9.95496 20.3611 11.0331L24.65 10.2804ZM27.4741 10.4563C26.0346 9.47402 24.4759 8.82351 22.9233 8.51997L22.0878 12.7935C23.0341 12.9786 24.0457 13.3885 25.0198 14.0531L27.4741 10.4563ZM31.6164 23.3608C32.9614 21.2023 32.9572 18.634 32.1573 16.3728C31.3551 14.1052 29.7131 11.9841 27.4741 10.4563L25.0198 14.0531C26.5492 15.0968 27.5797 16.4898 28.0521 17.825C28.5268 19.1667 28.3992 20.29 27.9207 21.0579L31.6164 23.3608ZM24.5362 26.775C27.2755 26.8938 30.0573 25.863 31.6164 23.3608L27.9207 21.0579C27.3939 21.9033 26.3169 22.4937 24.7248 22.4246L24.5362 26.775ZM29.2883 31.5943C29.2883 28.1944 28.1755 24.8806 26.0952 22.989L23.1657 26.2107C24.0396 27.0053 24.9338 28.9487 24.9338 31.5943H29.2883ZM27.9781 37.6258C28.8216 35.9147 29.2883 33.8122 29.2883 31.5943H24.9338C24.9338 33.2298 24.5852 34.6603 24.0724 35.7004L27.9781 37.6258ZM29.5272 38.4485C29.5272 36.59 28.2289 35.3237 26.99 34.7113L25.0605 38.6149C25.1335 38.651 25.1846 38.6853 25.217 38.7111C25.2497 38.737 25.2583 38.75 25.2532 38.7433C25.2476 38.7359 25.2267 38.7062 25.2072 38.6518C25.1869 38.5956 25.1727 38.5254 25.1727 38.4485H29.5272ZM24.2133 42.8127C25.4695 42.8127 26.7007 42.4612 27.6765 41.7809C28.6448 41.1058 29.5272 39.9618 29.5272 38.4485H25.1727C25.1727 38.143 25.3529 38.0925 25.186 38.2089C25.0265 38.3201 24.6893 38.4582 24.2133 38.4582V42.8127ZM20.5175 41.6086C21.5298 42.4055 22.863 42.8127 24.2133 42.8127V38.4582C23.6938 38.4582 23.3481 38.295 23.2111 38.1871L20.5175 41.6086ZM15.582 42.8082C17.0957 42.8152 18.5961 42.824 19.8048 42.7243C20.4119 42.6742 21.0377 42.5904 21.6065 42.4322C22.1331 42.2858 22.8804 42.0046 23.4614 41.3776L20.2673 38.4181C20.4966 38.1706 20.6712 38.1726 20.4397 38.237C20.2503 38.2897 19.9327 38.3445 19.4467 38.3846C18.4692 38.4652 17.1852 38.4611 15.6022 38.4538L15.582 42.8082ZM14.2518 42.8041C14.7029 42.8041 15.1458 42.8062 15.582 42.8082L15.6022 38.4538C15.1675 38.4518 14.7147 38.4497 14.2518 38.4497V42.8041ZM12.9216 42.8082C13.3578 42.8062 13.8007 42.8041 14.2518 42.8041V38.4497C13.789 38.4497 13.3362 38.4518 12.9014 38.4538L12.9216 42.8082ZM4.2606 39.385C4.2606 40.7175 5.0836 41.5831 5.87319 42.0227C6.55907 42.4045 7.35485 42.5641 8.00876 42.6511C9.351 42.8297 11.1474 42.8164 12.9216 42.8082L12.9014 38.4538C10.9987 38.4626 9.55826 38.4644 8.5829 38.3347C8.078 38.2675 7.94478 38.1922 7.99138 38.2181C8.14167 38.3018 8.61508 38.6905 8.61508 39.385H4.2606ZM6.07904 36.4007C5.34593 36.8809 4.2606 37.8462 4.2606 39.385H8.61508C8.61508 39.727 8.48546 39.9624 8.41478 40.0594C8.35588 40.1403 8.34193 40.1239 8.46513 40.0432L6.07904 36.4007ZM3.53436 37.7444C4.26188 38.6072 5.10354 39.3714 6.03632 40.0145L8.50785 36.4294C7.89434 36.0064 7.34105 35.5039 6.86338 34.9374L3.53436 37.7444ZM4.57367 39.7382C5.99304 39.3181 6.81314 38.1793 7.22353 37.1416L3.17421 35.5402C3.12022 35.6767 3.08022 35.7147 3.0945 35.6994C3.10333 35.69 3.1279 35.6659 3.17125 35.6381C3.21561 35.6096 3.27213 35.5822 3.33805 35.5627L4.57367 39.7382ZM-1.82712 34.5182C-1.41723 36.0351 -0.676398 37.4193 0.305799 38.4065C1.23771 39.3433 2.78621 40.2671 4.57366 39.7382L3.33806 35.5627C3.75434 35.4395 3.7932 35.7379 3.39281 35.3354C3.0427 34.9835 2.62855 34.3147 2.37658 33.3823L-1.82712 34.5182ZM0.941257 26.693C-0.816551 27.2131 -1.64219 28.801 -1.95849 30.0742C-2.29477 31.4278 -2.23751 32.9995 -1.82712 34.5182L2.37658 33.3823C2.12512 32.4517 2.13896 31.6416 2.26751 31.1241C2.41604 30.5263 2.5635 30.7541 2.17686 30.8685L0.941257 26.693ZM3.72012 26.948C2.92815 26.5711 1.95293 26.3936 0.941254 26.693L2.17687 30.8685C2.07927 30.8973 1.98768 30.9011 1.91873 30.8932C1.85432 30.8859 1.83011 30.871 1.84902 30.88L3.72012 26.948ZM13.2622 17.0744C6.58156 17.0744 1.08405 22.2105 0.612946 28.7577L4.95619 29.0703C5.26229 24.8161 8.84983 21.4289 13.2622 21.4289V17.0744ZM17.3728 17.7512C16.0808 17.3118 14.6971 17.0744 13.2622 17.0744V21.4289C14.2144 21.4289 15.1248 21.5861 15.971 21.8738L17.3728 17.7512ZM13.468 13.5776C12.7669 16.0719 13.4249 18.7638 14.8347 20.9808L18.5092 18.6442C17.5799 17.1828 17.3766 15.764 17.66 14.7558L13.468 13.5776ZM10.8937 9.65109C11.5669 12.1 12.6815 14.372 14.0295 15.7112L17.0985 12.6221C16.5054 12.0329 15.6642 10.5769 15.0924 8.49685L10.8937 9.65109ZM12.9856 -0.221206C11.8472 0.121495 11.196 0.99595 10.8517 1.71983C10.5031 2.45272 10.3358 3.28687 10.2668 4.0886C10.1275 5.70858 10.3505 7.67507 10.8937 9.65109L15.0924 8.49685C14.6508 6.89028 14.5202 5.45138 14.6053 4.46173C14.6486 3.95864 14.738 3.68691 14.784 3.59017C14.8343 3.48443 14.7155 3.80552 14.2408 3.94842L12.9856 -0.221206ZM18.784 4.0098C18.225 2.82971 17.5319 1.74104 16.7268 0.953568C16.0206 0.262843 14.6563 -0.724158 12.9856 -0.221206L14.2408 3.94842C13.8968 4.052 13.6307 3.9746 13.5432 3.93814C13.4775 3.91074 13.5294 3.91726 13.6821 4.06663C13.9903 4.36808 14.4174 4.96337 14.8486 5.87373L18.784 4.0098ZM18.9225 -2.06011C18.189 -1.83931 17.6128 -1.37405 17.2149 -0.975601C16.7857 -0.545738 16.3976 -0.0252861 16.0637 0.535492C15.3972 1.65478 14.8505 3.09694 14.6555 4.67466L18.9771 5.20887C19.0932 4.26953 19.4261 3.39985 19.8052 2.76321C19.994 2.44603 20.1701 2.2275 20.2962 2.1012C20.4537 1.94349 20.4239 2.0354 20.1777 2.10952L18.9225 -2.06011ZM23.1749 3.49329C23.0388 2.53122 22.8743 1.32551 22.5953 0.406926C22.4635 -0.0269145 22.2282 -0.679053 21.7601 -1.21732C21.5036 -1.51223 21.116 -1.84391 20.5706 -2.03256C19.9998 -2.23005 19.4258 -2.21162 18.9225 -2.06011L20.1777 2.10952C19.8987 2.19351 19.5298 2.21502 19.1471 2.08264C18.7899 1.9591 18.5738 1.75456 18.4744 1.64023C18.3203 1.46315 18.3417 1.38602 18.4287 1.67249C18.5873 2.19452 18.7088 3.01059 18.8633 4.10318L23.1749 3.49329ZM23.6122 5.98148C23.4444 5.37093 23.3208 4.52485 23.1749 3.49329L18.8633 4.10318C18.9963 5.04305 19.1559 6.19865 19.4135 7.13571L23.6122 5.98148ZM23.6415 16.1246C23.6415 15.9325 23.7039 15.6918 23.8904 15.464C24.0807 15.2318 24.4567 14.9642 24.9858 14.9642V19.3187C27.0344 19.3187 27.996 17.4622 27.996 16.1246H23.6415ZM24.9858 17.285C24.4567 17.285 24.0807 17.0174 23.8904 16.7852C23.7039 16.5574 23.6415 16.3167 23.6415 16.1246H27.996C27.996 14.787 27.0344 12.9305 24.9858 12.9305V17.285ZM26.3302 16.1246C26.3302 16.3167 26.2678 16.5574 26.0812 16.7852C25.891 17.0174 25.5149 17.285 24.9858 17.285V12.9305C22.9372 12.9305 21.9757 14.787 21.9757 16.1246H26.3302ZM24.9858 14.9642C25.5149 14.9642 25.891 15.2318 26.0812 15.464C26.2678 15.6918 26.3302 15.9325 26.3302 16.1246H21.9757C21.9757 17.4622 22.9372 19.3187 24.9858 19.3187V14.9642Z" fill="#11644D" mask="url(#path-2-inside-1_386_390)"/>
</svg>
