<svg>
    <symbol id="logo" width="100%" height="100%" viewBox="0 0 52 65" xmlns="http://www.w3.org/2000/svg">
        <mask id="path-1-inside-1_566_106" fill="white">
            <path fill-rule="evenodd" clip-rule="evenodd" d="M36.0124 10.4913C36.6926 12.8555 37.3236 15.1378 37.6744 17.0481C39.7657 17.439 41.9167 18.2871 43.9365 19.6041C50.2446 23.7174 52.8838 30.8466 49.8315 35.5277C48.0856 38.2052 44.8559 39.5018 41.2306 39.3516C43.7025 41.5004 45.3817 45.7045 45.3817 50.5391C45.3817 53.6205 44.6995 56.4458 43.5647 58.6461C44.9067 59.2798 45.7825 60.3228 45.7825 61.5021C45.7825 63.4342 43.4318 65.0005 40.5319 65.0005C38.9666 65.0005 37.5612 64.5441 36.5992 63.8201C35.4234 65.0352 31.284 65.0169 26.0989 64.9939L26.0939 64.9939C25.3666 64.9906 24.6184 64.9873 23.8552 64.9873C23.0921 64.9873 22.3443 64.9906 21.617 64.9939L21.6117 64.9939C15.4567 65.0212 10.7751 65.0419 10.7751 63.0007C10.7751 62.3312 11.2787 61.6989 12.1727 61.1396C10.8787 60.2869 9.71138 59.2738 8.70284 58.1307C8.25926 59.2028 7.54939 59.9636 6.62191 60.2259C4.32663 60.875 1.5678 58.225 0.459888 54.3071C-0.648028 50.3891 0.314515 46.6868 2.60979 46.0378C3.27228 45.8504 3.97339 45.9379 4.66228 46.2514C5.31277 37.6124 12.9167 30.7953 22.2014 30.7953C24.1986 30.7953 26.118 31.1107 27.9071 31.6918C25.9504 28.7504 25.23 25.4634 26.0537 22.6627C24.4287 21.1207 22.7912 18.1383 21.7489 14.5151C20.1003 8.78431 20.565 3.62043 22.7869 2.98125C24.3988 2.51755 26.4926 4.56243 28.1502 7.90813C28.6702 3.88038 31.0951 0.508936 32.7269 0.0395112C34.2285 -0.392446 34.6994 2.78907 35.1859 6.07574C35.4193 7.65242 35.6563 9.25354 36.0124 10.4913ZM41.8268 27.4204C42.5969 27.4204 43.2211 26.6921 43.2211 25.7938C43.2211 24.8954 42.5969 24.1672 41.8268 24.1672C41.0568 24.1672 40.4326 24.8954 40.4326 25.7938C40.4326 26.6921 41.0568 27.4204 41.8268 27.4204Z"/>
        </mask>
        <path fill-rule="evenodd" clip-rule="evenodd" d="M36.0124 10.4913C36.6926 12.8555 37.3236 15.1378 37.6744 17.0481C39.7657 17.439 41.9167 18.2871 43.9365 19.6041C50.2446 23.7174 52.8838 30.8466 49.8315 35.5277C48.0856 38.2052 44.8559 39.5018 41.2306 39.3516C43.7025 41.5004 45.3817 45.7045 45.3817 50.5391C45.3817 53.6205 44.6995 56.4458 43.5647 58.6461C44.9067 59.2798 45.7825 60.3228 45.7825 61.5021C45.7825 63.4342 43.4318 65.0005 40.5319 65.0005C38.9666 65.0005 37.5612 64.5441 36.5992 63.8201C35.4234 65.0352 31.284 65.0169 26.0989 64.9939L26.0939 64.9939C25.3666 64.9906 24.6184 64.9873 23.8552 64.9873C23.0921 64.9873 22.3443 64.9906 21.617 64.9939L21.6117 64.9939C15.4567 65.0212 10.7751 65.0419 10.7751 63.0007C10.7751 62.3312 11.2787 61.6989 12.1727 61.1396C10.8787 60.2869 9.71138 59.2738 8.70284 58.1307C8.25926 59.2028 7.54939 59.9636 6.62191 60.2259C4.32663 60.875 1.5678 58.225 0.459888 54.3071C-0.648028 50.3891 0.314515 46.6868 2.60979 46.0378C3.27228 45.8504 3.97339 45.9379 4.66228 46.2514C5.31277 37.6124 12.9167 30.7953 22.2014 30.7953C24.1986 30.7953 26.118 31.1107 27.9071 31.6918C25.9504 28.7504 25.23 25.4634 26.0537 22.6627C24.4287 21.1207 22.7912 18.1383 21.7489 14.5151C20.1003 8.78431 20.565 3.62043 22.7869 2.98125C24.3988 2.51755 26.4926 4.56243 28.1502 7.90813C28.6702 3.88038 31.0951 0.508936 32.7269 0.0395112C34.2285 -0.392446 34.6994 2.78907 35.1859 6.07574C35.4193 7.65242 35.6563 9.25354 36.0124 10.4913ZM41.8268 27.4204C42.5969 27.4204 43.2211 26.6921 43.2211 25.7938C43.2211 24.8954 42.5969 24.1672 41.8268 24.1672C41.0568 24.1672 40.4326 24.8954 40.4326 25.7938C40.4326 26.6921 41.0568 27.4204 41.8268 27.4204Z" mask="url(#path-1-inside-1_566_106)"/>
    </symbol>
</svg>
