<svg width="119" height="32" viewBox="0 0 119 32" fill="none" xmlns="http://www.w3.org/2000/svg">
<g clip-path="url(#clip0_369_207)">
<path d="M26.9554 1.37329H2.45051C1.0782 1.37329 0 2.42555 0 3.76486V27.6803C0 29.0196 1.0782 30.0718 2.45051 30.0718H13.7228H19.604H26.9554C28.3277 30.0718 29.4059 29.0196 29.4059 27.6803V3.76486C29.4059 2.42555 28.3277 1.37329 26.9554 1.37329ZM14.7029 29.1152V19.5491H10.7821V15.7226H14.7029V12.3744C14.7029 9.64806 16.8594 7.35218 19.6039 7.113H24.0148V10.9395H20.094C19.2608 10.9395 18.6237 11.5613 18.6237 12.3744V15.7226H23.5247V19.5491H18.6237V29.1153L14.7029 29.1152ZM28.4257 27.6803C28.4257 28.4934 27.7886 29.1152 26.9554 29.1152H19.6039V20.5056H24.5049V14.7659H19.6039V12.3744C19.6039 12.0874 19.7999 11.8961 20.094 11.8961H24.995V6.15637H19.5549C16.2713 6.44335 13.7227 9.16971 13.7227 12.3744V14.7659H9.80192V20.5056H13.7227V29.1152H2.45051C1.61732 29.1152 0.980215 28.4934 0.980215 27.6803V3.76486C0.980215 2.95171 1.61732 2.32993 2.45051 2.32993H26.9554C27.7886 2.32993 28.4257 2.95171 28.4257 3.76486L28.4257 27.6803Z" fill="white"/>
</g>
<g clip-path="url(#clip1_369_207)">
<path d="M52.089 1.28784H65.5338C69.8353 1.28784 73.3146 4.70079 73.3145 8.86917V21.9906C73.3145 26.159 69.8353 29.5719 65.5338 29.5719H52.089C47.7878 29.5719 44.3087 26.1592 44.3087 21.9906V8.86919C44.3087 4.70077 47.7878 1.28784 52.089 1.28784Z" stroke="white"/>
<path d="M51.5798 15.4303C51.5798 11.557 54.8128 8.38452 58.8116 8.38452C62.8103 8.38452 66.0433 11.557 66.0433 15.4303C66.0433 19.3033 62.8103 22.4757 58.8116 22.4757C54.8128 22.4757 51.5798 19.3033 51.5798 15.4303Z" stroke="white"/>
<path d="M65.8368 6.59792L65.8368 6.59792L65.8385 6.59621C66.1053 6.33469 66.4827 6.1814 66.8675 6.1814C67.2545 6.1814 67.6319 6.3349 67.8983 6.59613L67.8983 6.59613L67.9 6.59783C68.1673 6.85736 68.3199 7.22004 68.3199 7.58676C68.3199 7.95109 68.1677 8.3142 67.8996 8.57611C67.6295 8.83818 67.2526 8.99213 66.8675 8.99213C66.4837 8.99213 66.1053 8.83773 65.8377 8.57654C65.5685 8.31375 65.4152 7.95026 65.4152 7.58676C65.4152 7.22112 65.5687 6.85816 65.8368 6.59792Z" stroke="white"/>
</g>
<g clip-path="url(#clip2_369_207)">
<path d="M117.55 5.11958C117.55 5.11958 114.976 6.60325 113.545 7.02378C112.777 6.16192 111.757 5.55106 110.621 5.2738C109.486 4.99656 108.291 5.06629 107.197 5.4736C106.104 5.8809 105.165 6.6061 104.508 7.55112C103.85 8.49616 103.506 9.61541 103.522 10.7575V12.0021C101.281 12.0588 99.0601 11.5737 97.0576 10.5901C95.0551 9.60637 93.3329 8.15465 92.0445 6.36416C92.0445 6.36416 86.9435 17.5654 98.4208 22.5437C95.7945 24.2835 92.6658 25.156 89.494 25.0329C100.971 31.2558 114.999 25.0329 114.999 10.7202C114.998 10.3735 114.964 10.0277 114.897 9.68718C116.199 8.4345 117.55 5.11958 117.55 5.11958Z" stroke="white" stroke-linecap="round" stroke-linejoin="round"/>
</g>
<defs>
<clipPath id="clip0_369_207">
<rect width="29.4059" height="28.6986" fill="white" transform="translate(0 1.37329)"/>
</clipPath>
<clipPath id="clip1_369_207">
<rect width="30.006" height="29.2842" fill="white" transform="translate(43.8087 0.787842)"/>
</clipPath>
<clipPath id="clip2_369_207">
<rect width="30.6061" height="29.8699" fill="white" transform="translate(88.2188 1.37329)"/>
</clipPath>
</defs>
</svg>
