<svg width="160" height="42" viewBox="0 0 160 42" fill="none" xmlns="http://www.w3.org/2000/svg">
<g clip-path="url(#clip0_329_288)">
<path d="M36.4831 0.802734H3.31667C1.4593 0.802734 0 2.24549 0 4.0818V36.8722C0 38.7085 1.4593 40.1512 3.31667 40.1512H18.5733H26.5332H36.4831C38.3404 40.1512 39.7997 38.7085 39.7997 36.8722V4.0818C39.7997 2.24549 38.3404 0.802734 36.4831 0.802734ZM19.8999 38.8396V25.7235H14.5932V20.477H19.8999V15.8863C19.8999 12.1482 22.8185 9.00036 26.5331 8.67243H32.5031V13.9189H27.1964C26.0687 13.9189 25.2064 14.7714 25.2064 15.8863V20.477H31.8398V25.7235H25.2065V38.8397H19.8999V38.8396ZM38.473 36.8722C38.473 37.9871 37.6107 38.8396 36.4831 38.8396H26.5331V27.035H33.1664V19.1653H26.5331V15.8863C26.5331 15.4928 26.7984 15.2305 27.1964 15.2305H33.8298V7.36079H26.4668C22.0225 7.75427 18.5732 11.4924 18.5732 15.8863V19.1653H13.2665V27.035H18.5732V38.8396H3.31667C2.18899 38.8396 1.32668 37.9871 1.32668 36.8722V4.0818C1.32668 2.9669 2.18899 2.11438 3.31667 2.11438H36.4831C37.6108 2.11438 38.4731 2.9669 38.4731 4.0818V36.8722H38.473Z" fill="white"/>
</g>
<g clip-path="url(#clip1_329_288)">
<path d="M70.0069 0.75H88.2038C93.9778 0.75 98.6617 5.39303 98.6615 11.0803V29.071C98.6615 34.7583 93.9778 39.4013 88.2038 39.4013H70.0069C64.2334 39.4013 59.5497 34.7585 59.5497 29.071V11.0803C59.5497 5.39299 64.2334 0.75 70.0069 0.75Z" stroke="white" stroke-width="1.5"/>
<path d="M69.391 20.0761C69.391 14.7935 73.7414 10.4801 79.1056 10.4801C84.4697 10.4801 88.8202 14.7935 88.8202 20.0761C88.8202 25.3584 84.4698 29.6716 79.1056 29.6716C73.7414 29.6716 69.391 25.3584 69.391 20.0761Z" stroke="white" stroke-width="1.5"/>
<path d="M88.6685 8.00897L88.6685 8.00897L88.6711 8.00639C89.0188 7.66103 89.51 7.45947 90.0091 7.45947C90.511 7.45947 91.0022 7.66135 91.3494 8.00626L91.3494 8.00627L91.352 8.00884C91.7006 8.35177 91.9015 8.83339 91.9015 9.32191C91.9015 9.80704 91.7013 10.2893 91.3514 10.6356C90.9989 10.982 90.5081 11.1843 90.0091 11.1843C89.5115 11.1843 89.019 10.9814 88.6699 10.6363C88.3183 10.2887 88.1167 9.80581 88.1167 9.32191C88.1167 8.83499 88.3186 8.35297 88.6685 8.00897Z" stroke="white" stroke-width="1.5"/>
</g>
<path d="M158.11 5.93916C158.11 5.93916 154.627 7.97343 152.69 8.55001C151.651 7.36832 150.269 6.53077 148.732 6.15062C147.196 5.7705 145.578 5.86611 144.098 6.42456C142.618 6.98301 141.348 7.97733 140.458 9.27305C139.568 10.5688 139.103 12.1034 139.124 13.6693V15.3758C136.091 15.4535 133.085 14.7884 130.375 13.4397C127.664 12.091 125.334 10.1005 123.59 7.6456C123.59 7.6456 116.686 23.0036 132.22 29.8294C128.665 32.2148 124.431 33.411 120.138 33.2423C135.672 41.7745 154.658 33.2423 154.658 13.6181C154.656 13.1428 154.61 12.6687 154.52 12.2018C156.281 10.4842 158.11 5.93916 158.11 5.93916Z" stroke="white" stroke-width="1.5" stroke-linecap="round" stroke-linejoin="round"/>
<defs>
<clipPath id="clip0_329_288">
<rect width="39.7997" height="39.3485" fill="white" transform="translate(0 0.802734)"/>
</clipPath>
<clipPath id="clip1_329_288">
<rect width="40.612" height="40.1515" fill="white" transform="translate(58.7997)"/>
</clipPath>
</defs>
</svg>
