<!-- credit: (MIT licence) https://www.svgrepo.com/svg/389481/twitter (modified) -->
<svg>
    <symbol id="twitter" width="100%" height="100%" viewBox="0 0 40 33" fill="none" xmlns="http://www.w3.org/2000/svg">
        <path d="M39.1099 0.939284C39.1099 0.939284 35.627 2.97355 33.6902 3.55014C32.6507 2.36844 31.2692 1.53089 29.7325 1.15075C28.1958 0.77062 26.5782 0.866231 25.0983 1.42468C23.6185 1.98313 22.3476 2.97746 21.458 4.27317C20.5683 5.56891 20.1026 7.10351 20.1238 8.66946V10.3759C17.0905 10.4536 14.085 9.78856 11.3747 8.43984C8.66439 7.09112 6.33355 5.10066 4.58973 2.64572C4.58973 2.64572 -2.31431 18.0037 13.2198 24.8295C9.66511 27.2149 5.43057 28.4112 1.13771 28.2424C16.6718 36.7746 35.6579 28.2424 35.6579 8.61826C35.6563 8.14293 35.6101 7.66878 35.5198 7.20192C37.2814 5.48437 39.1099 0.939284 39.1099 0.939284Z" 
            stroke-linecap="round" stroke-linejoin="round"/>
    </symbol>
</svg>
