<!-- credit: https://www.svgrepo.com/svg/18735/class-open-door (modified)-->
<svg>
    <symbol id="visit-us" width="100%" height="100%" viewBox="0 0 86 104" fill="none" xmlns="http://www.w3.org/2000/svg">
        <mask id="path-1-inside-1_551_98">
        <path fill-rule="evenodd" clip-rule="evenodd" d="M32.9656 70.6127H39.1411L38.7162 74.6784V91.6675H44.7683V74.6784H48.7677V91.6675H54.8199V74.6784L54.4018 70.6127H58.5876L59.8713 66.7383L56.9275 55.9668L50.8719 54.9173C50.8719 54.9173 49.717 58.3362 46.5298 58.521C43.353 58.6992 42.1535 54.9173 42.1535 54.9173L37.0472 56.0856L32.9484 66.7416L32.9656 70.6127Z"/>
        <path fill-rule="evenodd" clip-rule="evenodd" d="M24.2129 3.83144V7.93349L0.734192 0V104L31.7284 96.0005V92.6872V66.7416V10.1545L29.4254 9.47465V8.85752H80.0498V24.7443C79.4055 24.609 78.751 24.4803 78.0621 24.4803C72.5651 24.4803 68.0997 28.7837 68.0997 34.0869C68.0997 39.3869 72.5686 43.687 78.0621 43.687C78.751 43.687 79.4055 43.5583 80.0498 43.4263V47.2907L78.2437 49.3731L74.4466 45.1325L65.6493 46.6043V63.8276H68.7885L68.9839 67.4149H69.6144V69.5962V71.21V88.298H68.9324L64.9297 89.1363V92.6872H68.3361L72.3081 92.0668L72.3458 92.6872H76.7564V88.7369V88.298V71.21H79.2616V88.298V88.7369V92.6872H80.0532V95.9543H85.2658V3.83144H24.2129ZM5.95701 52.6105C5.95701 54.6005 7.37924 56.211 9.13046 56.211C10.8851 56.211 12.3073 54.6005 12.3073 52.6105C12.3073 50.6206 10.8851 49.0101 9.13046 49.0101C7.37924 49.0101 5.95701 50.6206 5.95701 52.6105Z"/>
        </mask>
        <path fill-rule="evenodd" clip-rule="evenodd" d="M32.9656 70.6127H39.1411L38.7162 74.6784V91.6675H44.7683V74.6784H48.7677V91.6675H54.8199V74.6784L54.4018 70.6127H58.5876L59.8713 66.7383L56.9275 55.9668L50.8719 54.9173C50.8719 54.9173 49.717 58.3362 46.5298 58.521C43.353 58.6992 42.1535 54.9173 42.1535 54.9173L37.0472 56.0856L32.9484 66.7416L32.9656 70.6127Z" 
         mask="url(#path-1-inside-1_551_98)"/>
        <path fill-rule="evenodd" clip-rule="evenodd" d="M24.2129 3.83144V7.93349L0.734192 0V104L31.7284 96.0005V92.6872V66.7416V10.1545L29.4254 9.47465V8.85752H80.0498V24.7443C79.4055 24.609 78.751 24.4803 78.0621 24.4803C72.5651 24.4803 68.0997 28.7837 68.0997 34.0869C68.0997 39.3869 72.5686 43.687 78.0621 43.687C78.751 43.687 79.4055 43.5583 80.0498 43.4263V47.2907L78.2437 49.3731L74.4466 45.1325L65.6493 46.6043V63.8276H68.7885L68.9839 67.4149H69.6144V69.5962V71.21V88.298H68.9324L64.9297 89.1363V92.6872H68.3361L72.3081 92.0668L72.3458 92.6872H76.7564V88.7369V88.298V71.21H79.2616V88.298V88.7369V92.6872H80.0532V95.9543H85.2658V3.83144H24.2129ZM5.95701 52.6105C5.95701 54.6005 7.37924 56.211 9.13046 56.211C10.8851 56.211 12.3073 54.6005 12.3073 52.6105C12.3073 50.6206 10.8851 49.0101 9.13046 49.0101C7.37924 49.0101 5.95701 50.6206 5.95701 52.6105Z" 
         mask="url(#path-1-inside-1_551_98)"/>
        <path d="M54 44C54 47.8097 50.7001 51 46.5 51C42.2999 51 39 47.8097 39 44C39 40.1903 42.2999 37 46.5 37C50.7001 37 54 40.1903 54 44Z" 
       />
    </symbol>
</svg>
