<!-- credit: https://www.svgrepo.com/svg/76123/voluntary-service  -->
<svg>
    <symbol id="volunteer" width="100%" height="100%" viewBox="0 0 103 103" xmlns="http://www.w3.org/2000/svg">
        <path d="M51.5 26.4991C52.4079 26.4991 53.1436 25.7632 53.1436 24.8554V1.64362C53.1436 0.735902 52.4079 0 51.5 0C50.5921 0 49.8564 0.735902 49.8564 1.64362V24.8554C49.8564 25.7634 50.5921 26.4991 51.5 26.4991Z"/>
        <path d="M58.0832 26.4991C58.9911 26.4991 59.7268 25.7632 59.7268 24.8554V1.64362C59.7268 0.735902 58.9911 0 58.0832 0C57.1753 0 56.4396 0.735902 56.4396 1.64362V24.8554C56.4396 25.7634 57.1753 26.4991 58.0832 26.4991Z"/>
        <path d="M46.5604 30.2096V6.4184C46.5604 5.51068 45.8247 4.77478 44.9167 4.77478C44.0088 4.77478 43.2731 5.51068 43.2731 6.4184V31.7308C43.2731 32.6385 44.0088 33.3744 44.9167 33.3744C49.1717 33.3744 52.6336 36.8365 52.6336 41.0919C52.6336 41.9996 53.3693 42.7355 54.2773 42.7355C55.1852 42.7355 55.9209 41.9996 55.9209 41.0919C55.9209 35.5823 51.8513 31.0054 46.5604 30.2096Z"/>
        <path d="M64.6664 7.16223C63.7585 7.16223 63.0228 7.89813 63.0228 8.80585V36.3419C63.0228 40.4428 60.8149 44.2679 57.2607 46.3239C56.4751 46.7784 56.2064 47.7841 56.6611 48.5698C56.966 49.0964 57.5178 49.3907 58.0854 49.3907C58.3646 49.3907 58.6477 49.3192 58.907 49.1696C59.0387 49.0933 59.1686 49.0149 59.2973 48.9349V101.356C59.2973 102.264 60.033 103 60.9409 103C61.8488 103 62.5845 102.264 62.5845 101.356V46.1552C64.9445 43.4813 66.3101 39.9975 66.3101 36.3419V8.80585C66.3101 7.89813 65.5744 7.16223 64.6664 7.16223Z"/>
        <path d="M45.7392 46.3239C42.185 44.2678 39.9771 40.443 39.9771 36.3419V18.4146C39.9771 17.5069 39.2414 16.771 38.3335 16.771C37.4256 16.771 36.6899 17.5069 36.6899 18.4146V36.3419C36.6899 41.2892 39.1893 45.9233 43.2725 48.658V101.356C43.2725 102.264 44.0081 103 44.9161 103C45.824 103 46.5597 102.264 46.5597 101.356V47.7468C46.5597 47.1599 46.247 46.6178 45.7392 46.3239Z"/>
        <path d="M18.5836 53.3522C19.4915 53.3522 20.2272 52.6163 20.2272 51.7086V28.4968C20.2272 27.5891 19.4915 26.8531 18.5836 26.8531C17.6756 26.8531 16.9399 27.5891 16.9399 28.4968V51.7086C16.9399 52.6163 17.6756 53.3522 18.5836 53.3522Z"/>
        <path d="M25.1668 53.3522C26.0747 53.3522 26.8104 52.6163 26.8104 51.7086V28.4968C26.8104 27.5891 26.0747 26.8531 25.1668 26.8531C24.2589 26.8531 23.5232 27.5891 23.5232 28.4968V51.7086C23.5232 52.6163 24.2589 53.3522 25.1668 53.3522Z"/>
        <path d="M13.644 57.0627V33.2717C13.644 32.364 12.9083 31.6281 12.0004 31.6281C11.0924 31.6281 10.3568 32.364 10.3568 33.2717V58.5838C10.3568 59.4915 11.0924 60.2274 12.0004 60.2274C16.2554 60.2274 19.7173 63.6895 19.7173 67.945C19.7173 68.8527 20.4529 69.5886 21.3609 69.5886C22.2688 69.5886 23.0045 68.8527 23.0045 67.945C23.0045 62.4356 18.9347 57.8586 13.644 57.0627Z"/>
        <path d="M31.7501 34.0154C30.8421 34.0154 30.1064 34.7513 30.1064 35.659V63.1951C30.1064 67.296 27.8985 71.121 24.3444 73.1771C23.5587 73.6316 23.29 74.637 23.7448 75.4229C24.0496 75.9495 24.6014 76.2438 25.169 76.2438C25.4482 76.2438 25.7314 76.1724 25.9906 76.0225C26.1223 75.9462 26.2523 75.8678 26.3809 75.7878V101.356C26.3809 102.264 27.1166 103 28.0245 103C28.9325 103 29.6681 102.264 29.6681 101.356V73.0081C32.0282 70.3345 33.3937 66.8505 33.3937 63.1951V35.659C33.3937 34.7513 32.6578 34.0154 31.7501 34.0154Z"/>
        <path d="M12.8228 73.1773C9.26866 71.121 7.06073 67.2962 7.06073 63.1953V45.268C7.06073 44.3603 6.32505 43.6244 5.41712 43.6244C4.50918 43.6244 3.7735 44.3603 3.7735 45.268V63.1953C3.7735 68.1423 6.27289 72.7765 10.3561 75.5112V101.356C10.3561 102.264 11.0918 103 11.9997 103C12.9076 103 13.6433 102.264 13.6433 101.356V74.5998C13.6433 74.0131 13.3306 73.4709 12.8228 73.1773Z"/>
        <path d="M84.4164 40.2033C85.3243 40.2033 86.06 39.4674 86.06 38.5597V15.3478C86.06 14.4401 85.3243 13.7042 84.4164 13.7042C83.5084 13.7042 82.7728 14.4401 82.7728 15.3478V38.5597C82.7728 39.4674 83.5087 40.2033 84.4164 40.2033Z"/>
        <path d="M77.8331 13.7042C76.9252 13.7042 76.1895 14.4401 76.1895 15.3478V38.5597C76.1895 39.4674 76.9252 40.2033 77.8331 40.2033C78.7411 40.2033 79.4767 39.4674 79.4767 38.5597V15.3478C79.4767 14.4401 78.7411 13.7042 77.8331 13.7042Z"/>
        <path d="M92.6432 45.4349V20.1227C92.6432 19.215 91.9075 18.4791 90.9996 18.4791C90.0917 18.4791 89.356 19.215 89.356 20.1227V43.914C84.0651 44.7097 79.9955 49.2869 79.9955 54.7963C79.9955 55.704 80.7312 56.4399 81.6391 56.4399C82.547 56.4399 83.2827 55.704 83.2827 54.7963C83.2827 50.5408 86.7446 47.0787 90.9996 47.0787C91.9075 47.0785 92.6432 46.3426 92.6432 45.4349Z"/>
        <path d="M78.6556 60.0284C75.1014 57.9721 72.8935 54.1473 72.8935 50.0464V22.5103C72.8935 21.6026 72.1578 20.8667 71.2499 20.8667C70.3419 20.8667 69.6063 21.6026 69.6063 22.5103V50.0464C69.6063 53.7018 70.9718 57.1858 73.3318 59.8594V101.356C73.3318 102.264 74.0675 103 74.9754 103C75.8833 103 76.619 102.264 76.619 101.356V62.6389C76.7479 62.7189 76.8776 62.7973 77.0093 62.8736C77.2686 63.0237 77.5517 63.0949 77.8309 63.0949C78.3985 63.0949 78.9503 62.8006 79.2552 62.274C79.7099 61.4884 79.4412 60.4829 78.6556 60.0284Z"/>
        <path d="M97.5828 30.4753C96.6749 30.4753 95.9392 31.2112 95.9392 32.119V50.0462C95.9392 54.1472 93.7313 57.9722 90.1771 60.0282C89.6694 60.3219 89.3566 60.8641 89.3566 61.451V101.356C89.3566 102.264 90.0923 103 91.0002 103C91.9082 103 92.6439 102.264 92.6439 101.356V62.3622C96.727 59.6274 99.2264 54.9933 99.2264 50.0462V32.119C99.2264 31.2112 98.4908 30.4753 97.5828 30.4753Z"/>
    </symbol>
</svg>
