<svg width="565" height="99" viewBox="0 0 565 99" fill="none" xmlns="http://www.w3.org/2000/svg">
<rect width="565" height="99" fill="white"/>
<rect x="13" y="14" width="70" height="70" rx="5" fill="#002211"/>
<path d="M25.1761 77L26.608 68.2727H27.4602L26.0284 77H25.1761ZM21.2045 74.5795L21.3409 73.7273H27.8523L27.7159 74.5795H21.2045ZM22.108 77L23.5398 68.2727H24.392L22.9602 77H22.108ZM21.7159 71.5455L21.8523 70.6932H28.3636L28.2273 71.5455H21.7159ZM32.3203 77.1193C31.6783 77.1193 31.1314 76.9446 30.6797 76.5952C30.228 76.2429 29.8828 75.733 29.6442 75.0653C29.4055 74.3949 29.2862 73.5852 29.2862 72.6364C29.2862 71.6932 29.4055 70.8878 29.6442 70.2202C29.8857 69.5497 30.2322 69.0384 30.6839 68.6861C31.1385 68.331 31.6839 68.1534 32.3203 68.1534C32.9567 68.1534 33.5007 68.331 33.9524 68.6861C34.407 69.0384 34.7536 69.5497 34.9922 70.2202C35.2337 70.8878 35.3544 71.6932 35.3544 72.6364C35.3544 73.5852 35.2351 74.3949 34.9964 75.0653C34.7578 75.733 34.4126 76.2429 33.9609 76.5952C33.5092 76.9446 32.9624 77.1193 32.3203 77.1193ZM32.3203 76.1818C32.9567 76.1818 33.451 75.875 33.8033 75.2614C34.1555 74.6477 34.3317 73.7727 34.3317 72.6364C34.3317 71.8807 34.2507 71.2372 34.0888 70.706C33.9297 70.1747 33.6996 69.7699 33.3984 69.4915C33.1001 69.2131 32.7408 69.0739 32.3203 69.0739C31.6896 69.0739 31.1967 69.3849 30.8416 70.0071C30.4865 70.6264 30.3089 71.5028 30.3089 72.6364C30.3089 73.392 30.3885 74.0341 30.5476 74.5625C30.7067 75.0909 30.9354 75.4929 31.2337 75.7685C31.5348 76.044 31.897 76.1818 32.3203 76.1818ZM39.8203 77.1193C39.1783 77.1193 38.6314 76.9446 38.1797 76.5952C37.728 76.2429 37.3828 75.733 37.1442 75.0653C36.9055 74.3949 36.7862 73.5852 36.7862 72.6364C36.7862 71.6932 36.9055 70.8878 37.1442 70.2202C37.3857 69.5497 37.7322 69.0384 38.1839 68.6861C38.6385 68.331 39.1839 68.1534 39.8203 68.1534C40.4567 68.1534 41.0007 68.331 41.4524 68.6861C41.907 69.0384 42.2536 69.5497 42.4922 70.2202C42.7337 70.8878 42.8544 71.6932 42.8544 72.6364C42.8544 73.5852 42.7351 74.3949 42.4964 75.0653C42.2578 75.733 41.9126 76.2429 41.4609 76.5952C41.0092 76.9446 40.4624 77.1193 39.8203 77.1193ZM39.8203 76.1818C40.4567 76.1818 40.951 75.875 41.3033 75.2614C41.6555 74.6477 41.8317 73.7727 41.8317 72.6364C41.8317 71.8807 41.7507 71.2372 41.5888 70.706C41.4297 70.1747 41.1996 69.7699 40.8984 69.4915C40.6001 69.2131 40.2408 69.0739 39.8203 69.0739C39.1896 69.0739 38.6967 69.3849 38.3416 70.0071C37.9865 70.6264 37.8089 71.5028 37.8089 72.6364C37.8089 73.392 37.8885 74.0341 38.0476 74.5625C38.2067 75.0909 38.4354 75.4929 38.7337 75.7685C39.0348 76.044 39.397 76.1818 39.8203 76.1818ZM44.4737 77V76.233L47.3544 73.0795C47.6925 72.7102 47.9709 72.3892 48.1896 72.1165C48.4084 71.8409 48.5703 71.5824 48.6754 71.3409C48.7834 71.0966 48.8374 70.8409 48.8374 70.5739C48.8374 70.267 48.7635 70.0014 48.6158 69.777C48.4709 69.5526 48.272 69.3793 48.0192 69.2571C47.7663 69.1349 47.4822 69.0739 47.1669 69.0739C46.8317 69.0739 46.5391 69.1435 46.2891 69.2827C46.0419 69.419 45.8501 69.6108 45.7138 69.858C45.5803 70.1051 45.5135 70.3949 45.5135 70.7273H44.5078C44.5078 70.2159 44.6257 69.767 44.8615 69.3807C45.0973 68.9943 45.4183 68.6932 45.8246 68.4773C46.2337 68.2614 46.6925 68.1534 47.201 68.1534C47.7124 68.1534 48.1655 68.2614 48.5604 68.4773C48.9553 68.6932 49.2649 68.9844 49.4893 69.3509C49.7138 69.7173 49.826 70.125 49.826 70.5739C49.826 70.8949 49.7678 71.2088 49.6513 71.5156C49.5376 71.8196 49.3388 72.1591 49.0547 72.5341C48.7734 72.9062 48.3828 73.3608 47.8828 73.8977L45.9226 75.9943V76.0625H49.9794V77H44.4737ZM51.7393 77V76.233L54.62 73.0795C54.9581 72.7102 55.2365 72.3892 55.4553 72.1165C55.674 71.8409 55.8359 71.5824 55.9411 71.3409C56.049 71.0966 56.103 70.8409 56.103 70.5739C56.103 70.267 56.0291 70.0014 55.8814 69.777C55.7365 69.5526 55.5376 69.3793 55.2848 69.2571C55.032 69.1349 54.7479 69.0739 54.4325 69.0739C54.0973 69.0739 53.8047 69.1435 53.5547 69.2827C53.3075 69.419 53.1158 69.6108 52.9794 69.858C52.8459 70.1051 52.7791 70.3949 52.7791 70.7273H51.7734C51.7734 70.2159 51.8913 69.767 52.1271 69.3807C52.3629 68.9943 52.6839 68.6932 53.0902 68.4773C53.4993 68.2614 53.9581 68.1534 54.4666 68.1534C54.978 68.1534 55.4311 68.2614 55.826 68.4773C56.2209 68.6932 56.5305 68.9844 56.755 69.3509C56.9794 69.7173 57.0916 70.125 57.0916 70.5739C57.0916 70.8949 57.0334 71.2088 56.9169 71.5156C56.8033 71.8196 56.6044 72.1591 56.3203 72.5341C56.0391 72.9062 55.6484 73.3608 55.1484 73.8977L53.1882 75.9943V76.0625H57.245V77H51.7393ZM62.0732 68.2727V77H61.0163V69.3807H60.9652L58.8345 70.7955V69.7216L61.0163 68.2727H62.0732ZM67.6513 68.2727V77H66.5945V69.3807H66.5433L64.4126 70.7955V69.7216L66.5945 68.2727H67.6513Z" fill="white"/>
<rect x="91" y="14" width="70" height="70" rx="5" fill="#0A4031"/>
<path d="M104.176 77L105.608 68.2727H106.46L105.028 77H104.176ZM100.205 74.5795L100.341 73.7273H106.852L106.716 74.5795H100.205ZM101.108 77L102.54 68.2727H103.392L101.96 77H101.108ZM100.716 71.5455L100.852 70.6932H107.364L107.227 71.5455H100.716ZM111.32 77.1193C110.678 77.1193 110.131 76.9446 109.68 76.5952C109.228 76.2429 108.883 75.733 108.644 75.0653C108.406 74.3949 108.286 73.5852 108.286 72.6364C108.286 71.6932 108.406 70.8878 108.644 70.2202C108.886 69.5497 109.232 69.0384 109.684 68.6861C110.138 68.331 110.684 68.1534 111.32 68.1534C111.957 68.1534 112.501 68.331 112.952 68.6861C113.407 69.0384 113.754 69.5497 113.992 70.2202C114.234 70.8878 114.354 71.6932 114.354 72.6364C114.354 73.5852 114.235 74.3949 113.996 75.0653C113.758 75.733 113.413 76.2429 112.961 76.5952C112.509 76.9446 111.962 77.1193 111.32 77.1193ZM111.32 76.1818C111.957 76.1818 112.451 75.875 112.803 75.2614C113.156 74.6477 113.332 73.7727 113.332 72.6364C113.332 71.8807 113.251 71.2372 113.089 70.706C112.93 70.1747 112.7 69.7699 112.398 69.4915C112.1 69.2131 111.741 69.0739 111.32 69.0739C110.69 69.0739 110.197 69.3849 109.842 70.0071C109.487 70.6264 109.309 71.5028 109.309 72.6364C109.309 73.392 109.388 74.0341 109.548 74.5625C109.707 75.0909 109.935 75.4929 110.234 75.7685C110.535 76.044 110.897 76.1818 111.32 76.1818ZM116.485 77H115.377L118.582 68.2727H119.673L122.877 77H121.769L119.161 69.6534H119.093L116.485 77ZM116.894 73.5909H121.36V74.5284H116.894V73.5909ZM123.879 75.2102V74.3409L127.714 68.2727H128.344V69.6193H127.918L125.021 74.2045V74.2727H130.185V75.2102H123.879ZM127.987 77V74.946V74.5412V68.2727H128.992V77H127.987ZM134.629 77.1193C133.987 77.1193 133.44 76.9446 132.988 76.5952C132.537 76.2429 132.191 75.733 131.953 75.0653C131.714 74.3949 131.595 73.5852 131.595 72.6364C131.595 71.6932 131.714 70.8878 131.953 70.2202C132.194 69.5497 132.541 69.0384 132.993 68.6861C133.447 68.331 133.993 68.1534 134.629 68.1534C135.265 68.1534 135.809 68.331 136.261 68.6861C136.716 69.0384 137.062 69.5497 137.301 70.2202C137.542 70.8878 137.663 71.6932 137.663 72.6364C137.663 73.5852 137.544 74.3949 137.305 75.0653C137.066 75.733 136.721 76.2429 136.27 76.5952C135.818 76.9446 135.271 77.1193 134.629 77.1193ZM134.629 76.1818C135.265 76.1818 135.76 75.875 136.112 75.2614C136.464 74.6477 136.64 73.7727 136.64 72.6364C136.64 71.8807 136.559 71.2372 136.397 70.706C136.238 70.1747 136.008 69.7699 135.707 69.4915C135.409 69.2131 135.049 69.0739 134.629 69.0739C133.998 69.0739 133.505 69.3849 133.15 70.0071C132.795 70.6264 132.618 71.5028 132.618 72.6364C132.618 73.392 132.697 74.0341 132.856 74.5625C133.015 75.0909 133.244 75.4929 133.542 75.7685C133.843 76.044 134.206 76.1818 134.629 76.1818ZM142.231 77.1193C141.669 77.1193 141.167 77.0227 140.727 76.8295C140.289 76.6364 139.941 76.3679 139.683 76.0241C139.427 75.6776 139.288 75.2756 139.265 74.8182H140.339C140.362 75.0994 140.458 75.3423 140.629 75.5469C140.799 75.7486 141.022 75.9048 141.298 76.0156C141.574 76.1264 141.879 76.1818 142.214 76.1818C142.589 76.1818 142.922 76.1165 143.211 75.9858C143.501 75.8551 143.728 75.6733 143.893 75.4403C144.058 75.2074 144.14 74.9375 144.14 74.6307C144.14 74.3097 144.061 74.027 143.902 73.7827C143.743 73.5355 143.51 73.3423 143.203 73.2031C142.896 73.0639 142.521 72.9943 142.078 72.9943H141.379V72.0568H142.078C142.424 72.0568 142.728 71.9943 142.99 71.8693C143.254 71.7443 143.46 71.5682 143.608 71.3409C143.758 71.1136 143.833 70.8466 143.833 70.5398C143.833 70.2443 143.768 69.9872 143.637 69.7685C143.507 69.5497 143.322 69.3793 143.083 69.2571C142.848 69.1349 142.569 69.0739 142.248 69.0739C141.947 69.0739 141.663 69.1293 141.396 69.2401C141.132 69.348 140.916 69.5057 140.748 69.7131C140.581 69.9176 140.49 70.1648 140.475 70.4545H139.453C139.47 69.9972 139.608 69.5966 139.866 69.2528C140.125 68.9062 140.463 68.6364 140.88 68.4432C141.301 68.25 141.762 68.1534 142.265 68.1534C142.805 68.1534 143.268 68.2628 143.654 68.4815C144.041 68.6974 144.338 68.983 144.545 69.3381C144.752 69.6932 144.856 70.0767 144.856 70.4886C144.856 70.9801 144.727 71.3991 144.468 71.7457C144.213 72.0923 143.865 72.3324 143.424 72.4659V72.5341C143.975 72.625 144.406 72.8594 144.716 73.2372C145.025 73.6122 145.18 74.0767 145.18 74.6307C145.18 75.1051 145.051 75.5312 144.792 75.9091C144.537 76.2841 144.187 76.5795 143.744 76.7955C143.301 77.0114 142.797 77.1193 142.231 77.1193ZM149.991 68.2727V77H148.934V69.3807H148.883L146.752 70.7955V69.7216L148.934 68.2727H149.991Z" fill="white"/>
<rect x="169" y="14" width="70" height="70" rx="5" fill="#11644D"/>
<path d="M183.176 77L184.608 68.2727H185.46L184.028 77H183.176ZM179.205 74.5795L179.341 73.7273H185.852L185.716 74.5795H179.205ZM180.108 77L181.54 68.2727H182.392L180.96 77H180.108ZM179.716 71.5455L179.852 70.6932H186.364L186.227 71.5455H179.716ZM190.542 68.2727V77H189.485V69.3807H189.434L187.303 70.7955V69.7216L189.485 68.2727H190.542ZM196.12 68.2727V77H195.063V69.3807H195.012L192.881 70.7955V69.7216L195.063 68.2727H196.12ZM201.528 77.1193C201.17 77.1136 200.812 77.0455 200.454 76.9148C200.096 76.7841 199.769 76.5639 199.474 76.2543C199.178 75.9418 198.941 75.5199 198.762 74.9886C198.583 74.4545 198.494 73.7841 198.494 72.9773C198.494 72.2045 198.566 71.5199 198.711 70.9233C198.856 70.3239 199.066 69.8196 199.342 69.4105C199.617 68.9986 199.95 68.6861 200.339 68.473C200.731 68.2599 201.173 68.1534 201.664 68.1534C202.153 68.1534 202.587 68.2514 202.968 68.4474C203.352 68.6406 203.664 68.9105 203.906 69.2571C204.147 69.6037 204.303 70.0028 204.374 70.4545H203.335C203.238 70.0625 203.05 69.7372 202.772 69.4787C202.494 69.2202 202.124 69.0909 201.664 69.0909C200.988 69.0909 200.455 69.3849 200.066 69.973C199.68 70.5611 199.485 71.3864 199.482 72.4489H199.55C199.71 72.2074 199.898 72.0014 200.117 71.831C200.339 71.6577 200.583 71.5241 200.85 71.4304C201.117 71.3366 201.4 71.2898 201.698 71.2898C202.198 71.2898 202.656 71.4148 203.07 71.6648C203.485 71.9119 203.817 72.2543 204.067 72.6918C204.317 73.1264 204.442 73.625 204.442 74.1875C204.442 74.7273 204.322 75.2216 204.08 75.6705C203.839 76.1165 203.499 76.4716 203.062 76.7358C202.627 76.9972 202.116 77.125 201.528 77.1193ZM201.528 76.1818C201.886 76.1818 202.207 76.0923 202.491 75.9134C202.778 75.7344 203.004 75.4943 203.168 75.1932C203.336 74.892 203.42 74.5568 203.42 74.1875C203.42 73.8267 203.339 73.4986 203.177 73.2031C203.018 72.9048 202.798 72.6676 202.516 72.4915C202.238 72.3153 201.92 72.2273 201.562 72.2273C201.292 72.2273 201.04 72.2812 200.808 72.3892C200.575 72.4943 200.37 72.6392 200.194 72.8239C200.021 73.0085 199.884 73.2202 199.785 73.4588C199.685 73.6946 199.636 73.9432 199.636 74.2045C199.636 74.5511 199.717 74.875 199.879 75.1761C200.043 75.4773 200.268 75.7202 200.552 75.9048C200.839 76.0895 201.164 76.1818 201.528 76.1818ZM205.914 75.2102V74.3409L209.749 68.2727H210.38V69.6193H209.953L207.056 74.2045V74.2727H212.221V75.2102H205.914ZM210.022 77V74.946V74.5412V68.2727H211.027V77H210.022ZM213.613 75.2102V74.3409L217.448 68.2727H218.079V69.6193H217.653L214.755 74.2045V74.2727H219.92V75.2102H213.613ZM217.721 77V74.946V74.5412V68.2727H218.727V77H217.721ZM224.363 77H221.67V68.2727H224.483C225.329 68.2727 226.054 68.4474 226.656 68.7969C227.258 69.1435 227.72 69.642 228.041 70.2926C228.362 70.9403 228.522 71.7159 228.522 72.6193C228.522 73.5284 228.36 74.3111 228.037 74.9673C227.713 75.6207 227.241 76.1236 226.622 76.4759C226.002 76.8253 225.25 77 224.363 77ZM222.727 76.0625H224.295C225.017 76.0625 225.615 75.9233 226.089 75.6449C226.564 75.3665 226.917 74.9702 227.15 74.456C227.383 73.9418 227.5 73.3295 227.5 72.6193C227.5 71.9148 227.385 71.3082 227.154 70.7997C226.924 70.2884 226.581 69.8963 226.123 69.6236C225.666 69.348 225.096 69.2102 224.414 69.2102H222.727V76.0625Z" fill="white"/>
<rect x="247" y="14" width="70" height="70" rx="5" fill="#616161"/>
<path d="M263.176 77L264.608 68.2727H265.46L264.028 77H263.176ZM259.205 74.5795L259.341 73.7273H265.852L265.716 74.5795H259.205ZM260.108 77L261.54 68.2727H262.392L260.96 77H260.108ZM259.716 71.5455L259.852 70.6932H266.364L266.227 71.5455H259.716ZM270.371 77.1193C270.013 77.1136 269.656 77.0455 269.298 76.9148C268.94 76.7841 268.613 76.5639 268.317 76.2543C268.022 75.9418 267.785 75.5199 267.606 74.9886C267.427 74.4545 267.337 73.7841 267.337 72.9773C267.337 72.2045 267.41 71.5199 267.555 70.9233C267.7 70.3239 267.91 69.8196 268.185 69.4105C268.461 68.9986 268.793 68.6861 269.183 68.473C269.575 68.2599 270.016 68.1534 270.508 68.1534C270.996 68.1534 271.431 68.2514 271.812 68.4474C272.195 68.6406 272.508 68.9105 272.749 69.2571C272.991 69.6037 273.147 70.0028 273.218 70.4545H272.178C272.082 70.0625 271.894 69.7372 271.616 69.4787C271.337 69.2202 270.968 69.0909 270.508 69.0909C269.832 69.0909 269.299 69.3849 268.91 69.973C268.523 70.5611 268.329 71.3864 268.326 72.4489H268.394C268.553 72.2074 268.742 72.0014 268.961 71.831C269.183 71.6577 269.427 71.5241 269.694 71.4304C269.961 71.3366 270.244 71.2898 270.542 71.2898C271.042 71.2898 271.499 71.4148 271.914 71.6648C272.329 71.9119 272.661 72.2543 272.911 72.6918C273.161 73.1264 273.286 73.625 273.286 74.1875C273.286 74.7273 273.165 75.2216 272.924 75.6705C272.683 76.1165 272.343 76.4716 271.906 76.7358C271.471 76.9972 270.96 77.125 270.371 77.1193ZM270.371 76.1818C270.729 76.1818 271.05 76.0923 271.335 75.9134C271.621 75.7344 271.847 75.4943 272.012 75.1932C272.18 74.892 272.263 74.5568 272.263 74.1875C272.263 73.8267 272.183 73.4986 272.021 73.2031C271.862 72.9048 271.641 72.6676 271.36 72.4915C271.082 72.3153 270.763 72.2273 270.406 72.2273C270.136 72.2273 269.884 72.2812 269.651 72.3892C269.418 72.4943 269.214 72.6392 269.038 72.8239C268.864 73.0085 268.728 73.2202 268.629 73.4588C268.529 73.6946 268.479 73.9432 268.479 74.2045C268.479 74.5511 268.56 74.875 268.722 75.1761C268.887 75.4773 269.112 75.7202 269.396 75.9048C269.683 76.0895 270.008 76.1818 270.371 76.1818ZM278.03 68.2727V77H276.973V69.3807H276.922L274.792 70.7955V69.7216L276.973 68.2727H278.03ZM283.438 77.1193C283.08 77.1136 282.722 77.0455 282.364 76.9148C282.006 76.7841 281.679 76.5639 281.384 76.2543C281.088 75.9418 280.851 75.5199 280.672 74.9886C280.493 74.4545 280.404 73.7841 280.404 72.9773C280.404 72.2045 280.476 71.5199 280.621 70.9233C280.766 70.3239 280.976 69.8196 281.252 69.4105C281.527 68.9986 281.86 68.6861 282.249 68.473C282.641 68.2599 283.083 68.1534 283.574 68.1534C284.063 68.1534 284.498 68.2514 284.878 68.4474C285.262 68.6406 285.574 68.9105 285.816 69.2571C286.057 69.6037 286.213 70.0028 286.284 70.4545H285.245C285.148 70.0625 284.961 69.7372 284.682 69.4787C284.404 69.2202 284.034 69.0909 283.574 69.0909C282.898 69.0909 282.365 69.3849 281.976 69.973C281.59 70.5611 281.395 71.3864 281.392 72.4489H281.461C281.62 72.2074 281.809 72.0014 282.027 71.831C282.249 71.6577 282.493 71.5241 282.76 71.4304C283.027 71.3366 283.31 71.2898 283.608 71.2898C284.108 71.2898 284.566 71.4148 284.98 71.6648C285.395 71.9119 285.728 72.2543 285.978 72.6918C286.228 73.1264 286.353 73.625 286.353 74.1875C286.353 74.7273 286.232 75.2216 285.99 75.6705C285.749 76.1165 285.409 76.4716 284.972 76.7358C284.537 76.9972 284.026 77.125 283.438 77.1193ZM283.438 76.1818C283.796 76.1818 284.117 76.0923 284.401 75.9134C284.688 75.7344 284.914 75.4943 285.078 75.1932C285.246 74.892 285.33 74.5568 285.33 74.1875C285.33 73.8267 285.249 73.4986 285.087 73.2031C284.928 72.9048 284.708 72.6676 284.426 72.4915C284.148 72.3153 283.83 72.2273 283.472 72.2273C283.202 72.2273 282.951 72.2812 282.718 72.3892C282.485 72.4943 282.28 72.6392 282.104 72.8239C281.931 73.0085 281.794 73.2202 281.695 73.4588C281.596 73.6946 281.546 73.9432 281.546 74.2045C281.546 74.5511 281.627 74.875 281.789 75.1761C281.953 75.4773 282.178 75.7202 282.462 75.9048C282.749 76.0895 283.074 76.1818 283.438 76.1818ZM291.097 68.2727V77H290.04V69.3807H289.989L287.858 70.7955V69.7216L290.04 68.2727H291.097ZM296.504 77.1193C296.146 77.1136 295.788 77.0455 295.43 76.9148C295.072 76.7841 294.746 76.5639 294.45 76.2543C294.155 75.9418 293.918 75.5199 293.739 74.9886C293.56 74.4545 293.47 73.7841 293.47 72.9773C293.47 72.2045 293.543 71.5199 293.688 70.9233C293.832 70.3239 294.043 69.8196 294.318 69.4105C294.594 68.9986 294.926 68.6861 295.315 68.473C295.707 68.2599 296.149 68.1534 296.641 68.1534C297.129 68.1534 297.564 68.2514 297.945 68.4474C298.328 68.6406 298.641 68.9105 298.882 69.2571C299.124 69.6037 299.28 70.0028 299.351 70.4545H298.311C298.214 70.0625 298.027 69.7372 297.749 69.4787C297.47 69.2202 297.101 69.0909 296.641 69.0909C295.964 69.0909 295.432 69.3849 295.043 69.973C294.656 70.5611 294.462 71.3864 294.459 72.4489H294.527C294.686 72.2074 294.875 72.0014 295.094 71.831C295.315 71.6577 295.56 71.5241 295.827 71.4304C296.094 71.3366 296.376 71.2898 296.675 71.2898C297.175 71.2898 297.632 71.4148 298.047 71.6648C298.462 71.9119 298.794 72.2543 299.044 72.6918C299.294 73.1264 299.419 73.625 299.419 74.1875C299.419 74.7273 299.298 75.2216 299.057 75.6705C298.815 76.1165 298.476 76.4716 298.038 76.7358C297.604 76.9972 297.092 77.125 296.504 77.1193ZM296.504 76.1818C296.862 76.1818 297.183 76.0923 297.467 75.9134C297.754 75.7344 297.98 75.4943 298.145 75.1932C298.313 74.892 298.396 74.5568 298.396 74.1875C298.396 73.8267 298.315 73.4986 298.153 73.2031C297.994 72.9048 297.774 72.6676 297.493 72.4915C297.214 72.3153 296.896 72.2273 296.538 72.2273C296.268 72.2273 296.017 72.2812 295.784 72.3892C295.551 72.4943 295.347 72.6392 295.17 72.8239C294.997 73.0085 294.861 73.2202 294.761 73.4588C294.662 73.6946 294.612 73.9432 294.612 74.2045C294.612 74.5511 294.693 74.875 294.855 75.1761C295.02 75.4773 295.244 75.7202 295.528 75.9048C295.815 76.0895 296.141 76.1818 296.504 76.1818ZM304.163 68.2727V77H303.106V69.3807H303.055L300.924 70.7955V69.7216L303.106 68.2727H304.163Z" fill="white"/>
<rect x="325" y="14" width="70" height="70" rx="5" fill="#EDEDED"/>
<rect x="324.75" y="13.75" width="70.5" height="70.5" rx="5.25" stroke="#848484" stroke-opacity="0.42" stroke-width="0.5"/>
<rect x="403" y="14" width="70" height="70" rx="5" fill="#CC4B00"/>
<path d="M414.176 77L415.608 68.2727H416.46L415.028 77H414.176ZM410.205 74.5795L410.341 73.7273H416.852L416.716 74.5795H410.205ZM411.108 77L412.54 68.2727H413.392L411.96 77H411.108ZM410.716 71.5455L410.852 70.6932H417.364L417.227 71.5455H410.716ZM425.65 71H424.593C424.531 70.696 424.421 70.429 424.265 70.1989C424.112 69.9688 423.924 69.7756 423.702 69.6193C423.484 69.4602 423.241 69.3409 422.974 69.2614C422.707 69.1818 422.428 69.142 422.138 69.142C421.61 69.142 421.131 69.2756 420.702 69.5426C420.276 69.8097 419.937 70.2031 419.684 70.723C419.434 71.2429 419.309 71.8807 419.309 72.6364C419.309 73.392 419.434 74.0298 419.684 74.5497C419.937 75.0696 420.276 75.4631 420.702 75.7301C421.131 75.9972 421.61 76.1307 422.138 76.1307C422.428 76.1307 422.707 76.0909 422.974 76.0114C423.241 75.9318 423.484 75.8139 423.702 75.6577C423.924 75.4986 424.112 75.304 424.265 75.0739C424.421 74.8409 424.531 74.5739 424.593 74.2727H425.65C425.57 74.7187 425.425 75.1179 425.215 75.4702C425.005 75.8224 424.744 76.1222 424.431 76.3693C424.119 76.6136 423.768 76.7997 423.379 76.9276C422.992 77.0554 422.579 77.1193 422.138 77.1193C421.394 77.1193 420.732 76.9375 420.153 76.5739C419.573 76.2102 419.117 75.6932 418.785 75.0227C418.452 74.3523 418.286 73.5568 418.286 72.6364C418.286 71.7159 418.452 70.9205 418.785 70.25C419.117 69.5795 419.573 69.0625 420.153 68.6989C420.732 68.3352 421.394 68.1534 422.138 68.1534C422.579 68.1534 422.992 68.2173 423.379 68.3452C423.768 68.473 424.119 68.6605 424.431 68.9077C424.744 69.152 425.005 69.4503 425.215 69.8026C425.425 70.152 425.57 70.5511 425.65 71ZM434.38 71H433.324C433.261 70.696 433.152 70.429 432.995 70.1989C432.842 69.9688 432.654 69.7756 432.433 69.6193C432.214 69.4602 431.971 69.3409 431.704 69.2614C431.437 69.1818 431.159 69.142 430.869 69.142C430.341 69.142 429.862 69.2756 429.433 69.5426C429.007 69.8097 428.667 70.2031 428.414 70.723C428.164 71.2429 428.039 71.8807 428.039 72.6364C428.039 73.392 428.164 74.0298 428.414 74.5497C428.667 75.0696 429.007 75.4631 429.433 75.7301C429.862 75.9972 430.341 76.1307 430.869 76.1307C431.159 76.1307 431.437 76.0909 431.704 76.0114C431.971 75.9318 432.214 75.8139 432.433 75.6577C432.654 75.4986 432.842 75.304 432.995 75.0739C433.152 74.8409 433.261 74.5739 433.324 74.2727H434.38C434.301 74.7187 434.156 75.1179 433.946 75.4702C433.735 75.8224 433.474 76.1222 433.162 76.3693C432.849 76.6136 432.498 76.7997 432.109 76.9276C431.723 77.0554 431.309 77.1193 430.869 77.1193C430.125 77.1193 429.463 76.9375 428.883 76.5739C428.304 76.2102 427.848 75.6932 427.515 75.0227C427.183 74.3523 427.017 73.5568 427.017 72.6364C427.017 71.7159 427.183 70.9205 427.515 70.25C427.848 69.5795 428.304 69.0625 428.883 68.6989C429.463 68.3352 430.125 68.1534 430.869 68.1534C431.309 68.1534 431.723 68.2173 432.109 68.3452C432.498 68.473 432.849 68.6605 433.162 68.9077C433.474 69.152 433.735 69.4503 433.946 69.8026C434.156 70.152 434.301 70.5511 434.38 71ZM435.73 75.2102V74.3409L439.565 68.2727H440.196V69.6193H439.77L436.872 74.2045V74.2727H442.037V75.2102H435.73ZM439.838 77V74.946V74.5412V68.2727H440.844V77H439.838ZM443.787 77V68.2727H446.838C447.446 68.2727 447.948 68.3778 448.343 68.5881C448.738 68.7955 449.032 69.0753 449.225 69.4276C449.418 69.777 449.515 70.1648 449.515 70.5909C449.515 70.9659 449.448 71.2756 449.314 71.5199C449.184 71.7642 449.01 71.9574 448.794 72.0994C448.581 72.2415 448.35 72.3466 448.1 72.4148V72.5C448.367 72.517 448.635 72.6108 448.905 72.7812C449.175 72.9517 449.401 73.196 449.583 73.5142C449.765 73.8324 449.855 74.2216 449.855 74.6818C449.855 75.1193 449.756 75.5128 449.557 75.8622C449.358 76.2116 449.044 76.4886 448.615 76.6932C448.186 76.8977 447.628 77 446.941 77H443.787ZM444.844 76.0625H446.941C447.631 76.0625 448.121 75.929 448.411 75.6619C448.703 75.392 448.85 75.0653 448.85 74.6818C448.85 74.3864 448.775 74.1136 448.624 73.8636C448.473 73.6108 448.259 73.4091 447.98 73.2585C447.702 73.1051 447.373 73.0284 446.992 73.0284H444.844V76.0625ZM444.844 72.108H446.804C447.123 72.108 447.409 72.0455 447.665 71.9205C447.924 71.7955 448.128 71.6193 448.279 71.392C448.432 71.1648 448.509 70.8977 448.509 70.5909C448.509 70.2074 448.375 69.8821 448.108 69.6151C447.841 69.3452 447.418 69.2102 446.838 69.2102H444.844V72.108ZM454.285 77.1193C453.643 77.1193 453.096 76.9446 452.645 76.5952C452.193 76.2429 451.848 75.733 451.609 75.0653C451.37 74.3949 451.251 73.5852 451.251 72.6364C451.251 71.6932 451.37 70.8878 451.609 70.2202C451.85 69.5497 452.197 69.0384 452.649 68.6861C453.103 68.331 453.649 68.1534 454.285 68.1534C454.922 68.1534 455.466 68.331 455.917 68.6861C456.372 69.0384 456.718 69.5497 456.957 70.2202C457.199 70.8878 457.319 71.6932 457.319 72.6364C457.319 73.5852 457.2 74.3949 456.961 75.0653C456.723 75.733 456.377 76.2429 455.926 76.5952C455.474 76.9446 454.927 77.1193 454.285 77.1193ZM454.285 76.1818C454.922 76.1818 455.416 75.875 455.768 75.2614C456.12 74.6477 456.297 73.7727 456.297 72.6364C456.297 71.8807 456.216 71.2372 456.054 70.706C455.895 70.1747 455.664 69.7699 455.363 69.4915C455.065 69.2131 454.706 69.0739 454.285 69.0739C453.654 69.0739 453.162 69.3849 452.806 70.0071C452.451 70.6264 452.274 71.5028 452.274 72.6364C452.274 73.392 452.353 74.0341 452.512 74.5625C452.672 75.0909 452.9 75.4929 453.199 75.7685C453.5 76.044 453.862 76.1818 454.285 76.1818ZM461.785 77.1193C461.143 77.1193 460.596 76.9446 460.145 76.5952C459.693 76.2429 459.348 75.733 459.109 75.0653C458.87 74.3949 458.751 73.5852 458.751 72.6364C458.751 71.6932 458.87 70.8878 459.109 70.2202C459.35 69.5497 459.697 69.0384 460.149 68.6861C460.603 68.331 461.149 68.1534 461.785 68.1534C462.422 68.1534 462.966 68.331 463.417 68.6861C463.872 69.0384 464.218 69.5497 464.457 70.2202C464.699 70.8878 464.819 71.6932 464.819 72.6364C464.819 73.5852 464.7 74.3949 464.461 75.0653C464.223 75.733 463.877 76.2429 463.426 76.5952C462.974 76.9446 462.427 77.1193 461.785 77.1193ZM461.785 76.1818C462.422 76.1818 462.916 75.875 463.268 75.2614C463.62 74.6477 463.797 73.7727 463.797 72.6364C463.797 71.8807 463.716 71.2372 463.554 70.706C463.395 70.1747 463.164 69.7699 462.863 69.4915C462.565 69.2131 462.206 69.0739 461.785 69.0739C461.154 69.0739 460.662 69.3849 460.306 70.0071C459.951 70.6264 459.774 71.5028 459.774 72.6364C459.774 73.392 459.853 74.0341 460.012 74.5625C460.172 75.0909 460.4 75.4929 460.699 75.7685C461 76.044 461.362 76.1818 461.785 76.1818Z" fill="white"/>
<path d="M337.176 77L338.608 68.2727H339.46L338.028 77H337.176ZM333.205 74.5795L333.341 73.7273H339.852L339.716 74.5795H333.205ZM334.108 77L335.54 68.2727H336.392L334.96 77H334.108ZM333.716 71.5455L333.852 70.6932H340.364L340.227 71.5455H333.716ZM341.627 77V68.2727H346.894V69.2102H342.684V72.1591H346.621V73.0966H342.684V76.0625H346.962V77H341.627ZM351.492 77H348.799V68.2727H351.612C352.458 68.2727 353.183 68.4474 353.785 68.7969C354.387 69.1435 354.849 69.642 355.17 70.2926C355.491 70.9403 355.651 71.7159 355.651 72.6193C355.651 73.5284 355.489 74.3111 355.165 74.9673C354.842 75.6207 354.37 76.1236 353.751 76.4759C353.131 76.8253 352.379 77 351.492 77ZM349.856 76.0625H351.424C352.146 76.0625 352.744 75.9233 353.218 75.6449C353.692 75.3665 354.046 74.9702 354.279 74.456C354.512 73.9418 354.629 73.3295 354.629 72.6193C354.629 71.9148 354.513 71.3082 354.283 70.7997C354.053 70.2884 353.71 69.8963 353.252 69.6236C352.795 69.348 352.225 69.2102 351.543 69.2102H349.856V76.0625ZM357.424 77V68.2727H362.691V69.2102H358.481V72.1591H362.418V73.0966H358.481V76.0625H362.759V77H357.424ZM367.289 77H364.596V68.2727H367.408C368.255 68.2727 368.979 68.4474 369.582 68.7969C370.184 69.1435 370.646 69.642 370.967 70.2926C371.288 70.9403 371.448 71.7159 371.448 72.6193C371.448 73.5284 371.286 74.3111 370.962 74.9673C370.638 75.6207 370.167 76.1236 369.548 76.4759C368.928 76.8253 368.175 77 367.289 77ZM365.653 76.0625H367.221C367.942 76.0625 368.54 75.9233 369.015 75.6449C369.489 75.3665 369.843 74.9702 370.076 74.456C370.309 73.9418 370.425 73.3295 370.425 72.6193C370.425 71.9148 370.31 71.3082 370.08 70.7997C369.85 70.2884 369.506 69.8963 369.049 69.6236C368.592 69.348 368.022 69.2102 367.34 69.2102H365.653V76.0625ZM373.221 77V68.2727H378.488V69.2102H374.278V72.1591H378.215V73.0966H374.278V76.0625H378.556V77H373.221ZM383.086 77H380.393V68.2727H383.205C384.052 68.2727 384.776 68.4474 385.379 68.7969C385.981 69.1435 386.442 69.642 386.763 70.2926C387.085 70.9403 387.245 71.7159 387.245 72.6193C387.245 73.5284 387.083 74.3111 386.759 74.9673C386.435 75.6207 385.964 76.1236 385.344 76.4759C384.725 76.8253 383.972 77 383.086 77ZM381.45 76.0625H383.018C383.739 76.0625 384.337 75.9233 384.812 75.6449C385.286 75.3665 385.64 74.9702 385.873 74.456C386.106 73.9418 386.222 73.3295 386.222 72.6193C386.222 71.9148 386.107 71.3082 385.877 70.7997C385.647 70.2884 385.303 69.8963 384.846 69.6236C384.388 69.348 383.819 69.2102 383.137 69.2102H381.45V76.0625Z" fill="#616161"/>
<rect x="481" y="14" width="70" height="70" rx="5" fill="#A53E02"/>
<path d="M494.176 77L495.608 68.2727H496.46L495.028 77H494.176ZM490.205 74.5795L490.341 73.7273H496.852L496.716 74.5795H490.205ZM491.108 77L492.54 68.2727H493.392L491.96 77H491.108ZM490.716 71.5455L490.852 70.6932H497.364L497.227 71.5455H490.716ZM498.985 77H497.877L501.082 68.2727H502.173L505.377 77H504.269L501.661 69.6534H501.593L498.985 77ZM499.394 73.5909H503.86V74.5284H499.394V73.5909ZM509.31 77.1193C508.81 77.1193 508.36 77.0199 507.96 76.821C507.559 76.6222 507.238 76.3494 506.996 76.0028C506.755 75.6562 506.623 75.2614 506.6 74.8182H507.623C507.663 75.2131 507.842 75.5398 508.16 75.7983C508.481 76.054 508.864 76.1818 509.31 76.1818C509.668 76.1818 509.987 76.098 510.265 75.9304C510.546 75.7628 510.766 75.5327 510.925 75.2401C511.087 74.9446 511.168 74.6108 511.168 74.2386C511.168 73.858 511.085 73.5185 510.917 73.2202C510.752 72.919 510.525 72.6818 510.235 72.5085C509.945 72.3352 509.614 72.2472 509.242 72.2443C508.975 72.2415 508.701 72.2827 508.42 72.3679C508.138 72.4503 507.907 72.5568 507.725 72.6875L506.737 72.5682L507.265 68.2727H511.799V69.2102H508.151L507.844 71.7841H507.896C508.075 71.642 508.299 71.5241 508.569 71.4304C508.839 71.3366 509.12 71.2898 509.413 71.2898C509.947 71.2898 510.423 71.4176 510.84 71.6733C511.261 71.9261 511.59 72.2727 511.829 72.7131C512.07 73.1534 512.191 73.6562 512.191 74.2216C512.191 74.7784 512.066 75.2756 511.816 75.7131C511.569 76.1477 511.228 76.4915 510.793 76.7443C510.359 76.9943 509.864 77.1193 509.31 77.1193ZM516.833 77.1193C516.27 77.1193 515.769 77.0227 515.328 76.8295C514.891 76.6364 514.543 76.3679 514.284 76.0241C514.029 75.6776 513.89 75.2756 513.867 74.8182H514.941C514.963 75.0994 515.06 75.3423 515.23 75.5469C515.401 75.7486 515.624 75.9048 515.9 76.0156C516.175 76.1264 516.48 76.1818 516.816 76.1818C517.191 76.1818 517.523 76.1165 517.813 75.9858C518.103 75.8551 518.33 75.6733 518.495 75.4403C518.659 75.2074 518.742 74.9375 518.742 74.6307C518.742 74.3097 518.662 74.027 518.503 73.7827C518.344 73.5355 518.111 73.3423 517.804 73.2031C517.498 73.0639 517.123 72.9943 516.679 72.9943H515.98V72.0568H516.679C517.026 72.0568 517.33 71.9943 517.591 71.8693C517.855 71.7443 518.061 71.5682 518.209 71.3409C518.36 71.1136 518.435 70.8466 518.435 70.5398C518.435 70.2443 518.37 69.9872 518.239 69.7685C518.108 69.5497 517.924 69.3793 517.685 69.2571C517.449 69.1349 517.171 69.0739 516.85 69.0739C516.549 69.0739 516.265 69.1293 515.998 69.2401C515.733 69.348 515.517 69.5057 515.35 69.7131C515.182 69.9176 515.091 70.1648 515.077 70.4545H514.054C514.071 69.9972 514.209 69.5966 514.468 69.2528C514.726 68.9062 515.064 68.6364 515.482 68.4432C515.902 68.25 516.364 68.1534 516.867 68.1534C517.407 68.1534 517.87 68.2628 518.256 68.4815C518.642 68.6974 518.939 68.983 519.147 69.3381C519.354 69.6932 519.458 70.0767 519.458 70.4886C519.458 70.9801 519.328 71.3991 519.07 71.7457C518.814 72.0923 518.466 72.3324 518.026 72.4659V72.5341C518.577 72.625 519.007 72.8594 519.317 73.2372C519.627 73.6122 519.782 74.0767 519.782 74.6307C519.782 75.1051 519.652 75.5312 519.394 75.9091C519.138 76.2841 518.789 76.5795 518.346 76.7955C517.902 77.0114 517.398 77.1193 516.833 77.1193ZM521.678 77V68.2727H526.945V69.2102H522.735V72.1591H526.672V73.0966H522.735V76.0625H527.013V77H521.678ZM531.543 77.1193C530.901 77.1193 530.354 76.9446 529.902 76.5952C529.451 76.2429 529.105 75.733 528.867 75.0653C528.628 74.3949 528.509 73.5852 528.509 72.6364C528.509 71.6932 528.628 70.8878 528.867 70.2202C529.108 69.5497 529.455 69.0384 529.907 68.6861C530.361 68.331 530.907 68.1534 531.543 68.1534C532.179 68.1534 532.723 68.331 533.175 68.6861C533.63 69.0384 533.976 69.5497 534.215 70.2202C534.456 70.8878 534.577 71.6932 534.577 72.6364C534.577 73.5852 534.458 74.3949 534.219 75.0653C533.98 75.733 533.635 76.2429 533.184 76.5952C532.732 76.9446 532.185 77.1193 531.543 77.1193ZM531.543 76.1818C532.179 76.1818 532.674 75.875 533.026 75.2614C533.378 74.6477 533.554 73.7727 533.554 72.6364C533.554 71.8807 533.473 71.2372 533.311 70.706C533.152 70.1747 532.922 69.7699 532.621 69.4915C532.323 69.2131 531.963 69.0739 531.543 69.0739C530.912 69.0739 530.419 69.3849 530.064 70.0071C529.709 70.6264 529.532 71.5028 529.532 72.6364C529.532 73.392 529.611 74.0341 529.77 74.5625C529.929 75.0909 530.158 75.4929 530.456 75.7685C530.757 76.044 531.12 76.1818 531.543 76.1818ZM536.196 77V76.233L539.077 73.0795C539.415 72.7102 539.694 72.3892 539.912 72.1165C540.131 71.8409 540.293 71.5824 540.398 71.3409C540.506 71.0966 540.56 70.8409 540.56 70.5739C540.56 70.267 540.486 70.0014 540.338 69.777C540.194 69.5526 539.995 69.3793 539.742 69.2571C539.489 69.1349 539.205 69.0739 538.89 69.0739C538.554 69.0739 538.262 69.1435 538.012 69.2827C537.765 69.419 537.573 69.6108 537.436 69.858C537.303 70.1051 537.236 70.3949 537.236 70.7273H536.23C536.23 70.2159 536.348 69.767 536.584 69.3807C536.82 68.9943 537.141 68.6932 537.547 68.4773C537.956 68.2614 538.415 68.1534 538.924 68.1534C539.435 68.1534 539.888 68.2614 540.283 68.4773C540.678 68.6932 540.988 68.9844 541.212 69.3509C541.436 69.7173 541.549 70.125 541.549 70.5739C541.549 70.8949 541.49 71.2088 541.374 71.5156C541.26 71.8196 541.061 72.1591 540.777 72.5341C540.496 72.9062 540.105 73.3608 539.605 73.8977L537.645 75.9943V76.0625H541.702V77H536.196Z" fill="white"/>
</svg>
